G04 EAGLE Gerber RS-274X export*
G75*
%MOMM*%
%FSLAX34Y34*%
%LPD*%
%INBottom Copper*%
%IPPOS*%
%AMOC8*
5,1,8,0,0,1.08239X$1,22.5*%
G01*
%ADD10C,0.350000*%
%ADD11C,0.100000*%


D10*
X46000Y177000D03*
X27000Y170500D03*
D11*
X28000Y238000D02*
X30000Y238000D01*
X30290Y237996D01*
X30580Y237986D01*
X30869Y237968D01*
X31158Y237944D01*
X31446Y237913D01*
X31734Y237874D01*
X32020Y237829D01*
X32306Y237776D01*
X32589Y237717D01*
X32872Y237651D01*
X33152Y237579D01*
X33431Y237499D01*
X33708Y237413D01*
X33983Y237320D01*
X34255Y237220D01*
X34525Y237114D01*
X34792Y237002D01*
X35057Y236882D01*
X35318Y236757D01*
X35577Y236625D01*
X35832Y236488D01*
X36084Y236344D01*
X36332Y236194D01*
X36576Y236038D01*
X36817Y235876D01*
X37053Y235708D01*
X37286Y235535D01*
X37514Y235356D01*
X37738Y235172D01*
X37957Y234982D01*
X38172Y234787D01*
X38382Y234587D01*
X38587Y234382D01*
X38787Y234172D01*
X38982Y233957D01*
X39172Y233738D01*
X39356Y233514D01*
X39535Y233286D01*
X39708Y233053D01*
X39876Y232817D01*
X40038Y232576D01*
X40194Y232332D01*
X40344Y232084D01*
X40488Y231832D01*
X40625Y231577D01*
X40757Y231318D01*
X40882Y231057D01*
X41002Y230792D01*
X41114Y230525D01*
X41220Y230255D01*
X41320Y229983D01*
X41413Y229708D01*
X41499Y229431D01*
X41579Y229152D01*
X41651Y228872D01*
X41717Y228589D01*
X41776Y228306D01*
X41829Y228020D01*
X41874Y227734D01*
X41913Y227446D01*
X41944Y227158D01*
X41968Y226869D01*
X41986Y226580D01*
X41996Y226290D01*
X42000Y226000D01*
X42000Y200000D01*
X41998Y199848D01*
X41992Y199696D01*
X41983Y199544D01*
X41969Y199393D01*
X41952Y199242D01*
X41931Y199091D01*
X41906Y198941D01*
X41877Y198792D01*
X41845Y198644D01*
X41808Y198496D01*
X41769Y198349D01*
X41725Y198204D01*
X41677Y198059D01*
X41627Y197916D01*
X41572Y197774D01*
X41514Y197634D01*
X41452Y197495D01*
X41387Y197358D01*
X41318Y197222D01*
X41246Y197088D01*
X41171Y196956D01*
X41092Y196826D01*
X41010Y196698D01*
X40925Y196572D01*
X40836Y196449D01*
X40745Y196327D01*
X40650Y196208D01*
X40553Y196092D01*
X40452Y195978D01*
X40349Y195866D01*
X40243Y195757D01*
X40134Y195651D01*
X40022Y195548D01*
X39908Y195447D01*
X39792Y195350D01*
X39673Y195255D01*
X39551Y195164D01*
X39428Y195075D01*
X39302Y194990D01*
X39174Y194908D01*
X39044Y194829D01*
X38912Y194754D01*
X38778Y194682D01*
X38642Y194613D01*
X38505Y194548D01*
X38366Y194486D01*
X38226Y194428D01*
X38084Y194373D01*
X37941Y194323D01*
X37796Y194275D01*
X37651Y194231D01*
X37504Y194192D01*
X37356Y194155D01*
X37208Y194123D01*
X37059Y194094D01*
X36909Y194069D01*
X36758Y194048D01*
X36607Y194031D01*
X36456Y194017D01*
X36304Y194008D01*
X36152Y194002D01*
X36000Y194000D01*
X35000Y194000D01*
X16000Y226000D02*
X16004Y226290D01*
X16014Y226580D01*
X16032Y226869D01*
X16056Y227158D01*
X16087Y227446D01*
X16126Y227734D01*
X16171Y228020D01*
X16224Y228306D01*
X16283Y228589D01*
X16349Y228872D01*
X16421Y229152D01*
X16501Y229431D01*
X16587Y229708D01*
X16680Y229983D01*
X16780Y230255D01*
X16886Y230525D01*
X16998Y230792D01*
X17118Y231057D01*
X17243Y231318D01*
X17375Y231577D01*
X17512Y231832D01*
X17656Y232084D01*
X17806Y232332D01*
X17962Y232576D01*
X18124Y232817D01*
X18292Y233053D01*
X18465Y233286D01*
X18644Y233514D01*
X18828Y233738D01*
X19018Y233957D01*
X19213Y234172D01*
X19413Y234382D01*
X19618Y234587D01*
X19828Y234787D01*
X20043Y234982D01*
X20262Y235172D01*
X20486Y235356D01*
X20714Y235535D01*
X20947Y235708D01*
X21183Y235876D01*
X21424Y236038D01*
X21668Y236194D01*
X21916Y236344D01*
X22168Y236488D01*
X22423Y236625D01*
X22682Y236757D01*
X22943Y236882D01*
X23208Y237002D01*
X23475Y237114D01*
X23745Y237220D01*
X24017Y237320D01*
X24292Y237413D01*
X24569Y237499D01*
X24848Y237579D01*
X25128Y237651D01*
X25411Y237717D01*
X25694Y237776D01*
X25980Y237829D01*
X26266Y237874D01*
X26554Y237913D01*
X26842Y237944D01*
X27131Y237968D01*
X27420Y237986D01*
X27710Y237996D01*
X28000Y238000D01*
X16000Y226000D02*
X16000Y28000D01*
X16004Y27710D01*
X16014Y27420D01*
X16032Y27131D01*
X16056Y26842D01*
X16087Y26554D01*
X16126Y26266D01*
X16171Y25980D01*
X16224Y25694D01*
X16283Y25411D01*
X16349Y25128D01*
X16421Y24848D01*
X16501Y24569D01*
X16587Y24292D01*
X16680Y24017D01*
X16780Y23745D01*
X16886Y23475D01*
X16998Y23208D01*
X17118Y22943D01*
X17243Y22682D01*
X17375Y22423D01*
X17512Y22168D01*
X17656Y21916D01*
X17806Y21668D01*
X17962Y21424D01*
X18124Y21183D01*
X18292Y20947D01*
X18465Y20714D01*
X18644Y20486D01*
X18828Y20262D01*
X19018Y20043D01*
X19213Y19828D01*
X19413Y19618D01*
X19618Y19413D01*
X19828Y19213D01*
X20043Y19018D01*
X20262Y18828D01*
X20486Y18644D01*
X20714Y18465D01*
X20947Y18292D01*
X21183Y18124D01*
X21424Y17962D01*
X21668Y17806D01*
X21916Y17656D01*
X22168Y17512D01*
X22423Y17375D01*
X22682Y17243D01*
X22943Y17118D01*
X23208Y16998D01*
X23475Y16886D01*
X23745Y16780D01*
X24017Y16680D01*
X24292Y16587D01*
X24569Y16501D01*
X24848Y16421D01*
X25128Y16349D01*
X25411Y16283D01*
X25694Y16224D01*
X25980Y16171D01*
X26266Y16126D01*
X26554Y16087D01*
X26842Y16056D01*
X27131Y16032D01*
X27420Y16014D01*
X27710Y16004D01*
X28000Y16000D01*
X30000Y16000D01*
X30290Y16004D01*
X30580Y16014D01*
X30869Y16032D01*
X31158Y16056D01*
X31446Y16087D01*
X31734Y16126D01*
X32020Y16171D01*
X32306Y16224D01*
X32589Y16283D01*
X32872Y16349D01*
X33152Y16421D01*
X33431Y16501D01*
X33708Y16587D01*
X33983Y16680D01*
X34255Y16780D01*
X34525Y16886D01*
X34792Y16998D01*
X35057Y17118D01*
X35318Y17243D01*
X35577Y17375D01*
X35832Y17512D01*
X36084Y17656D01*
X36332Y17806D01*
X36576Y17962D01*
X36817Y18124D01*
X37053Y18292D01*
X37286Y18465D01*
X37514Y18644D01*
X37738Y18828D01*
X37957Y19018D01*
X38172Y19213D01*
X38382Y19413D01*
X38587Y19618D01*
X38787Y19828D01*
X38982Y20043D01*
X39172Y20262D01*
X39356Y20486D01*
X39535Y20714D01*
X39708Y20947D01*
X39876Y21183D01*
X40038Y21424D01*
X40194Y21668D01*
X40344Y21916D01*
X40488Y22168D01*
X40625Y22423D01*
X40757Y22682D01*
X40882Y22943D01*
X41002Y23208D01*
X41114Y23475D01*
X41220Y23745D01*
X41320Y24017D01*
X41413Y24292D01*
X41499Y24569D01*
X41579Y24848D01*
X41651Y25128D01*
X41717Y25411D01*
X41776Y25694D01*
X41829Y25980D01*
X41874Y26266D01*
X41913Y26554D01*
X41944Y26842D01*
X41968Y27131D01*
X41986Y27420D01*
X41996Y27710D01*
X42000Y28000D01*
X42000Y157000D01*
X41998Y157140D01*
X41992Y157280D01*
X41982Y157420D01*
X41969Y157560D01*
X41951Y157699D01*
X41929Y157838D01*
X41904Y157975D01*
X41875Y158113D01*
X41842Y158249D01*
X41805Y158384D01*
X41764Y158518D01*
X41719Y158651D01*
X41671Y158783D01*
X41619Y158913D01*
X41564Y159042D01*
X41505Y159169D01*
X41442Y159295D01*
X41376Y159419D01*
X41307Y159540D01*
X41234Y159660D01*
X41157Y159778D01*
X41078Y159893D01*
X40995Y160007D01*
X40909Y160117D01*
X40820Y160226D01*
X40728Y160332D01*
X40633Y160435D01*
X40536Y160536D01*
X40435Y160633D01*
X40332Y160728D01*
X40226Y160820D01*
X40117Y160909D01*
X40007Y160995D01*
X39893Y161078D01*
X39778Y161157D01*
X39660Y161234D01*
X39540Y161307D01*
X39419Y161376D01*
X39295Y161442D01*
X39169Y161505D01*
X39042Y161564D01*
X38913Y161619D01*
X38783Y161671D01*
X38651Y161719D01*
X38518Y161764D01*
X38384Y161805D01*
X38249Y161842D01*
X38113Y161875D01*
X37975Y161904D01*
X37838Y161929D01*
X37699Y161951D01*
X37560Y161969D01*
X37420Y161982D01*
X37280Y161992D01*
X37140Y161998D01*
X37000Y162000D01*
X37000Y192000D02*
X38000Y192000D01*
X38152Y192002D01*
X38304Y192008D01*
X38456Y192017D01*
X38607Y192031D01*
X38758Y192048D01*
X38909Y192069D01*
X39059Y192094D01*
X39208Y192123D01*
X39356Y192155D01*
X39504Y192192D01*
X39651Y192231D01*
X39796Y192275D01*
X39941Y192323D01*
X40084Y192373D01*
X40226Y192428D01*
X40366Y192486D01*
X40505Y192548D01*
X40642Y192613D01*
X40778Y192682D01*
X40912Y192754D01*
X41044Y192829D01*
X41174Y192908D01*
X41302Y192990D01*
X41428Y193075D01*
X41551Y193164D01*
X41673Y193255D01*
X41792Y193350D01*
X41908Y193447D01*
X42022Y193548D01*
X42134Y193651D01*
X42243Y193757D01*
X42349Y193866D01*
X42452Y193978D01*
X42553Y194092D01*
X42650Y194208D01*
X42745Y194327D01*
X42836Y194449D01*
X42925Y194572D01*
X43010Y194698D01*
X43092Y194826D01*
X43171Y194956D01*
X43246Y195088D01*
X43318Y195222D01*
X43387Y195358D01*
X43452Y195495D01*
X43514Y195634D01*
X43572Y195774D01*
X43627Y195916D01*
X43677Y196059D01*
X43725Y196204D01*
X43769Y196349D01*
X43808Y196496D01*
X43845Y196644D01*
X43877Y196792D01*
X43906Y196941D01*
X43931Y197091D01*
X43952Y197242D01*
X43969Y197393D01*
X43983Y197544D01*
X43992Y197696D01*
X43998Y197848D01*
X44000Y198000D01*
X44000Y226000D01*
X43996Y226338D01*
X43984Y226676D01*
X43963Y227014D01*
X43935Y227351D01*
X43898Y227688D01*
X43853Y228023D01*
X43800Y228357D01*
X43739Y228690D01*
X43670Y229021D01*
X43593Y229350D01*
X43508Y229678D01*
X43415Y230003D01*
X43315Y230326D01*
X43206Y230647D01*
X43090Y230964D01*
X42966Y231279D01*
X42835Y231591D01*
X42696Y231900D01*
X42550Y232205D01*
X42396Y232506D01*
X42236Y232804D01*
X42068Y233097D01*
X41893Y233387D01*
X41711Y233672D01*
X41522Y233953D01*
X41326Y234229D01*
X41124Y234500D01*
X40915Y234767D01*
X40700Y235028D01*
X40479Y235284D01*
X40252Y235534D01*
X40018Y235779D01*
X39779Y236018D01*
X39534Y236252D01*
X39284Y236479D01*
X39028Y236700D01*
X38767Y236915D01*
X38500Y237124D01*
X38229Y237326D01*
X37953Y237522D01*
X37672Y237711D01*
X37387Y237893D01*
X37097Y238068D01*
X36804Y238236D01*
X36506Y238396D01*
X36205Y238550D01*
X35900Y238696D01*
X35591Y238835D01*
X35279Y238966D01*
X34964Y239090D01*
X34647Y239206D01*
X34326Y239315D01*
X34003Y239415D01*
X33678Y239508D01*
X33350Y239593D01*
X33021Y239670D01*
X32690Y239739D01*
X32357Y239800D01*
X32023Y239853D01*
X31688Y239898D01*
X31351Y239935D01*
X31014Y239963D01*
X30676Y239984D01*
X30338Y239996D01*
X30000Y240000D01*
X28000Y240000D01*
X27662Y239996D01*
X27324Y239984D01*
X26986Y239963D01*
X26649Y239935D01*
X26312Y239898D01*
X25977Y239853D01*
X25643Y239800D01*
X25310Y239739D01*
X24979Y239670D01*
X24650Y239593D01*
X24322Y239508D01*
X23997Y239415D01*
X23674Y239315D01*
X23353Y239206D01*
X23036Y239090D01*
X22721Y238966D01*
X22409Y238835D01*
X22100Y238696D01*
X21795Y238550D01*
X21494Y238396D01*
X21196Y238236D01*
X20903Y238068D01*
X20613Y237893D01*
X20328Y237711D01*
X20047Y237522D01*
X19771Y237326D01*
X19500Y237124D01*
X19233Y236915D01*
X18972Y236700D01*
X18716Y236479D01*
X18466Y236252D01*
X18221Y236018D01*
X17982Y235779D01*
X17748Y235534D01*
X17521Y235284D01*
X17300Y235028D01*
X17085Y234767D01*
X16876Y234500D01*
X16674Y234229D01*
X16478Y233953D01*
X16289Y233672D01*
X16107Y233387D01*
X15932Y233097D01*
X15764Y232804D01*
X15604Y232506D01*
X15450Y232205D01*
X15304Y231900D01*
X15165Y231591D01*
X15034Y231279D01*
X14910Y230964D01*
X14794Y230647D01*
X14685Y230326D01*
X14585Y230003D01*
X14492Y229678D01*
X14407Y229350D01*
X14330Y229021D01*
X14261Y228690D01*
X14200Y228357D01*
X14147Y228023D01*
X14102Y227688D01*
X14065Y227351D01*
X14037Y227014D01*
X14016Y226676D01*
X14004Y226338D01*
X14000Y226000D01*
X14000Y28000D01*
X14004Y27662D01*
X14016Y27324D01*
X14037Y26986D01*
X14065Y26649D01*
X14102Y26312D01*
X14147Y25977D01*
X14200Y25643D01*
X14261Y25310D01*
X14330Y24979D01*
X14407Y24650D01*
X14492Y24322D01*
X14585Y23997D01*
X14685Y23674D01*
X14794Y23353D01*
X14910Y23036D01*
X15034Y22721D01*
X15165Y22409D01*
X15304Y22100D01*
X15450Y21795D01*
X15604Y21494D01*
X15764Y21196D01*
X15932Y20903D01*
X16107Y20613D01*
X16289Y20328D01*
X16478Y20047D01*
X16674Y19771D01*
X16876Y19500D01*
X17085Y19233D01*
X17300Y18972D01*
X17521Y18716D01*
X17748Y18466D01*
X17982Y18221D01*
X18221Y17982D01*
X18466Y17748D01*
X18716Y17521D01*
X18972Y17300D01*
X19233Y17085D01*
X19500Y16876D01*
X19771Y16674D01*
X20047Y16478D01*
X20328Y16289D01*
X20613Y16107D01*
X20903Y15932D01*
X21196Y15764D01*
X21494Y15604D01*
X21795Y15450D01*
X22100Y15304D01*
X22409Y15165D01*
X22721Y15034D01*
X23036Y14910D01*
X23353Y14794D01*
X23674Y14685D01*
X23997Y14585D01*
X24322Y14492D01*
X24650Y14407D01*
X24979Y14330D01*
X25310Y14261D01*
X25643Y14200D01*
X25977Y14147D01*
X26312Y14102D01*
X26649Y14065D01*
X26986Y14037D01*
X27324Y14016D01*
X27662Y14004D01*
X28000Y14000D01*
X30000Y14000D01*
X30338Y14004D01*
X30676Y14016D01*
X31014Y14037D01*
X31351Y14065D01*
X31688Y14102D01*
X32023Y14147D01*
X32357Y14200D01*
X32690Y14261D01*
X33021Y14330D01*
X33350Y14407D01*
X33678Y14492D01*
X34003Y14585D01*
X34326Y14685D01*
X34647Y14794D01*
X34964Y14910D01*
X35279Y15034D01*
X35591Y15165D01*
X35900Y15304D01*
X36205Y15450D01*
X36506Y15604D01*
X36804Y15764D01*
X37097Y15932D01*
X37387Y16107D01*
X37672Y16289D01*
X37953Y16478D01*
X38229Y16674D01*
X38500Y16876D01*
X38767Y17085D01*
X39028Y17300D01*
X39284Y17521D01*
X39534Y17748D01*
X39779Y17982D01*
X40018Y18221D01*
X40252Y18466D01*
X40479Y18716D01*
X40700Y18972D01*
X40915Y19233D01*
X41124Y19500D01*
X41326Y19771D01*
X41522Y20047D01*
X41711Y20328D01*
X41893Y20613D01*
X42068Y20903D01*
X42236Y21196D01*
X42396Y21494D01*
X42550Y21795D01*
X42696Y22100D01*
X42835Y22409D01*
X42966Y22721D01*
X43090Y23036D01*
X43206Y23353D01*
X43315Y23674D01*
X43415Y23997D01*
X43508Y24322D01*
X43593Y24650D01*
X43670Y24979D01*
X43739Y25310D01*
X43800Y25643D01*
X43853Y25977D01*
X43898Y26312D01*
X43935Y26649D01*
X43963Y26986D01*
X43984Y27324D01*
X43996Y27662D01*
X44000Y28000D01*
X44000Y159000D01*
X43998Y159140D01*
X43992Y159280D01*
X43982Y159420D01*
X43969Y159560D01*
X43951Y159699D01*
X43929Y159838D01*
X43904Y159975D01*
X43875Y160113D01*
X43842Y160249D01*
X43805Y160384D01*
X43764Y160518D01*
X43719Y160651D01*
X43671Y160783D01*
X43619Y160913D01*
X43564Y161042D01*
X43505Y161169D01*
X43442Y161295D01*
X43376Y161419D01*
X43307Y161540D01*
X43234Y161660D01*
X43157Y161778D01*
X43078Y161893D01*
X42995Y162007D01*
X42909Y162117D01*
X42820Y162226D01*
X42728Y162332D01*
X42633Y162435D01*
X42536Y162536D01*
X42435Y162633D01*
X42332Y162728D01*
X42226Y162820D01*
X42117Y162909D01*
X42007Y162995D01*
X41893Y163078D01*
X41778Y163157D01*
X41660Y163234D01*
X41540Y163307D01*
X41419Y163376D01*
X41295Y163442D01*
X41169Y163505D01*
X41042Y163564D01*
X40913Y163619D01*
X40783Y163671D01*
X40651Y163719D01*
X40518Y163764D01*
X40384Y163805D01*
X40249Y163842D01*
X40113Y163875D01*
X39975Y163904D01*
X39838Y163929D01*
X39699Y163951D01*
X39560Y163969D01*
X39420Y163982D01*
X39280Y163992D01*
X39140Y163998D01*
X39000Y164000D01*
X39000Y190000D02*
X40000Y190000D01*
X40152Y190002D01*
X40304Y190008D01*
X40456Y190017D01*
X40607Y190031D01*
X40758Y190048D01*
X40909Y190069D01*
X41059Y190094D01*
X41208Y190123D01*
X41356Y190155D01*
X41504Y190192D01*
X41651Y190231D01*
X41796Y190275D01*
X41941Y190323D01*
X42084Y190373D01*
X42226Y190428D01*
X42366Y190486D01*
X42505Y190548D01*
X42642Y190613D01*
X42778Y190682D01*
X42912Y190754D01*
X43044Y190829D01*
X43174Y190908D01*
X43302Y190990D01*
X43428Y191075D01*
X43551Y191164D01*
X43673Y191255D01*
X43792Y191350D01*
X43908Y191447D01*
X44022Y191548D01*
X44134Y191651D01*
X44243Y191757D01*
X44349Y191866D01*
X44452Y191978D01*
X44553Y192092D01*
X44650Y192208D01*
X44745Y192327D01*
X44836Y192449D01*
X44925Y192572D01*
X45010Y192698D01*
X45092Y192826D01*
X45171Y192956D01*
X45246Y193088D01*
X45318Y193222D01*
X45387Y193358D01*
X45452Y193495D01*
X45514Y193634D01*
X45572Y193774D01*
X45627Y193916D01*
X45677Y194059D01*
X45725Y194204D01*
X45769Y194349D01*
X45808Y194496D01*
X45845Y194644D01*
X45877Y194792D01*
X45906Y194941D01*
X45931Y195091D01*
X45952Y195242D01*
X45969Y195393D01*
X45983Y195544D01*
X45992Y195696D01*
X45998Y195848D01*
X46000Y196000D01*
X46000Y226000D01*
X45995Y226387D01*
X45981Y226773D01*
X45958Y227159D01*
X45925Y227544D01*
X45883Y227929D01*
X45832Y228312D01*
X45772Y228694D01*
X45702Y229074D01*
X45623Y229453D01*
X45535Y229829D01*
X45438Y230203D01*
X45332Y230575D01*
X45217Y230944D01*
X45093Y231311D01*
X44960Y231674D01*
X44819Y232034D01*
X44669Y232390D01*
X44510Y232742D01*
X44343Y233091D01*
X44167Y233436D01*
X43983Y233776D01*
X43792Y234111D01*
X43591Y234442D01*
X43384Y234768D01*
X43168Y235089D01*
X42944Y235405D01*
X42713Y235715D01*
X42475Y236019D01*
X42229Y236317D01*
X41976Y236610D01*
X41716Y236896D01*
X41450Y237176D01*
X41176Y237450D01*
X40896Y237716D01*
X40610Y237976D01*
X40317Y238229D01*
X40019Y238475D01*
X39715Y238713D01*
X39405Y238944D01*
X39089Y239168D01*
X38768Y239384D01*
X38442Y239591D01*
X38111Y239792D01*
X37776Y239983D01*
X37436Y240167D01*
X37091Y240343D01*
X36742Y240510D01*
X36390Y240669D01*
X36034Y240819D01*
X35674Y240960D01*
X35311Y241093D01*
X34944Y241217D01*
X34575Y241332D01*
X34203Y241438D01*
X33829Y241535D01*
X33453Y241623D01*
X33074Y241702D01*
X32694Y241772D01*
X32312Y241832D01*
X31929Y241883D01*
X31544Y241925D01*
X31159Y241958D01*
X30773Y241981D01*
X30387Y241995D01*
X30000Y242000D01*
X28000Y242000D01*
X27613Y241995D01*
X27227Y241981D01*
X26841Y241958D01*
X26456Y241925D01*
X26071Y241883D01*
X25688Y241832D01*
X25306Y241772D01*
X24926Y241702D01*
X24547Y241623D01*
X24171Y241535D01*
X23797Y241438D01*
X23425Y241332D01*
X23056Y241217D01*
X22689Y241093D01*
X22326Y240960D01*
X21966Y240819D01*
X21610Y240669D01*
X21258Y240510D01*
X20909Y240343D01*
X20564Y240167D01*
X20224Y239983D01*
X19889Y239792D01*
X19558Y239591D01*
X19232Y239384D01*
X18911Y239168D01*
X18595Y238944D01*
X18285Y238713D01*
X17981Y238475D01*
X17683Y238229D01*
X17390Y237976D01*
X17104Y237716D01*
X16824Y237450D01*
X16550Y237176D01*
X16284Y236896D01*
X16024Y236610D01*
X15771Y236317D01*
X15525Y236019D01*
X15287Y235715D01*
X15056Y235405D01*
X14832Y235089D01*
X14616Y234768D01*
X14409Y234442D01*
X14208Y234111D01*
X14017Y233776D01*
X13833Y233436D01*
X13657Y233091D01*
X13490Y232742D01*
X13331Y232390D01*
X13181Y232034D01*
X13040Y231674D01*
X12907Y231311D01*
X12783Y230944D01*
X12668Y230575D01*
X12562Y230203D01*
X12465Y229829D01*
X12377Y229453D01*
X12298Y229074D01*
X12228Y228694D01*
X12168Y228312D01*
X12117Y227929D01*
X12075Y227544D01*
X12042Y227159D01*
X12019Y226773D01*
X12005Y226387D01*
X12000Y226000D01*
X12000Y28000D01*
X12005Y27613D01*
X12019Y27227D01*
X12042Y26841D01*
X12075Y26456D01*
X12117Y26071D01*
X12168Y25688D01*
X12228Y25306D01*
X12298Y24926D01*
X12377Y24547D01*
X12465Y24171D01*
X12562Y23797D01*
X12668Y23425D01*
X12783Y23056D01*
X12907Y22689D01*
X13040Y22326D01*
X13181Y21966D01*
X13331Y21610D01*
X13490Y21258D01*
X13657Y20909D01*
X13833Y20564D01*
X14017Y20224D01*
X14208Y19889D01*
X14409Y19558D01*
X14616Y19232D01*
X14832Y18911D01*
X15056Y18595D01*
X15287Y18285D01*
X15525Y17981D01*
X15771Y17683D01*
X16024Y17390D01*
X16284Y17104D01*
X16550Y16824D01*
X16824Y16550D01*
X17104Y16284D01*
X17390Y16024D01*
X17683Y15771D01*
X17981Y15525D01*
X18285Y15287D01*
X18595Y15056D01*
X18911Y14832D01*
X19232Y14616D01*
X19558Y14409D01*
X19889Y14208D01*
X20224Y14017D01*
X20564Y13833D01*
X20909Y13657D01*
X21258Y13490D01*
X21610Y13331D01*
X21966Y13181D01*
X22326Y13040D01*
X22689Y12907D01*
X23056Y12783D01*
X23425Y12668D01*
X23797Y12562D01*
X24171Y12465D01*
X24547Y12377D01*
X24926Y12298D01*
X25306Y12228D01*
X25688Y12168D01*
X26071Y12117D01*
X26456Y12075D01*
X26841Y12042D01*
X27227Y12019D01*
X27613Y12005D01*
X28000Y12000D01*
X30000Y12000D01*
X30387Y12005D01*
X30773Y12019D01*
X31159Y12042D01*
X31544Y12075D01*
X31929Y12117D01*
X32312Y12168D01*
X32694Y12228D01*
X33074Y12298D01*
X33453Y12377D01*
X33829Y12465D01*
X34203Y12562D01*
X34575Y12668D01*
X34944Y12783D01*
X35311Y12907D01*
X35674Y13040D01*
X36034Y13181D01*
X36390Y13331D01*
X36742Y13490D01*
X37091Y13657D01*
X37436Y13833D01*
X37776Y14017D01*
X38111Y14208D01*
X38442Y14409D01*
X38768Y14616D01*
X39089Y14832D01*
X39405Y15056D01*
X39715Y15287D01*
X40019Y15525D01*
X40317Y15771D01*
X40610Y16024D01*
X40896Y16284D01*
X41176Y16550D01*
X41450Y16824D01*
X41716Y17104D01*
X41976Y17390D01*
X42229Y17683D01*
X42475Y17981D01*
X42713Y18285D01*
X42944Y18595D01*
X43168Y18911D01*
X43384Y19232D01*
X43591Y19558D01*
X43792Y19889D01*
X43983Y20224D01*
X44167Y20564D01*
X44343Y20909D01*
X44510Y21258D01*
X44669Y21610D01*
X44819Y21966D01*
X44960Y22326D01*
X45093Y22689D01*
X45217Y23056D01*
X45332Y23425D01*
X45438Y23797D01*
X45535Y24171D01*
X45623Y24547D01*
X45702Y24926D01*
X45772Y25306D01*
X45832Y25688D01*
X45883Y26071D01*
X45925Y26456D01*
X45958Y26841D01*
X45981Y27227D01*
X45995Y27613D01*
X46000Y28000D01*
X46000Y161000D01*
X45998Y161140D01*
X45992Y161280D01*
X45982Y161420D01*
X45969Y161560D01*
X45951Y161699D01*
X45929Y161838D01*
X45904Y161975D01*
X45875Y162113D01*
X45842Y162249D01*
X45805Y162384D01*
X45764Y162518D01*
X45719Y162651D01*
X45671Y162783D01*
X45619Y162913D01*
X45564Y163042D01*
X45505Y163169D01*
X45442Y163295D01*
X45376Y163419D01*
X45307Y163540D01*
X45234Y163660D01*
X45157Y163778D01*
X45078Y163893D01*
X44995Y164007D01*
X44909Y164117D01*
X44820Y164226D01*
X44728Y164332D01*
X44633Y164435D01*
X44536Y164536D01*
X44435Y164633D01*
X44332Y164728D01*
X44226Y164820D01*
X44117Y164909D01*
X44007Y164995D01*
X43893Y165078D01*
X43778Y165157D01*
X43660Y165234D01*
X43540Y165307D01*
X43419Y165376D01*
X43295Y165442D01*
X43169Y165505D01*
X43042Y165564D01*
X42913Y165619D01*
X42783Y165671D01*
X42651Y165719D01*
X42518Y165764D01*
X42384Y165805D01*
X42249Y165842D01*
X42113Y165875D01*
X41975Y165904D01*
X41838Y165929D01*
X41699Y165951D01*
X41560Y165969D01*
X41420Y165982D01*
X41280Y165992D01*
X41140Y165998D01*
X41000Y166000D01*
X41000Y188000D02*
X42000Y188000D01*
X42152Y188002D01*
X42304Y188008D01*
X42456Y188017D01*
X42607Y188031D01*
X42758Y188048D01*
X42909Y188069D01*
X43059Y188094D01*
X43208Y188123D01*
X43356Y188155D01*
X43504Y188192D01*
X43651Y188231D01*
X43796Y188275D01*
X43941Y188323D01*
X44084Y188373D01*
X44226Y188428D01*
X44366Y188486D01*
X44505Y188548D01*
X44642Y188613D01*
X44778Y188682D01*
X44912Y188754D01*
X45044Y188829D01*
X45174Y188908D01*
X45302Y188990D01*
X45428Y189075D01*
X45551Y189164D01*
X45673Y189255D01*
X45792Y189350D01*
X45908Y189447D01*
X46022Y189548D01*
X46134Y189651D01*
X46243Y189757D01*
X46349Y189866D01*
X46452Y189978D01*
X46553Y190092D01*
X46650Y190208D01*
X46745Y190327D01*
X46836Y190449D01*
X46925Y190572D01*
X47010Y190698D01*
X47092Y190826D01*
X47171Y190956D01*
X47246Y191088D01*
X47318Y191222D01*
X47387Y191358D01*
X47452Y191495D01*
X47514Y191634D01*
X47572Y191774D01*
X47627Y191916D01*
X47677Y192059D01*
X47725Y192204D01*
X47769Y192349D01*
X47808Y192496D01*
X47845Y192644D01*
X47877Y192792D01*
X47906Y192941D01*
X47931Y193091D01*
X47952Y193242D01*
X47969Y193393D01*
X47983Y193544D01*
X47992Y193696D01*
X47998Y193848D01*
X48000Y194000D01*
X48000Y226000D01*
X47995Y226435D01*
X47979Y226870D01*
X47953Y227304D01*
X47916Y227737D01*
X47869Y228170D01*
X47811Y228601D01*
X47743Y229030D01*
X47665Y229458D01*
X47576Y229884D01*
X47477Y230308D01*
X47368Y230729D01*
X47248Y231147D01*
X47119Y231562D01*
X46980Y231974D01*
X46830Y232383D01*
X46671Y232788D01*
X46502Y233189D01*
X46324Y233585D01*
X46136Y233977D01*
X45938Y234365D01*
X45731Y234748D01*
X45515Y235125D01*
X45290Y235498D01*
X45056Y235864D01*
X44814Y236225D01*
X44562Y236580D01*
X44302Y236929D01*
X44034Y237271D01*
X43758Y237607D01*
X43473Y237936D01*
X43181Y238258D01*
X42881Y238573D01*
X42573Y238881D01*
X42258Y239181D01*
X41936Y239473D01*
X41607Y239758D01*
X41271Y240034D01*
X40929Y240302D01*
X40580Y240562D01*
X40225Y240814D01*
X39864Y241056D01*
X39498Y241290D01*
X39125Y241515D01*
X38748Y241731D01*
X38365Y241938D01*
X37977Y242136D01*
X37585Y242324D01*
X37189Y242502D01*
X36788Y242671D01*
X36383Y242830D01*
X35974Y242980D01*
X35562Y243119D01*
X35147Y243248D01*
X34729Y243368D01*
X34308Y243477D01*
X33884Y243576D01*
X33458Y243665D01*
X33030Y243743D01*
X32601Y243811D01*
X32170Y243869D01*
X31737Y243916D01*
X31304Y243953D01*
X30870Y243979D01*
X30435Y243995D01*
X30000Y244000D01*
X28000Y244000D01*
X27565Y243995D01*
X27130Y243979D01*
X26696Y243953D01*
X26263Y243916D01*
X25830Y243869D01*
X25399Y243811D01*
X24970Y243743D01*
X24542Y243665D01*
X24116Y243576D01*
X23692Y243477D01*
X23271Y243368D01*
X22853Y243248D01*
X22438Y243119D01*
X22026Y242980D01*
X21617Y242830D01*
X21212Y242671D01*
X20811Y242502D01*
X20415Y242324D01*
X20023Y242136D01*
X19635Y241938D01*
X19252Y241731D01*
X18875Y241515D01*
X18502Y241290D01*
X18136Y241056D01*
X17775Y240814D01*
X17420Y240562D01*
X17071Y240302D01*
X16729Y240034D01*
X16393Y239758D01*
X16064Y239473D01*
X15742Y239181D01*
X15427Y238881D01*
X15119Y238573D01*
X14819Y238258D01*
X14527Y237936D01*
X14242Y237607D01*
X13966Y237271D01*
X13698Y236929D01*
X13438Y236580D01*
X13186Y236225D01*
X12944Y235864D01*
X12710Y235498D01*
X12485Y235125D01*
X12269Y234748D01*
X12062Y234365D01*
X11864Y233977D01*
X11676Y233585D01*
X11498Y233189D01*
X11329Y232788D01*
X11170Y232383D01*
X11020Y231974D01*
X10881Y231562D01*
X10752Y231147D01*
X10632Y230729D01*
X10523Y230308D01*
X10424Y229884D01*
X10335Y229458D01*
X10257Y229030D01*
X10189Y228601D01*
X10131Y228170D01*
X10084Y227737D01*
X10047Y227304D01*
X10021Y226870D01*
X10005Y226435D01*
X10000Y226000D01*
X10000Y28000D01*
X10005Y27565D01*
X10021Y27130D01*
X10047Y26696D01*
X10084Y26263D01*
X10131Y25830D01*
X10189Y25399D01*
X10257Y24970D01*
X10335Y24542D01*
X10424Y24116D01*
X10523Y23692D01*
X10632Y23271D01*
X10752Y22853D01*
X10881Y22438D01*
X11020Y22026D01*
X11170Y21617D01*
X11329Y21212D01*
X11498Y20811D01*
X11676Y20415D01*
X11864Y20023D01*
X12062Y19635D01*
X12269Y19252D01*
X12485Y18875D01*
X12710Y18502D01*
X12944Y18136D01*
X13186Y17775D01*
X13438Y17420D01*
X13698Y17071D01*
X13966Y16729D01*
X14242Y16393D01*
X14527Y16064D01*
X14819Y15742D01*
X15119Y15427D01*
X15427Y15119D01*
X15742Y14819D01*
X16064Y14527D01*
X16393Y14242D01*
X16729Y13966D01*
X17071Y13698D01*
X17420Y13438D01*
X17775Y13186D01*
X18136Y12944D01*
X18502Y12710D01*
X18875Y12485D01*
X19252Y12269D01*
X19635Y12062D01*
X20023Y11864D01*
X20415Y11676D01*
X20811Y11498D01*
X21212Y11329D01*
X21617Y11170D01*
X22026Y11020D01*
X22438Y10881D01*
X22853Y10752D01*
X23271Y10632D01*
X23692Y10523D01*
X24116Y10424D01*
X24542Y10335D01*
X24970Y10257D01*
X25399Y10189D01*
X25830Y10131D01*
X26263Y10084D01*
X26696Y10047D01*
X27130Y10021D01*
X27565Y10005D01*
X28000Y10000D01*
X30000Y10000D01*
X30435Y10005D01*
X30870Y10021D01*
X31304Y10047D01*
X31737Y10084D01*
X32170Y10131D01*
X32601Y10189D01*
X33030Y10257D01*
X33458Y10335D01*
X33884Y10424D01*
X34308Y10523D01*
X34729Y10632D01*
X35147Y10752D01*
X35562Y10881D01*
X35974Y11020D01*
X36383Y11170D01*
X36788Y11329D01*
X37189Y11498D01*
X37585Y11676D01*
X37977Y11864D01*
X38365Y12062D01*
X38748Y12269D01*
X39125Y12485D01*
X39498Y12710D01*
X39864Y12944D01*
X40225Y13186D01*
X40580Y13438D01*
X40929Y13698D01*
X41271Y13966D01*
X41607Y14242D01*
X41936Y14527D01*
X42258Y14819D01*
X42573Y15119D01*
X42881Y15427D01*
X43181Y15742D01*
X43473Y16064D01*
X43758Y16393D01*
X44034Y16729D01*
X44302Y17071D01*
X44562Y17420D01*
X44814Y17775D01*
X45056Y18136D01*
X45290Y18502D01*
X45515Y18875D01*
X45731Y19252D01*
X45938Y19635D01*
X46136Y20023D01*
X46324Y20415D01*
X46502Y20811D01*
X46671Y21212D01*
X46830Y21617D01*
X46980Y22026D01*
X47119Y22438D01*
X47248Y22853D01*
X47368Y23271D01*
X47477Y23692D01*
X47576Y24116D01*
X47665Y24542D01*
X47743Y24970D01*
X47811Y25399D01*
X47869Y25830D01*
X47916Y26263D01*
X47953Y26696D01*
X47979Y27130D01*
X47995Y27565D01*
X48000Y28000D01*
X48000Y163000D01*
X47998Y163140D01*
X47992Y163280D01*
X47982Y163420D01*
X47969Y163560D01*
X47951Y163699D01*
X47929Y163838D01*
X47904Y163975D01*
X47875Y164113D01*
X47842Y164249D01*
X47805Y164384D01*
X47764Y164518D01*
X47719Y164651D01*
X47671Y164783D01*
X47619Y164913D01*
X47564Y165042D01*
X47505Y165169D01*
X47442Y165295D01*
X47376Y165419D01*
X47307Y165540D01*
X47234Y165660D01*
X47157Y165778D01*
X47078Y165893D01*
X46995Y166007D01*
X46909Y166117D01*
X46820Y166226D01*
X46728Y166332D01*
X46633Y166435D01*
X46536Y166536D01*
X46435Y166633D01*
X46332Y166728D01*
X46226Y166820D01*
X46117Y166909D01*
X46007Y166995D01*
X45893Y167078D01*
X45778Y167157D01*
X45660Y167234D01*
X45540Y167307D01*
X45419Y167376D01*
X45295Y167442D01*
X45169Y167505D01*
X45042Y167564D01*
X44913Y167619D01*
X44783Y167671D01*
X44651Y167719D01*
X44518Y167764D01*
X44384Y167805D01*
X44249Y167842D01*
X44113Y167875D01*
X43975Y167904D01*
X43838Y167929D01*
X43699Y167951D01*
X43560Y167969D01*
X43420Y167982D01*
X43280Y167992D01*
X43140Y167998D01*
X43000Y168000D01*
X43000Y186000D02*
X44000Y186000D01*
X44152Y186002D01*
X44304Y186008D01*
X44456Y186017D01*
X44607Y186031D01*
X44758Y186048D01*
X44909Y186069D01*
X45059Y186094D01*
X45208Y186123D01*
X45356Y186155D01*
X45504Y186192D01*
X45651Y186231D01*
X45796Y186275D01*
X45941Y186323D01*
X46084Y186373D01*
X46226Y186428D01*
X46366Y186486D01*
X46505Y186548D01*
X46642Y186613D01*
X46778Y186682D01*
X46912Y186754D01*
X47044Y186829D01*
X47174Y186908D01*
X47302Y186990D01*
X47428Y187075D01*
X47551Y187164D01*
X47673Y187255D01*
X47792Y187350D01*
X47908Y187447D01*
X48022Y187548D01*
X48134Y187651D01*
X48243Y187757D01*
X48349Y187866D01*
X48452Y187978D01*
X48553Y188092D01*
X48650Y188208D01*
X48745Y188327D01*
X48836Y188449D01*
X48925Y188572D01*
X49010Y188698D01*
X49092Y188826D01*
X49171Y188956D01*
X49246Y189088D01*
X49318Y189222D01*
X49387Y189358D01*
X49452Y189495D01*
X49514Y189634D01*
X49572Y189774D01*
X49627Y189916D01*
X49677Y190059D01*
X49725Y190204D01*
X49769Y190349D01*
X49808Y190496D01*
X49845Y190644D01*
X49877Y190792D01*
X49906Y190941D01*
X49931Y191091D01*
X49952Y191242D01*
X49969Y191393D01*
X49983Y191544D01*
X49992Y191696D01*
X49998Y191848D01*
X50000Y192000D01*
X50000Y226000D01*
X49994Y226483D01*
X49977Y226966D01*
X49947Y227449D01*
X49907Y227930D01*
X49854Y228411D01*
X49790Y228890D01*
X49715Y229367D01*
X49627Y229843D01*
X49529Y230316D01*
X49419Y230786D01*
X49298Y231254D01*
X49165Y231719D01*
X49021Y232180D01*
X48866Y232638D01*
X48700Y233092D01*
X48523Y233542D01*
X48336Y233987D01*
X48137Y234428D01*
X47929Y234864D01*
X47709Y235294D01*
X47479Y235720D01*
X47239Y236139D01*
X46989Y236553D01*
X46729Y236960D01*
X46460Y237361D01*
X46180Y237756D01*
X45892Y238143D01*
X45593Y238524D01*
X45286Y238897D01*
X44970Y239262D01*
X44645Y239620D01*
X44312Y239970D01*
X43970Y240312D01*
X43620Y240645D01*
X43262Y240970D01*
X42897Y241286D01*
X42524Y241593D01*
X42143Y241892D01*
X41756Y242180D01*
X41361Y242460D01*
X40960Y242729D01*
X40553Y242989D01*
X40139Y243239D01*
X39720Y243479D01*
X39294Y243709D01*
X38864Y243929D01*
X38428Y244137D01*
X37987Y244336D01*
X37542Y244523D01*
X37092Y244700D01*
X36638Y244866D01*
X36180Y245021D01*
X35719Y245165D01*
X35254Y245298D01*
X34786Y245419D01*
X34316Y245529D01*
X33843Y245627D01*
X33367Y245715D01*
X32890Y245790D01*
X32411Y245854D01*
X31930Y245907D01*
X31449Y245947D01*
X30966Y245977D01*
X30483Y245994D01*
X30000Y246000D01*
X28000Y246000D01*
X27517Y245994D01*
X27034Y245977D01*
X26551Y245947D01*
X26070Y245907D01*
X25589Y245854D01*
X25110Y245790D01*
X24633Y245715D01*
X24157Y245627D01*
X23684Y245529D01*
X23214Y245419D01*
X22746Y245298D01*
X22281Y245165D01*
X21820Y245021D01*
X21362Y244866D01*
X20908Y244700D01*
X20458Y244523D01*
X20013Y244336D01*
X19572Y244137D01*
X19136Y243929D01*
X18706Y243709D01*
X18280Y243479D01*
X17861Y243239D01*
X17447Y242989D01*
X17040Y242729D01*
X16639Y242460D01*
X16244Y242180D01*
X15857Y241892D01*
X15476Y241593D01*
X15103Y241286D01*
X14738Y240970D01*
X14380Y240645D01*
X14030Y240312D01*
X13688Y239970D01*
X13355Y239620D01*
X13030Y239262D01*
X12714Y238897D01*
X12407Y238524D01*
X12108Y238143D01*
X11820Y237756D01*
X11540Y237361D01*
X11271Y236960D01*
X11011Y236553D01*
X10761Y236139D01*
X10521Y235720D01*
X10291Y235294D01*
X10071Y234864D01*
X9863Y234428D01*
X9664Y233987D01*
X9477Y233542D01*
X9300Y233092D01*
X9134Y232638D01*
X8979Y232180D01*
X8835Y231719D01*
X8702Y231254D01*
X8581Y230786D01*
X8471Y230316D01*
X8373Y229843D01*
X8285Y229367D01*
X8210Y228890D01*
X8146Y228411D01*
X8093Y227930D01*
X8053Y227449D01*
X8023Y226966D01*
X8006Y226483D01*
X8000Y226000D01*
X8000Y28000D01*
X8006Y27517D01*
X8023Y27034D01*
X8053Y26551D01*
X8093Y26070D01*
X8146Y25589D01*
X8210Y25110D01*
X8285Y24633D01*
X8373Y24157D01*
X8471Y23684D01*
X8581Y23214D01*
X8702Y22746D01*
X8835Y22281D01*
X8979Y21820D01*
X9134Y21362D01*
X9300Y20908D01*
X9477Y20458D01*
X9664Y20013D01*
X9863Y19572D01*
X10071Y19136D01*
X10291Y18706D01*
X10521Y18280D01*
X10761Y17861D01*
X11011Y17447D01*
X11271Y17040D01*
X11540Y16639D01*
X11820Y16244D01*
X12108Y15857D01*
X12407Y15476D01*
X12714Y15103D01*
X13030Y14738D01*
X13355Y14380D01*
X13688Y14030D01*
X14030Y13688D01*
X14380Y13355D01*
X14738Y13030D01*
X15103Y12714D01*
X15476Y12407D01*
X15857Y12108D01*
X16244Y11820D01*
X16639Y11540D01*
X17040Y11271D01*
X17447Y11011D01*
X17861Y10761D01*
X18280Y10521D01*
X18706Y10291D01*
X19136Y10071D01*
X19572Y9863D01*
X20013Y9664D01*
X20458Y9477D01*
X20908Y9300D01*
X21362Y9134D01*
X21820Y8979D01*
X22281Y8835D01*
X22746Y8702D01*
X23214Y8581D01*
X23684Y8471D01*
X24157Y8373D01*
X24633Y8285D01*
X25110Y8210D01*
X25589Y8146D01*
X26070Y8093D01*
X26551Y8053D01*
X27034Y8023D01*
X27517Y8006D01*
X28000Y8000D01*
X30000Y8000D01*
X30483Y8006D01*
X30966Y8023D01*
X31449Y8053D01*
X31930Y8093D01*
X32411Y8146D01*
X32890Y8210D01*
X33367Y8285D01*
X33843Y8373D01*
X34316Y8471D01*
X34786Y8581D01*
X35254Y8702D01*
X35719Y8835D01*
X36180Y8979D01*
X36638Y9134D01*
X37092Y9300D01*
X37542Y9477D01*
X37987Y9664D01*
X38428Y9863D01*
X38864Y10071D01*
X39294Y10291D01*
X39720Y10521D01*
X40139Y10761D01*
X40553Y11011D01*
X40960Y11271D01*
X41361Y11540D01*
X41756Y11820D01*
X42143Y12108D01*
X42524Y12407D01*
X42897Y12714D01*
X43262Y13030D01*
X43620Y13355D01*
X43970Y13688D01*
X44312Y14030D01*
X44645Y14380D01*
X44970Y14738D01*
X45286Y15103D01*
X45593Y15476D01*
X45892Y15857D01*
X46180Y16244D01*
X46460Y16639D01*
X46729Y17040D01*
X46989Y17447D01*
X47239Y17861D01*
X47479Y18280D01*
X47709Y18706D01*
X47929Y19136D01*
X48137Y19572D01*
X48336Y20013D01*
X48523Y20458D01*
X48700Y20908D01*
X48866Y21362D01*
X49021Y21820D01*
X49165Y22281D01*
X49298Y22746D01*
X49419Y23214D01*
X49529Y23684D01*
X49627Y24157D01*
X49715Y24633D01*
X49790Y25110D01*
X49854Y25589D01*
X49907Y26070D01*
X49947Y26551D01*
X49977Y27034D01*
X49994Y27517D01*
X50000Y28000D01*
X50000Y165000D02*
X49998Y165140D01*
X49992Y165280D01*
X49982Y165420D01*
X49969Y165560D01*
X49951Y165699D01*
X49929Y165838D01*
X49904Y165975D01*
X49875Y166113D01*
X49842Y166249D01*
X49805Y166384D01*
X49764Y166518D01*
X49719Y166651D01*
X49671Y166783D01*
X49619Y166913D01*
X49564Y167042D01*
X49505Y167169D01*
X49442Y167295D01*
X49376Y167419D01*
X49307Y167540D01*
X49234Y167660D01*
X49157Y167778D01*
X49078Y167893D01*
X48995Y168007D01*
X48909Y168117D01*
X48820Y168226D01*
X48728Y168332D01*
X48633Y168435D01*
X48536Y168536D01*
X48435Y168633D01*
X48332Y168728D01*
X48226Y168820D01*
X48117Y168909D01*
X48007Y168995D01*
X47893Y169078D01*
X47778Y169157D01*
X47660Y169234D01*
X47540Y169307D01*
X47419Y169376D01*
X47295Y169442D01*
X47169Y169505D01*
X47042Y169564D01*
X46913Y169619D01*
X46783Y169671D01*
X46651Y169719D01*
X46518Y169764D01*
X46384Y169805D01*
X46249Y169842D01*
X46113Y169875D01*
X45975Y169904D01*
X45838Y169929D01*
X45699Y169951D01*
X45560Y169969D01*
X45420Y169982D01*
X45280Y169992D01*
X45140Y169998D01*
X45000Y170000D01*
X50000Y165000D02*
X50000Y28000D01*
X52000Y190000D02*
X52000Y226000D01*
X52000Y190000D02*
X51998Y189848D01*
X51992Y189696D01*
X51983Y189544D01*
X51969Y189393D01*
X51952Y189242D01*
X51931Y189091D01*
X51906Y188941D01*
X51877Y188792D01*
X51845Y188644D01*
X51808Y188496D01*
X51769Y188349D01*
X51725Y188204D01*
X51677Y188059D01*
X51627Y187916D01*
X51572Y187774D01*
X51514Y187634D01*
X51452Y187495D01*
X51387Y187358D01*
X51318Y187222D01*
X51246Y187088D01*
X51171Y186956D01*
X51092Y186826D01*
X51010Y186698D01*
X50925Y186572D01*
X50836Y186449D01*
X50745Y186327D01*
X50650Y186208D01*
X50553Y186092D01*
X50452Y185978D01*
X50349Y185866D01*
X50243Y185757D01*
X50134Y185651D01*
X50022Y185548D01*
X49908Y185447D01*
X49792Y185350D01*
X49673Y185255D01*
X49551Y185164D01*
X49428Y185075D01*
X49302Y184990D01*
X49174Y184908D01*
X49044Y184829D01*
X48912Y184754D01*
X48778Y184682D01*
X48642Y184613D01*
X48505Y184548D01*
X48366Y184486D01*
X48226Y184428D01*
X48084Y184373D01*
X47941Y184323D01*
X47796Y184275D01*
X47651Y184231D01*
X47504Y184192D01*
X47356Y184155D01*
X47208Y184123D01*
X47059Y184094D01*
X46909Y184069D01*
X46758Y184048D01*
X46607Y184031D01*
X46456Y184017D01*
X46304Y184008D01*
X46152Y184002D01*
X46000Y184000D01*
X45000Y184000D01*
X52000Y226000D02*
X51994Y226532D01*
X51974Y227063D01*
X51942Y227594D01*
X51897Y228123D01*
X51840Y228652D01*
X51769Y229179D01*
X51686Y229704D01*
X51590Y230227D01*
X51482Y230747D01*
X51361Y231265D01*
X51227Y231780D01*
X51081Y232291D01*
X50923Y232798D01*
X50753Y233302D01*
X50570Y233801D01*
X50376Y234296D01*
X50169Y234786D01*
X49951Y235271D01*
X49721Y235750D01*
X49480Y236224D01*
X49227Y236692D01*
X48963Y237153D01*
X48688Y237608D01*
X48402Y238056D01*
X48106Y238497D01*
X47798Y238931D01*
X47481Y239358D01*
X47153Y239776D01*
X46815Y240187D01*
X46467Y240589D01*
X46110Y240982D01*
X45743Y241367D01*
X45367Y241743D01*
X44982Y242110D01*
X44589Y242467D01*
X44187Y242815D01*
X43776Y243153D01*
X43358Y243481D01*
X42931Y243798D01*
X42497Y244106D01*
X42056Y244402D01*
X41608Y244688D01*
X41153Y244963D01*
X40692Y245227D01*
X40224Y245480D01*
X39750Y245721D01*
X39271Y245951D01*
X38786Y246169D01*
X38296Y246376D01*
X37801Y246570D01*
X37302Y246753D01*
X36798Y246923D01*
X36291Y247081D01*
X35780Y247227D01*
X35265Y247361D01*
X34747Y247482D01*
X34227Y247590D01*
X33704Y247686D01*
X33179Y247769D01*
X32652Y247840D01*
X32123Y247897D01*
X31594Y247942D01*
X31063Y247974D01*
X30532Y247994D01*
X30000Y248000D01*
X28000Y248000D01*
X27468Y247994D01*
X26937Y247974D01*
X26406Y247942D01*
X25877Y247897D01*
X25348Y247840D01*
X24821Y247769D01*
X24296Y247686D01*
X23773Y247590D01*
X23253Y247482D01*
X22735Y247361D01*
X22220Y247227D01*
X21709Y247081D01*
X21202Y246923D01*
X20698Y246753D01*
X20199Y246570D01*
X19704Y246376D01*
X19214Y246169D01*
X18729Y245951D01*
X18250Y245721D01*
X17776Y245480D01*
X17308Y245227D01*
X16847Y244963D01*
X16392Y244688D01*
X15944Y244402D01*
X15503Y244106D01*
X15069Y243798D01*
X14642Y243481D01*
X14224Y243153D01*
X13813Y242815D01*
X13411Y242467D01*
X13018Y242110D01*
X12633Y241743D01*
X12257Y241367D01*
X11890Y240982D01*
X11533Y240589D01*
X11185Y240187D01*
X10847Y239776D01*
X10519Y239358D01*
X10202Y238931D01*
X9894Y238497D01*
X9598Y238056D01*
X9312Y237608D01*
X9037Y237153D01*
X8773Y236692D01*
X8520Y236224D01*
X8279Y235750D01*
X8049Y235271D01*
X7831Y234786D01*
X7624Y234296D01*
X7430Y233801D01*
X7247Y233302D01*
X7077Y232798D01*
X6919Y232291D01*
X6773Y231780D01*
X6639Y231265D01*
X6518Y230747D01*
X6410Y230227D01*
X6314Y229704D01*
X6231Y229179D01*
X6160Y228652D01*
X6103Y228123D01*
X6058Y227594D01*
X6026Y227063D01*
X6006Y226532D01*
X6000Y226000D01*
X6000Y28000D01*
X6006Y27468D01*
X6026Y26937D01*
X6058Y26406D01*
X6103Y25877D01*
X6160Y25348D01*
X6231Y24821D01*
X6314Y24296D01*
X6410Y23773D01*
X6518Y23253D01*
X6639Y22735D01*
X6773Y22220D01*
X6919Y21709D01*
X7077Y21202D01*
X7247Y20698D01*
X7430Y20199D01*
X7624Y19704D01*
X7831Y19214D01*
X8049Y18729D01*
X8279Y18250D01*
X8520Y17776D01*
X8773Y17308D01*
X9037Y16847D01*
X9312Y16392D01*
X9598Y15944D01*
X9894Y15503D01*
X10202Y15069D01*
X10519Y14642D01*
X10847Y14224D01*
X11185Y13813D01*
X11533Y13411D01*
X11890Y13018D01*
X12257Y12633D01*
X12633Y12257D01*
X13018Y11890D01*
X13411Y11533D01*
X13813Y11185D01*
X14224Y10847D01*
X14642Y10519D01*
X15069Y10202D01*
X15503Y9894D01*
X15944Y9598D01*
X16392Y9312D01*
X16847Y9037D01*
X17308Y8773D01*
X17776Y8520D01*
X18250Y8279D01*
X18729Y8049D01*
X19214Y7831D01*
X19704Y7624D01*
X20199Y7430D01*
X20698Y7247D01*
X21202Y7077D01*
X21709Y6919D01*
X22220Y6773D01*
X22735Y6639D01*
X23253Y6518D01*
X23773Y6410D01*
X24296Y6314D01*
X24821Y6231D01*
X25348Y6160D01*
X25877Y6103D01*
X26406Y6058D01*
X26937Y6026D01*
X27468Y6006D01*
X28000Y6000D01*
X30000Y6000D01*
X30532Y6006D01*
X31063Y6026D01*
X31594Y6058D01*
X32123Y6103D01*
X32652Y6160D01*
X33179Y6231D01*
X33704Y6314D01*
X34227Y6410D01*
X34747Y6518D01*
X35265Y6639D01*
X35780Y6773D01*
X36291Y6919D01*
X36798Y7077D01*
X37302Y7247D01*
X37801Y7430D01*
X38296Y7624D01*
X38786Y7831D01*
X39271Y8049D01*
X39750Y8279D01*
X40224Y8520D01*
X40692Y8773D01*
X41153Y9037D01*
X41608Y9312D01*
X42056Y9598D01*
X42497Y9894D01*
X42931Y10202D01*
X43358Y10519D01*
X43776Y10847D01*
X44187Y11185D01*
X44589Y11533D01*
X44982Y11890D01*
X45367Y12257D01*
X45743Y12633D01*
X46110Y13018D01*
X46467Y13411D01*
X46815Y13813D01*
X47153Y14224D01*
X47481Y14642D01*
X47798Y15069D01*
X48106Y15503D01*
X48402Y15944D01*
X48688Y16392D01*
X48963Y16847D01*
X49227Y17308D01*
X49480Y17776D01*
X49721Y18250D01*
X49951Y18729D01*
X50169Y19214D01*
X50376Y19704D01*
X50570Y20199D01*
X50753Y20698D01*
X50923Y21202D01*
X51081Y21709D01*
X51227Y22220D01*
X51361Y22735D01*
X51482Y23253D01*
X51590Y23773D01*
X51686Y24296D01*
X51769Y24821D01*
X51840Y25348D01*
X51897Y25877D01*
X51942Y26406D01*
X51974Y26937D01*
X51994Y27468D01*
X52000Y28000D01*
X52000Y166000D01*
X51998Y166152D01*
X51992Y166304D01*
X51983Y166456D01*
X51969Y166607D01*
X51952Y166758D01*
X51931Y166909D01*
X51906Y167059D01*
X51877Y167208D01*
X51845Y167356D01*
X51808Y167504D01*
X51769Y167651D01*
X51725Y167796D01*
X51677Y167941D01*
X51627Y168084D01*
X51572Y168226D01*
X51514Y168366D01*
X51452Y168505D01*
X51387Y168642D01*
X51318Y168778D01*
X51246Y168912D01*
X51171Y169044D01*
X51092Y169174D01*
X51010Y169302D01*
X50925Y169428D01*
X50836Y169551D01*
X50745Y169673D01*
X50650Y169792D01*
X50553Y169908D01*
X50452Y170022D01*
X50349Y170134D01*
X50243Y170243D01*
X50134Y170349D01*
X50022Y170452D01*
X49908Y170553D01*
X49792Y170650D01*
X49673Y170745D01*
X49551Y170836D01*
X49428Y170925D01*
X49302Y171010D01*
X49174Y171092D01*
X49044Y171171D01*
X48912Y171246D01*
X48778Y171318D01*
X48642Y171387D01*
X48505Y171452D01*
X48366Y171514D01*
X48226Y171572D01*
X48084Y171627D01*
X47941Y171677D01*
X47796Y171725D01*
X47651Y171769D01*
X47504Y171808D01*
X47356Y171845D01*
X47208Y171877D01*
X47059Y171906D01*
X46909Y171931D01*
X46758Y171952D01*
X46607Y171969D01*
X46456Y171983D01*
X46304Y171992D01*
X46152Y171998D01*
X46000Y172000D01*
X45000Y172000D01*
X45000Y182000D02*
X48000Y182000D01*
X48152Y182002D01*
X48304Y182008D01*
X48456Y182017D01*
X48607Y182031D01*
X48758Y182048D01*
X48909Y182069D01*
X49059Y182094D01*
X49208Y182123D01*
X49356Y182155D01*
X49504Y182192D01*
X49651Y182231D01*
X49796Y182275D01*
X49941Y182323D01*
X50084Y182373D01*
X50226Y182428D01*
X50366Y182486D01*
X50505Y182548D01*
X50642Y182613D01*
X50778Y182682D01*
X50912Y182754D01*
X51044Y182829D01*
X51174Y182908D01*
X51302Y182990D01*
X51428Y183075D01*
X51551Y183164D01*
X51673Y183255D01*
X51792Y183350D01*
X51908Y183447D01*
X52022Y183548D01*
X52134Y183651D01*
X52243Y183757D01*
X52349Y183866D01*
X52452Y183978D01*
X52553Y184092D01*
X52650Y184208D01*
X52745Y184327D01*
X52836Y184449D01*
X52925Y184572D01*
X53010Y184698D01*
X53092Y184826D01*
X53171Y184956D01*
X53246Y185088D01*
X53318Y185222D01*
X53387Y185358D01*
X53452Y185495D01*
X53514Y185634D01*
X53572Y185774D01*
X53627Y185916D01*
X53677Y186059D01*
X53725Y186204D01*
X53769Y186349D01*
X53808Y186496D01*
X53845Y186644D01*
X53877Y186792D01*
X53906Y186941D01*
X53931Y187091D01*
X53952Y187242D01*
X53969Y187393D01*
X53983Y187544D01*
X53992Y187696D01*
X53998Y187848D01*
X54000Y188000D01*
X54000Y226000D01*
X53993Y226580D01*
X53972Y227160D01*
X53937Y227738D01*
X53888Y228316D01*
X53825Y228893D01*
X53748Y229468D01*
X53657Y230041D01*
X53553Y230611D01*
X53435Y231179D01*
X53303Y231744D01*
X53157Y232305D01*
X52998Y232863D01*
X52825Y233416D01*
X52639Y233966D01*
X52440Y234511D01*
X52228Y235050D01*
X52003Y235585D01*
X51765Y236114D01*
X51514Y236637D01*
X51251Y237153D01*
X50975Y237664D01*
X50687Y238167D01*
X50387Y238663D01*
X50075Y239152D01*
X49752Y239634D01*
X49416Y240107D01*
X49070Y240572D01*
X48712Y241028D01*
X48344Y241476D01*
X47964Y241915D01*
X47574Y242344D01*
X47174Y242764D01*
X46764Y243174D01*
X46344Y243574D01*
X45915Y243964D01*
X45476Y244344D01*
X45028Y244712D01*
X44572Y245070D01*
X44107Y245416D01*
X43634Y245752D01*
X43152Y246075D01*
X42663Y246387D01*
X42167Y246687D01*
X41664Y246975D01*
X41153Y247251D01*
X40637Y247514D01*
X40114Y247765D01*
X39585Y248003D01*
X39050Y248228D01*
X38511Y248440D01*
X37966Y248639D01*
X37416Y248825D01*
X36863Y248998D01*
X36305Y249157D01*
X35744Y249303D01*
X35179Y249435D01*
X34611Y249553D01*
X34041Y249657D01*
X33468Y249748D01*
X32893Y249825D01*
X32316Y249888D01*
X31738Y249937D01*
X31160Y249972D01*
X30580Y249993D01*
X30000Y250000D01*
X28000Y250000D01*
X27420Y249993D01*
X26840Y249972D01*
X26262Y249937D01*
X25684Y249888D01*
X25107Y249825D01*
X24532Y249748D01*
X23959Y249657D01*
X23389Y249553D01*
X22821Y249435D01*
X22256Y249303D01*
X21695Y249157D01*
X21137Y248998D01*
X20584Y248825D01*
X20034Y248639D01*
X19489Y248440D01*
X18950Y248228D01*
X18415Y248003D01*
X17886Y247765D01*
X17363Y247514D01*
X16847Y247251D01*
X16336Y246975D01*
X15833Y246687D01*
X15337Y246387D01*
X14848Y246075D01*
X14366Y245752D01*
X13893Y245416D01*
X13428Y245070D01*
X12972Y244712D01*
X12524Y244344D01*
X12085Y243964D01*
X11656Y243574D01*
X11236Y243174D01*
X10826Y242764D01*
X10426Y242344D01*
X10036Y241915D01*
X9656Y241476D01*
X9288Y241028D01*
X8930Y240572D01*
X8584Y240107D01*
X8248Y239634D01*
X7925Y239152D01*
X7613Y238663D01*
X7313Y238167D01*
X7025Y237664D01*
X6749Y237153D01*
X6486Y236637D01*
X6235Y236114D01*
X5997Y235585D01*
X5772Y235050D01*
X5560Y234511D01*
X5361Y233966D01*
X5175Y233416D01*
X5002Y232863D01*
X4843Y232305D01*
X4697Y231744D01*
X4565Y231179D01*
X4447Y230611D01*
X4343Y230041D01*
X4252Y229468D01*
X4175Y228893D01*
X4112Y228316D01*
X4063Y227738D01*
X4028Y227160D01*
X4007Y226580D01*
X4000Y226000D01*
X4000Y28000D01*
X4007Y27420D01*
X4028Y26840D01*
X4063Y26262D01*
X4112Y25684D01*
X4175Y25107D01*
X4252Y24532D01*
X4343Y23959D01*
X4447Y23389D01*
X4565Y22821D01*
X4697Y22256D01*
X4843Y21695D01*
X5002Y21137D01*
X5175Y20584D01*
X5361Y20034D01*
X5560Y19489D01*
X5772Y18950D01*
X5997Y18415D01*
X6235Y17886D01*
X6486Y17363D01*
X6749Y16847D01*
X7025Y16336D01*
X7313Y15833D01*
X7613Y15337D01*
X7925Y14848D01*
X8248Y14366D01*
X8584Y13893D01*
X8930Y13428D01*
X9288Y12972D01*
X9656Y12524D01*
X10036Y12085D01*
X10426Y11656D01*
X10826Y11236D01*
X11236Y10826D01*
X11656Y10426D01*
X12085Y10036D01*
X12524Y9656D01*
X12972Y9288D01*
X13428Y8930D01*
X13893Y8584D01*
X14366Y8248D01*
X14848Y7925D01*
X15337Y7613D01*
X15833Y7313D01*
X16336Y7025D01*
X16847Y6749D01*
X17363Y6486D01*
X17886Y6235D01*
X18415Y5997D01*
X18950Y5772D01*
X19489Y5560D01*
X20034Y5361D01*
X20584Y5175D01*
X21137Y5002D01*
X21695Y4843D01*
X22256Y4697D01*
X22821Y4565D01*
X23389Y4447D01*
X23959Y4343D01*
X24532Y4252D01*
X25107Y4175D01*
X25684Y4112D01*
X26262Y4063D01*
X26840Y4028D01*
X27420Y4007D01*
X28000Y4000D01*
X30000Y4000D01*
X30580Y4007D01*
X31160Y4028D01*
X31738Y4063D01*
X32316Y4112D01*
X32893Y4175D01*
X33468Y4252D01*
X34041Y4343D01*
X34611Y4447D01*
X35179Y4565D01*
X35744Y4697D01*
X36305Y4843D01*
X36863Y5002D01*
X37416Y5175D01*
X37966Y5361D01*
X38511Y5560D01*
X39050Y5772D01*
X39585Y5997D01*
X40114Y6235D01*
X40637Y6486D01*
X41153Y6749D01*
X41664Y7025D01*
X42167Y7313D01*
X42663Y7613D01*
X43152Y7925D01*
X43634Y8248D01*
X44107Y8584D01*
X44572Y8930D01*
X45028Y9288D01*
X45476Y9656D01*
X45915Y10036D01*
X46344Y10426D01*
X46764Y10826D01*
X47174Y11236D01*
X47574Y11656D01*
X47964Y12085D01*
X48344Y12524D01*
X48712Y12972D01*
X49070Y13428D01*
X49416Y13893D01*
X49752Y14366D01*
X50075Y14848D01*
X50387Y15337D01*
X50687Y15833D01*
X50975Y16336D01*
X51251Y16847D01*
X51514Y17363D01*
X51765Y17886D01*
X52003Y18415D01*
X52228Y18950D01*
X52440Y19489D01*
X52639Y20034D01*
X52825Y20584D01*
X52998Y21137D01*
X53157Y21695D01*
X53303Y22256D01*
X53435Y22821D01*
X53553Y23389D01*
X53657Y23959D01*
X53748Y24532D01*
X53825Y25107D01*
X53888Y25684D01*
X53937Y26262D01*
X53972Y26840D01*
X53993Y27420D01*
X54000Y28000D01*
X54000Y168000D01*
X53998Y168152D01*
X53992Y168304D01*
X53983Y168456D01*
X53969Y168607D01*
X53952Y168758D01*
X53931Y168909D01*
X53906Y169059D01*
X53877Y169208D01*
X53845Y169356D01*
X53808Y169504D01*
X53769Y169651D01*
X53725Y169796D01*
X53677Y169941D01*
X53627Y170084D01*
X53572Y170226D01*
X53514Y170366D01*
X53452Y170505D01*
X53387Y170642D01*
X53318Y170778D01*
X53246Y170912D01*
X53171Y171044D01*
X53092Y171174D01*
X53010Y171302D01*
X52925Y171428D01*
X52836Y171551D01*
X52745Y171673D01*
X52650Y171792D01*
X52553Y171908D01*
X52452Y172022D01*
X52349Y172134D01*
X52243Y172243D01*
X52134Y172349D01*
X52022Y172452D01*
X51908Y172553D01*
X51792Y172650D01*
X51673Y172745D01*
X51551Y172836D01*
X51428Y172925D01*
X51302Y173010D01*
X51174Y173092D01*
X51044Y173171D01*
X50912Y173246D01*
X50778Y173318D01*
X50642Y173387D01*
X50505Y173452D01*
X50366Y173514D01*
X50226Y173572D01*
X50084Y173627D01*
X49941Y173677D01*
X49796Y173725D01*
X49651Y173769D01*
X49504Y173808D01*
X49356Y173845D01*
X49208Y173877D01*
X49059Y173906D01*
X48909Y173931D01*
X48758Y173952D01*
X48607Y173969D01*
X48456Y173983D01*
X48304Y173992D01*
X48152Y173998D01*
X48000Y174000D01*
X45000Y174000D01*
X45000Y180000D02*
X50000Y180000D01*
X50152Y180002D01*
X50304Y180008D01*
X50456Y180017D01*
X50607Y180031D01*
X50758Y180048D01*
X50909Y180069D01*
X51059Y180094D01*
X51208Y180123D01*
X51356Y180155D01*
X51504Y180192D01*
X51651Y180231D01*
X51796Y180275D01*
X51941Y180323D01*
X52084Y180373D01*
X52226Y180428D01*
X52366Y180486D01*
X52505Y180548D01*
X52642Y180613D01*
X52778Y180682D01*
X52912Y180754D01*
X53044Y180829D01*
X53174Y180908D01*
X53302Y180990D01*
X53428Y181075D01*
X53551Y181164D01*
X53673Y181255D01*
X53792Y181350D01*
X53908Y181447D01*
X54022Y181548D01*
X54134Y181651D01*
X54243Y181757D01*
X54349Y181866D01*
X54452Y181978D01*
X54553Y182092D01*
X54650Y182208D01*
X54745Y182327D01*
X54836Y182449D01*
X54925Y182572D01*
X55010Y182698D01*
X55092Y182826D01*
X55171Y182956D01*
X55246Y183088D01*
X55318Y183222D01*
X55387Y183358D01*
X55452Y183495D01*
X55514Y183634D01*
X55572Y183774D01*
X55627Y183916D01*
X55677Y184059D01*
X55725Y184204D01*
X55769Y184349D01*
X55808Y184496D01*
X55845Y184644D01*
X55877Y184792D01*
X55906Y184941D01*
X55931Y185091D01*
X55952Y185242D01*
X55969Y185393D01*
X55983Y185544D01*
X55992Y185696D01*
X55998Y185848D01*
X56000Y186000D01*
X56000Y226000D01*
X55992Y226628D01*
X55970Y227256D01*
X55932Y227883D01*
X55879Y228509D01*
X55810Y229134D01*
X55727Y229757D01*
X55629Y230377D01*
X55516Y230995D01*
X55387Y231610D01*
X55244Y232222D01*
X55087Y232830D01*
X54914Y233435D01*
X54727Y234034D01*
X54526Y234630D01*
X54310Y235220D01*
X54081Y235804D01*
X53837Y236383D01*
X53579Y236956D01*
X53307Y237523D01*
X53022Y238083D01*
X52723Y238636D01*
X52411Y239181D01*
X52086Y239719D01*
X51748Y240248D01*
X51398Y240770D01*
X51034Y241282D01*
X50659Y241786D01*
X50272Y242281D01*
X49872Y242766D01*
X49461Y243241D01*
X49039Y243706D01*
X48606Y244161D01*
X48161Y244606D01*
X47706Y245039D01*
X47241Y245461D01*
X46766Y245872D01*
X46281Y246272D01*
X45786Y246659D01*
X45282Y247034D01*
X44770Y247398D01*
X44248Y247748D01*
X43719Y248086D01*
X43181Y248411D01*
X42636Y248723D01*
X42083Y249022D01*
X41523Y249307D01*
X40956Y249579D01*
X40383Y249837D01*
X39804Y250081D01*
X39220Y250310D01*
X38630Y250526D01*
X38034Y250727D01*
X37435Y250914D01*
X36830Y251087D01*
X36222Y251244D01*
X35610Y251387D01*
X34995Y251516D01*
X34377Y251629D01*
X33757Y251727D01*
X33134Y251810D01*
X32509Y251879D01*
X31883Y251932D01*
X31256Y251970D01*
X30628Y251992D01*
X30000Y252000D01*
X28000Y252000D01*
X27372Y251992D01*
X26744Y251970D01*
X26117Y251932D01*
X25491Y251879D01*
X24866Y251810D01*
X24243Y251727D01*
X23623Y251629D01*
X23005Y251516D01*
X22390Y251387D01*
X21778Y251244D01*
X21170Y251087D01*
X20565Y250914D01*
X19966Y250727D01*
X19370Y250526D01*
X18780Y250310D01*
X18196Y250081D01*
X17617Y249837D01*
X17044Y249579D01*
X16477Y249307D01*
X15917Y249022D01*
X15364Y248723D01*
X14819Y248411D01*
X14281Y248086D01*
X13752Y247748D01*
X13230Y247398D01*
X12718Y247034D01*
X12214Y246659D01*
X11719Y246272D01*
X11234Y245872D01*
X10759Y245461D01*
X10294Y245039D01*
X9839Y244606D01*
X9394Y244161D01*
X8961Y243706D01*
X8539Y243241D01*
X8128Y242766D01*
X7728Y242281D01*
X7341Y241786D01*
X6966Y241282D01*
X6602Y240770D01*
X6252Y240248D01*
X5914Y239719D01*
X5589Y239181D01*
X5277Y238636D01*
X4978Y238083D01*
X4693Y237523D01*
X4421Y236956D01*
X4163Y236383D01*
X3919Y235804D01*
X3690Y235220D01*
X3474Y234630D01*
X3273Y234034D01*
X3086Y233435D01*
X2913Y232830D01*
X2756Y232222D01*
X2613Y231610D01*
X2484Y230995D01*
X2371Y230377D01*
X2273Y229757D01*
X2190Y229134D01*
X2121Y228509D01*
X2068Y227883D01*
X2030Y227256D01*
X2008Y226628D01*
X2000Y226000D01*
X2000Y28000D01*
X2008Y27372D01*
X2030Y26744D01*
X2068Y26117D01*
X2121Y25491D01*
X2190Y24866D01*
X2273Y24243D01*
X2371Y23623D01*
X2484Y23005D01*
X2613Y22390D01*
X2756Y21778D01*
X2913Y21170D01*
X3086Y20565D01*
X3273Y19966D01*
X3474Y19370D01*
X3690Y18780D01*
X3919Y18196D01*
X4163Y17617D01*
X4421Y17044D01*
X4693Y16477D01*
X4978Y15917D01*
X5277Y15364D01*
X5589Y14819D01*
X5914Y14281D01*
X6252Y13752D01*
X6602Y13230D01*
X6966Y12718D01*
X7341Y12214D01*
X7728Y11719D01*
X8128Y11234D01*
X8539Y10759D01*
X8961Y10294D01*
X9394Y9839D01*
X9839Y9394D01*
X10294Y8961D01*
X10759Y8539D01*
X11234Y8128D01*
X11719Y7728D01*
X12214Y7341D01*
X12718Y6966D01*
X13230Y6602D01*
X13752Y6252D01*
X14281Y5914D01*
X14819Y5589D01*
X15364Y5277D01*
X15917Y4978D01*
X16477Y4693D01*
X17044Y4421D01*
X17617Y4163D01*
X18196Y3919D01*
X18780Y3690D01*
X19370Y3474D01*
X19966Y3273D01*
X20565Y3086D01*
X21170Y2913D01*
X21778Y2756D01*
X22390Y2613D01*
X23005Y2484D01*
X23623Y2371D01*
X24243Y2273D01*
X24866Y2190D01*
X25491Y2121D01*
X26117Y2068D01*
X26744Y2030D01*
X27372Y2008D01*
X28000Y2000D01*
X46000Y177000D02*
X49750Y177000D01*
X50000Y177000D01*
X50152Y176998D01*
X50304Y176992D01*
X50456Y176983D01*
X50607Y176969D01*
X50758Y176952D01*
X50909Y176931D01*
X51059Y176906D01*
X51208Y176877D01*
X51356Y176845D01*
X51504Y176808D01*
X51651Y176769D01*
X51796Y176725D01*
X51941Y176677D01*
X52084Y176627D01*
X52226Y176572D01*
X52366Y176514D01*
X52505Y176452D01*
X52642Y176387D01*
X52778Y176318D01*
X52912Y176246D01*
X53044Y176171D01*
X53174Y176092D01*
X53302Y176010D01*
X53428Y175925D01*
X53551Y175836D01*
X53673Y175745D01*
X53792Y175650D01*
X53908Y175553D01*
X54022Y175452D01*
X54134Y175349D01*
X54243Y175243D01*
X54349Y175134D01*
X54452Y175022D01*
X54553Y174908D01*
X54650Y174792D01*
X54745Y174673D01*
X54836Y174551D01*
X54925Y174428D01*
X55010Y174302D01*
X55092Y174174D01*
X55171Y174044D01*
X55246Y173912D01*
X55318Y173778D01*
X55387Y173642D01*
X55452Y173505D01*
X55514Y173366D01*
X55572Y173226D01*
X55627Y173084D01*
X55677Y172941D01*
X55725Y172796D01*
X55769Y172651D01*
X55808Y172504D01*
X55845Y172356D01*
X55877Y172208D01*
X55906Y172059D01*
X55931Y171909D01*
X55952Y171758D01*
X55969Y171607D01*
X55983Y171456D01*
X55992Y171304D01*
X55998Y171152D01*
X56000Y171000D01*
X56000Y28000D01*
X55992Y27372D01*
X55970Y26744D01*
X55932Y26117D01*
X55879Y25491D01*
X55810Y24866D01*
X55727Y24243D01*
X55629Y23623D01*
X55516Y23005D01*
X55387Y22390D01*
X55244Y21778D01*
X55087Y21170D01*
X54914Y20565D01*
X54727Y19966D01*
X54526Y19370D01*
X54310Y18780D01*
X54081Y18196D01*
X53837Y17617D01*
X53579Y17044D01*
X53307Y16477D01*
X53022Y15917D01*
X52723Y15364D01*
X52411Y14819D01*
X52086Y14281D01*
X51748Y13752D01*
X51398Y13230D01*
X51034Y12718D01*
X50659Y12214D01*
X50272Y11719D01*
X49872Y11234D01*
X49461Y10759D01*
X49039Y10294D01*
X48606Y9839D01*
X48161Y9394D01*
X47706Y8961D01*
X47241Y8539D01*
X46766Y8128D01*
X46281Y7728D01*
X45786Y7341D01*
X45282Y6966D01*
X44770Y6602D01*
X44248Y6252D01*
X43719Y5914D01*
X43181Y5589D01*
X42636Y5277D01*
X42083Y4978D01*
X41523Y4693D01*
X40956Y4421D01*
X40383Y4163D01*
X39804Y3919D01*
X39220Y3690D01*
X38630Y3474D01*
X38034Y3273D01*
X37435Y3086D01*
X36830Y2913D01*
X36222Y2756D01*
X35610Y2613D01*
X34995Y2484D01*
X34377Y2371D01*
X33757Y2273D01*
X33134Y2190D01*
X32509Y2121D01*
X31883Y2068D01*
X31256Y2030D01*
X30628Y2008D01*
X30000Y2000D01*
X28000Y2000D01*
X45000Y174000D02*
X44913Y174002D01*
X44826Y174008D01*
X44739Y174017D01*
X44653Y174030D01*
X44567Y174047D01*
X44482Y174068D01*
X44399Y174093D01*
X44316Y174121D01*
X44235Y174152D01*
X44155Y174187D01*
X44077Y174226D01*
X44000Y174268D01*
X43925Y174313D01*
X43853Y174362D01*
X43782Y174413D01*
X43714Y174468D01*
X43649Y174525D01*
X43586Y174586D01*
X43525Y174649D01*
X43468Y174714D01*
X43413Y174782D01*
X43362Y174853D01*
X43313Y174925D01*
X43268Y175000D01*
X43226Y175077D01*
X43187Y175155D01*
X43152Y175235D01*
X43121Y175316D01*
X43093Y175399D01*
X43068Y175482D01*
X43047Y175567D01*
X43030Y175653D01*
X43017Y175739D01*
X43008Y175826D01*
X43002Y175913D01*
X43000Y176000D01*
X43000Y178000D01*
X43002Y178087D01*
X43008Y178174D01*
X43017Y178261D01*
X43030Y178347D01*
X43047Y178433D01*
X43068Y178518D01*
X43093Y178601D01*
X43121Y178684D01*
X43152Y178765D01*
X43187Y178845D01*
X43226Y178923D01*
X43268Y179000D01*
X43313Y179075D01*
X43362Y179147D01*
X43413Y179218D01*
X43468Y179286D01*
X43525Y179351D01*
X43586Y179414D01*
X43649Y179475D01*
X43714Y179532D01*
X43782Y179587D01*
X43853Y179638D01*
X43925Y179687D01*
X44000Y179732D01*
X44077Y179774D01*
X44155Y179813D01*
X44235Y179848D01*
X44316Y179879D01*
X44399Y179907D01*
X44482Y179932D01*
X44567Y179953D01*
X44653Y179970D01*
X44739Y179983D01*
X44826Y179992D01*
X44913Y179998D01*
X45000Y180000D01*
X41000Y176000D02*
X41002Y175874D01*
X41008Y175749D01*
X41018Y175624D01*
X41032Y175499D01*
X41049Y175374D01*
X41071Y175250D01*
X41096Y175127D01*
X41126Y175005D01*
X41159Y174884D01*
X41196Y174764D01*
X41236Y174645D01*
X41281Y174528D01*
X41329Y174411D01*
X41381Y174297D01*
X41436Y174184D01*
X41495Y174073D01*
X41557Y173964D01*
X41623Y173857D01*
X41692Y173752D01*
X41764Y173649D01*
X41839Y173548D01*
X41918Y173450D01*
X42000Y173355D01*
X42084Y173262D01*
X42172Y173172D01*
X42262Y173084D01*
X42355Y173000D01*
X42450Y172918D01*
X42548Y172839D01*
X42649Y172764D01*
X42752Y172692D01*
X42857Y172623D01*
X42964Y172557D01*
X43073Y172495D01*
X43184Y172436D01*
X43297Y172381D01*
X43411Y172329D01*
X43528Y172281D01*
X43645Y172236D01*
X43764Y172196D01*
X43884Y172159D01*
X44005Y172126D01*
X44127Y172096D01*
X44250Y172071D01*
X44374Y172049D01*
X44499Y172032D01*
X44624Y172018D01*
X44749Y172008D01*
X44874Y172002D01*
X45000Y172000D01*
X41000Y176000D02*
X41000Y178000D01*
X41002Y178126D01*
X41008Y178251D01*
X41018Y178376D01*
X41032Y178501D01*
X41049Y178626D01*
X41071Y178750D01*
X41096Y178873D01*
X41126Y178995D01*
X41159Y179116D01*
X41196Y179236D01*
X41236Y179355D01*
X41281Y179472D01*
X41329Y179589D01*
X41381Y179703D01*
X41436Y179816D01*
X41495Y179927D01*
X41557Y180036D01*
X41623Y180143D01*
X41692Y180248D01*
X41764Y180351D01*
X41839Y180452D01*
X41918Y180550D01*
X42000Y180645D01*
X42084Y180738D01*
X42172Y180828D01*
X42262Y180916D01*
X42355Y181000D01*
X42450Y181082D01*
X42548Y181161D01*
X42649Y181236D01*
X42752Y181308D01*
X42857Y181377D01*
X42964Y181443D01*
X43073Y181505D01*
X43184Y181564D01*
X43297Y181619D01*
X43411Y181671D01*
X43528Y181719D01*
X43645Y181764D01*
X43764Y181804D01*
X43884Y181841D01*
X44005Y181874D01*
X44127Y181904D01*
X44250Y181929D01*
X44374Y181951D01*
X44499Y181968D01*
X44624Y181982D01*
X44749Y181992D01*
X44874Y181998D01*
X45000Y182000D01*
X39000Y178000D02*
X39000Y176000D01*
X39002Y175848D01*
X39008Y175696D01*
X39017Y175544D01*
X39031Y175393D01*
X39048Y175242D01*
X39069Y175091D01*
X39094Y174941D01*
X39123Y174792D01*
X39155Y174644D01*
X39192Y174496D01*
X39231Y174349D01*
X39275Y174204D01*
X39323Y174059D01*
X39373Y173916D01*
X39428Y173774D01*
X39486Y173634D01*
X39548Y173495D01*
X39613Y173358D01*
X39682Y173222D01*
X39754Y173088D01*
X39829Y172956D01*
X39908Y172826D01*
X39990Y172698D01*
X40075Y172572D01*
X40164Y172449D01*
X40255Y172327D01*
X40350Y172208D01*
X40447Y172092D01*
X40548Y171978D01*
X40651Y171866D01*
X40757Y171757D01*
X40866Y171651D01*
X40978Y171548D01*
X41092Y171447D01*
X41208Y171350D01*
X41327Y171255D01*
X41449Y171164D01*
X41572Y171075D01*
X41698Y170990D01*
X41826Y170908D01*
X41956Y170829D01*
X42088Y170754D01*
X42222Y170682D01*
X42358Y170613D01*
X42495Y170548D01*
X42634Y170486D01*
X42774Y170428D01*
X42916Y170373D01*
X43059Y170323D01*
X43204Y170275D01*
X43349Y170231D01*
X43496Y170192D01*
X43644Y170155D01*
X43792Y170123D01*
X43941Y170094D01*
X44091Y170069D01*
X44242Y170048D01*
X44393Y170031D01*
X44544Y170017D01*
X44696Y170008D01*
X44848Y170002D01*
X45000Y170000D01*
X43000Y168000D02*
X42848Y168002D01*
X42696Y168008D01*
X42544Y168017D01*
X42393Y168031D01*
X42242Y168048D01*
X42091Y168069D01*
X41941Y168094D01*
X41792Y168123D01*
X41644Y168155D01*
X41496Y168192D01*
X41349Y168231D01*
X41204Y168275D01*
X41059Y168323D01*
X40916Y168373D01*
X40774Y168428D01*
X40634Y168486D01*
X40495Y168548D01*
X40358Y168613D01*
X40222Y168682D01*
X40088Y168754D01*
X39956Y168829D01*
X39826Y168908D01*
X39698Y168990D01*
X39572Y169075D01*
X39449Y169164D01*
X39327Y169255D01*
X39208Y169350D01*
X39092Y169447D01*
X38978Y169548D01*
X38866Y169651D01*
X38757Y169757D01*
X38651Y169866D01*
X38548Y169978D01*
X38447Y170092D01*
X38350Y170208D01*
X38255Y170327D01*
X38164Y170449D01*
X38075Y170572D01*
X37990Y170698D01*
X37908Y170826D01*
X37829Y170956D01*
X37754Y171088D01*
X37682Y171222D01*
X37613Y171358D01*
X37548Y171495D01*
X37486Y171634D01*
X37428Y171774D01*
X37373Y171916D01*
X37323Y172059D01*
X37275Y172204D01*
X37231Y172349D01*
X37192Y172496D01*
X37155Y172644D01*
X37123Y172792D01*
X37094Y172941D01*
X37069Y173091D01*
X37048Y173242D01*
X37031Y173393D01*
X37017Y173544D01*
X37008Y173696D01*
X37002Y173848D01*
X37000Y174000D01*
X37000Y180000D01*
X35000Y172000D02*
X35002Y171848D01*
X35008Y171696D01*
X35017Y171544D01*
X35031Y171393D01*
X35048Y171242D01*
X35069Y171091D01*
X35094Y170941D01*
X35123Y170792D01*
X35155Y170644D01*
X35192Y170496D01*
X35231Y170349D01*
X35275Y170204D01*
X35323Y170059D01*
X35373Y169916D01*
X35428Y169774D01*
X35486Y169634D01*
X35548Y169495D01*
X35613Y169358D01*
X35682Y169222D01*
X35754Y169088D01*
X35829Y168956D01*
X35908Y168826D01*
X35990Y168698D01*
X36075Y168572D01*
X36164Y168449D01*
X36255Y168327D01*
X36350Y168208D01*
X36447Y168092D01*
X36548Y167978D01*
X36651Y167866D01*
X36757Y167757D01*
X36866Y167651D01*
X36978Y167548D01*
X37092Y167447D01*
X37208Y167350D01*
X37327Y167255D01*
X37449Y167164D01*
X37572Y167075D01*
X37698Y166990D01*
X37826Y166908D01*
X37956Y166829D01*
X38088Y166754D01*
X38222Y166682D01*
X38358Y166613D01*
X38495Y166548D01*
X38634Y166486D01*
X38774Y166428D01*
X38916Y166373D01*
X39059Y166323D01*
X39204Y166275D01*
X39349Y166231D01*
X39496Y166192D01*
X39644Y166155D01*
X39792Y166123D01*
X39941Y166094D01*
X40091Y166069D01*
X40242Y166048D01*
X40393Y166031D01*
X40544Y166017D01*
X40696Y166008D01*
X40848Y166002D01*
X41000Y166000D01*
X35000Y172000D02*
X35000Y182000D01*
X39000Y178000D02*
X39002Y178152D01*
X39008Y178304D01*
X39017Y178456D01*
X39031Y178607D01*
X39048Y178758D01*
X39069Y178909D01*
X39094Y179059D01*
X39123Y179208D01*
X39155Y179356D01*
X39192Y179504D01*
X39231Y179651D01*
X39275Y179796D01*
X39323Y179941D01*
X39373Y180084D01*
X39428Y180226D01*
X39486Y180366D01*
X39548Y180505D01*
X39613Y180642D01*
X39682Y180778D01*
X39754Y180912D01*
X39829Y181044D01*
X39908Y181174D01*
X39990Y181302D01*
X40075Y181428D01*
X40164Y181551D01*
X40255Y181673D01*
X40350Y181792D01*
X40447Y181908D01*
X40548Y182022D01*
X40651Y182134D01*
X40757Y182243D01*
X40866Y182349D01*
X40978Y182452D01*
X41092Y182553D01*
X41208Y182650D01*
X41327Y182745D01*
X41449Y182836D01*
X41572Y182925D01*
X41698Y183010D01*
X41826Y183092D01*
X41956Y183171D01*
X42088Y183246D01*
X42222Y183318D01*
X42358Y183387D01*
X42495Y183452D01*
X42634Y183514D01*
X42774Y183572D01*
X42916Y183627D01*
X43059Y183677D01*
X43204Y183725D01*
X43349Y183769D01*
X43496Y183808D01*
X43644Y183845D01*
X43792Y183877D01*
X43941Y183906D01*
X44091Y183931D01*
X44242Y183952D01*
X44393Y183969D01*
X44544Y183983D01*
X44696Y183992D01*
X44848Y183998D01*
X45000Y184000D01*
X43000Y186000D02*
X42848Y185998D01*
X42696Y185992D01*
X42544Y185983D01*
X42393Y185969D01*
X42242Y185952D01*
X42091Y185931D01*
X41941Y185906D01*
X41792Y185877D01*
X41644Y185845D01*
X41496Y185808D01*
X41349Y185769D01*
X41204Y185725D01*
X41059Y185677D01*
X40916Y185627D01*
X40774Y185572D01*
X40634Y185514D01*
X40495Y185452D01*
X40358Y185387D01*
X40222Y185318D01*
X40088Y185246D01*
X39956Y185171D01*
X39826Y185092D01*
X39698Y185010D01*
X39572Y184925D01*
X39449Y184836D01*
X39327Y184745D01*
X39208Y184650D01*
X39092Y184553D01*
X38978Y184452D01*
X38866Y184349D01*
X38757Y184243D01*
X38651Y184134D01*
X38548Y184022D01*
X38447Y183908D01*
X38350Y183792D01*
X38255Y183673D01*
X38164Y183551D01*
X38075Y183428D01*
X37990Y183302D01*
X37908Y183174D01*
X37829Y183044D01*
X37754Y182912D01*
X37682Y182778D01*
X37613Y182642D01*
X37548Y182505D01*
X37486Y182366D01*
X37428Y182226D01*
X37373Y182084D01*
X37323Y181941D01*
X37275Y181796D01*
X37231Y181651D01*
X37192Y181504D01*
X37155Y181356D01*
X37123Y181208D01*
X37094Y181059D01*
X37069Y180909D01*
X37048Y180758D01*
X37031Y180607D01*
X37017Y180456D01*
X37008Y180304D01*
X37002Y180152D01*
X37000Y180000D01*
X35000Y182000D02*
X35002Y182152D01*
X35008Y182304D01*
X35017Y182456D01*
X35031Y182607D01*
X35048Y182758D01*
X35069Y182909D01*
X35094Y183059D01*
X35123Y183208D01*
X35155Y183356D01*
X35192Y183504D01*
X35231Y183651D01*
X35275Y183796D01*
X35323Y183941D01*
X35373Y184084D01*
X35428Y184226D01*
X35486Y184366D01*
X35548Y184505D01*
X35613Y184642D01*
X35682Y184778D01*
X35754Y184912D01*
X35829Y185044D01*
X35908Y185174D01*
X35990Y185302D01*
X36075Y185428D01*
X36164Y185551D01*
X36255Y185673D01*
X36350Y185792D01*
X36447Y185908D01*
X36548Y186022D01*
X36651Y186134D01*
X36757Y186243D01*
X36866Y186349D01*
X36978Y186452D01*
X37092Y186553D01*
X37208Y186650D01*
X37327Y186745D01*
X37449Y186836D01*
X37572Y186925D01*
X37698Y187010D01*
X37826Y187092D01*
X37956Y187171D01*
X38088Y187246D01*
X38222Y187318D01*
X38358Y187387D01*
X38495Y187452D01*
X38634Y187514D01*
X38774Y187572D01*
X38916Y187627D01*
X39059Y187677D01*
X39204Y187725D01*
X39349Y187769D01*
X39496Y187808D01*
X39644Y187845D01*
X39792Y187877D01*
X39941Y187906D01*
X40091Y187931D01*
X40242Y187952D01*
X40393Y187969D01*
X40544Y187983D01*
X40696Y187992D01*
X40848Y187998D01*
X41000Y188000D01*
X33000Y170000D02*
X33002Y169848D01*
X33008Y169696D01*
X33017Y169544D01*
X33031Y169393D01*
X33048Y169242D01*
X33069Y169091D01*
X33094Y168941D01*
X33123Y168792D01*
X33155Y168644D01*
X33192Y168496D01*
X33231Y168349D01*
X33275Y168204D01*
X33323Y168059D01*
X33373Y167916D01*
X33428Y167774D01*
X33486Y167634D01*
X33548Y167495D01*
X33613Y167358D01*
X33682Y167222D01*
X33754Y167088D01*
X33829Y166956D01*
X33908Y166826D01*
X33990Y166698D01*
X34075Y166572D01*
X34164Y166449D01*
X34255Y166327D01*
X34350Y166208D01*
X34447Y166092D01*
X34548Y165978D01*
X34651Y165866D01*
X34757Y165757D01*
X34866Y165651D01*
X34978Y165548D01*
X35092Y165447D01*
X35208Y165350D01*
X35327Y165255D01*
X35449Y165164D01*
X35572Y165075D01*
X35698Y164990D01*
X35826Y164908D01*
X35956Y164829D01*
X36088Y164754D01*
X36222Y164682D01*
X36358Y164613D01*
X36495Y164548D01*
X36634Y164486D01*
X36774Y164428D01*
X36916Y164373D01*
X37059Y164323D01*
X37204Y164275D01*
X37349Y164231D01*
X37496Y164192D01*
X37644Y164155D01*
X37792Y164123D01*
X37941Y164094D01*
X38091Y164069D01*
X38242Y164048D01*
X38393Y164031D01*
X38544Y164017D01*
X38696Y164008D01*
X38848Y164002D01*
X39000Y164000D01*
X33000Y170000D02*
X33000Y184000D01*
X31000Y168000D02*
X31002Y167848D01*
X31008Y167696D01*
X31017Y167544D01*
X31031Y167393D01*
X31048Y167242D01*
X31069Y167091D01*
X31094Y166941D01*
X31123Y166792D01*
X31155Y166644D01*
X31192Y166496D01*
X31231Y166349D01*
X31275Y166204D01*
X31323Y166059D01*
X31373Y165916D01*
X31428Y165774D01*
X31486Y165634D01*
X31548Y165495D01*
X31613Y165358D01*
X31682Y165222D01*
X31754Y165088D01*
X31829Y164956D01*
X31908Y164826D01*
X31990Y164698D01*
X32075Y164572D01*
X32164Y164449D01*
X32255Y164327D01*
X32350Y164208D01*
X32447Y164092D01*
X32548Y163978D01*
X32651Y163866D01*
X32757Y163757D01*
X32866Y163651D01*
X32978Y163548D01*
X33092Y163447D01*
X33208Y163350D01*
X33327Y163255D01*
X33449Y163164D01*
X33572Y163075D01*
X33698Y162990D01*
X33826Y162908D01*
X33956Y162829D01*
X34088Y162754D01*
X34222Y162682D01*
X34358Y162613D01*
X34495Y162548D01*
X34634Y162486D01*
X34774Y162428D01*
X34916Y162373D01*
X35059Y162323D01*
X35204Y162275D01*
X35349Y162231D01*
X35496Y162192D01*
X35644Y162155D01*
X35792Y162123D01*
X35941Y162094D01*
X36091Y162069D01*
X36242Y162048D01*
X36393Y162031D01*
X36544Y162017D01*
X36696Y162008D01*
X36848Y162002D01*
X37000Y162000D01*
X31000Y168000D02*
X31000Y186000D01*
X33000Y184000D02*
X33002Y184152D01*
X33008Y184304D01*
X33017Y184456D01*
X33031Y184607D01*
X33048Y184758D01*
X33069Y184909D01*
X33094Y185059D01*
X33123Y185208D01*
X33155Y185356D01*
X33192Y185504D01*
X33231Y185651D01*
X33275Y185796D01*
X33323Y185941D01*
X33373Y186084D01*
X33428Y186226D01*
X33486Y186366D01*
X33548Y186505D01*
X33613Y186642D01*
X33682Y186778D01*
X33754Y186912D01*
X33829Y187044D01*
X33908Y187174D01*
X33990Y187302D01*
X34075Y187428D01*
X34164Y187551D01*
X34255Y187673D01*
X34350Y187792D01*
X34447Y187908D01*
X34548Y188022D01*
X34651Y188134D01*
X34757Y188243D01*
X34866Y188349D01*
X34978Y188452D01*
X35092Y188553D01*
X35208Y188650D01*
X35327Y188745D01*
X35449Y188836D01*
X35572Y188925D01*
X35698Y189010D01*
X35826Y189092D01*
X35956Y189171D01*
X36088Y189246D01*
X36222Y189318D01*
X36358Y189387D01*
X36495Y189452D01*
X36634Y189514D01*
X36774Y189572D01*
X36916Y189627D01*
X37059Y189677D01*
X37204Y189725D01*
X37349Y189769D01*
X37496Y189808D01*
X37644Y189845D01*
X37792Y189877D01*
X37941Y189906D01*
X38091Y189931D01*
X38242Y189952D01*
X38393Y189969D01*
X38544Y189983D01*
X38696Y189992D01*
X38848Y189998D01*
X39000Y190000D01*
X37000Y192000D02*
X36848Y191998D01*
X36696Y191992D01*
X36544Y191983D01*
X36393Y191969D01*
X36242Y191952D01*
X36091Y191931D01*
X35941Y191906D01*
X35792Y191877D01*
X35644Y191845D01*
X35496Y191808D01*
X35349Y191769D01*
X35204Y191725D01*
X35059Y191677D01*
X34916Y191627D01*
X34774Y191572D01*
X34634Y191514D01*
X34495Y191452D01*
X34358Y191387D01*
X34222Y191318D01*
X34088Y191246D01*
X33956Y191171D01*
X33826Y191092D01*
X33698Y191010D01*
X33572Y190925D01*
X33449Y190836D01*
X33327Y190745D01*
X33208Y190650D01*
X33092Y190553D01*
X32978Y190452D01*
X32866Y190349D01*
X32757Y190243D01*
X32651Y190134D01*
X32548Y190022D01*
X32447Y189908D01*
X32350Y189792D01*
X32255Y189673D01*
X32164Y189551D01*
X32075Y189428D01*
X31990Y189302D01*
X31908Y189174D01*
X31829Y189044D01*
X31754Y188912D01*
X31682Y188778D01*
X31613Y188642D01*
X31548Y188505D01*
X31486Y188366D01*
X31428Y188226D01*
X31373Y188084D01*
X31323Y187941D01*
X31275Y187796D01*
X31231Y187651D01*
X31192Y187504D01*
X31155Y187356D01*
X31123Y187208D01*
X31094Y187059D01*
X31069Y186909D01*
X31048Y186758D01*
X31031Y186607D01*
X31017Y186456D01*
X31008Y186304D01*
X31002Y186152D01*
X31000Y186000D01*
X29000Y188000D02*
X29002Y188152D01*
X29008Y188304D01*
X29017Y188456D01*
X29031Y188607D01*
X29048Y188758D01*
X29069Y188909D01*
X29094Y189059D01*
X29123Y189208D01*
X29155Y189356D01*
X29192Y189504D01*
X29231Y189651D01*
X29275Y189796D01*
X29323Y189941D01*
X29373Y190084D01*
X29428Y190226D01*
X29486Y190366D01*
X29548Y190505D01*
X29613Y190642D01*
X29682Y190778D01*
X29754Y190912D01*
X29829Y191044D01*
X29908Y191174D01*
X29990Y191302D01*
X30075Y191428D01*
X30164Y191551D01*
X30255Y191673D01*
X30350Y191792D01*
X30447Y191908D01*
X30548Y192022D01*
X30651Y192134D01*
X30757Y192243D01*
X30866Y192349D01*
X30978Y192452D01*
X31092Y192553D01*
X31208Y192650D01*
X31327Y192745D01*
X31449Y192836D01*
X31572Y192925D01*
X31698Y193010D01*
X31826Y193092D01*
X31956Y193171D01*
X32088Y193246D01*
X32222Y193318D01*
X32358Y193387D01*
X32495Y193452D01*
X32634Y193514D01*
X32774Y193572D01*
X32916Y193627D01*
X33059Y193677D01*
X33204Y193725D01*
X33349Y193769D01*
X33496Y193808D01*
X33644Y193845D01*
X33792Y193877D01*
X33941Y193906D01*
X34091Y193931D01*
X34242Y193952D01*
X34393Y193969D01*
X34544Y193983D01*
X34696Y193992D01*
X34848Y193998D01*
X35000Y194000D01*
X29000Y188000D02*
X29000Y173672D01*
X46000Y177000D02*
X47194Y177371D01*
X47193Y176626D02*
X46000Y177000D01*
X46417Y178179D02*
X49750Y177000D01*
X46417Y178179D02*
X46000Y177000D01*
X46417Y175821D02*
X49750Y177000D01*
X46417Y175821D02*
X46000Y177000D01*
X29000Y173672D02*
X27000Y170500D01*
X26210Y171450D02*
X28980Y173810D01*
X29010Y173730D02*
X28200Y170130D01*
X31000Y95500D02*
X37000Y95500D01*
D10*
X24900Y95500D03*
D11*
X28650Y95500D02*
X31000Y95500D01*
X28650Y95500D02*
X24900Y95500D01*
X37000Y95500D02*
X39500Y93000D01*
D10*
X24900Y32000D03*
X31000Y105500D03*
D11*
X31000Y101750D01*
X31000Y95500D01*
X24900Y32000D02*
X27552Y29348D01*
X31400Y25500D01*
X36000Y25500D01*
X39500Y29000D01*
X39500Y93000D01*
X28650Y95500D02*
X25317Y96679D01*
X24900Y95500D01*
X25317Y94321D02*
X28650Y95500D01*
X25317Y94321D02*
X24900Y95500D01*
X26028Y32539D02*
X27552Y29348D01*
X26028Y32539D02*
X24900Y32000D01*
X24361Y30872D02*
X27552Y29348D01*
X24361Y30872D02*
X24900Y32000D01*
X31000Y101750D02*
X32179Y105083D01*
X31000Y105500D01*
X29821Y105083D02*
X31000Y101750D01*
X29821Y105083D02*
X31000Y105500D01*
D10*
X29000Y129000D03*
D11*
X25250Y129000D01*
X18500Y129000D01*
X18500Y211500D01*
X22000Y215000D01*
X35500Y215000D01*
X39000Y211500D01*
X39000Y207750D01*
X39000Y204000D01*
D10*
X39000Y204000D03*
X33100Y89100D03*
D11*
X29350Y89100D01*
X18500Y89100D01*
X18500Y129000D01*
D10*
X33000Y32000D03*
D11*
X18500Y46500D02*
X18500Y89100D01*
X18500Y46500D02*
X30348Y34652D01*
X33000Y32000D01*
X28583Y127821D02*
X25250Y129000D01*
X28583Y127821D02*
X29000Y129000D01*
X28583Y130179D02*
X25250Y129000D01*
X28583Y130179D02*
X29000Y129000D01*
X37821Y204417D02*
X39000Y207750D01*
X37821Y204417D02*
X39000Y204000D01*
X40179Y204417D02*
X39000Y207750D01*
X40179Y204417D02*
X39000Y204000D01*
X29350Y89100D02*
X32683Y87921D01*
X33100Y89100D01*
X32683Y90279D02*
X29350Y89100D01*
X32683Y90279D02*
X33100Y89100D01*
X30348Y34652D02*
X31872Y31461D01*
X33000Y32000D01*
X33539Y33128D02*
X30348Y34652D01*
X33539Y33128D02*
X33000Y32000D01*
D10*
X29000Y160500D03*
X39000Y115250D03*
D11*
X29000Y156750D02*
X29000Y160500D01*
X29000Y156750D02*
X29000Y136000D01*
X33000Y132000D01*
X33000Y121250D01*
X36348Y117902D02*
X39000Y115250D01*
X36348Y117902D02*
X33000Y121250D01*
X29000Y156750D02*
X30179Y160083D01*
X29000Y160500D01*
X27821Y160083D02*
X29000Y156750D01*
X27821Y160083D02*
X29000Y160500D01*
X36348Y117902D02*
X37872Y114711D01*
X39000Y115250D01*
X39539Y116378D02*
X36348Y117902D01*
X39539Y116378D02*
X39000Y115250D01*
M02*
