G04 EAGLE Gerber RS-274X export*
G75*
%MOMM*%
%FSLAX34Y34*%
%LPD*%
%IN*%
%IPPOS*%
%AMOC8*
5,1,8,0,0,1.08239X$1,22.5*%
G01*
%ADD10C,0.000000*%
%ADD11C,0.254000*%


D10*
X58000Y28000D02*
X58000Y226000D01*
X57992Y226677D01*
X57967Y227353D01*
X57926Y228028D01*
X57869Y228702D01*
X57796Y229375D01*
X57706Y230046D01*
X57600Y230714D01*
X57478Y231380D01*
X57340Y232042D01*
X57186Y232701D01*
X57017Y233356D01*
X56831Y234006D01*
X56630Y234652D01*
X56413Y235293D01*
X56180Y235929D01*
X55933Y236559D01*
X55670Y237182D01*
X55392Y237799D01*
X55100Y238409D01*
X54793Y239012D01*
X54471Y239608D01*
X54135Y240195D01*
X53785Y240774D01*
X53421Y241344D01*
X53044Y241906D01*
X52652Y242458D01*
X52248Y243001D01*
X51831Y243533D01*
X51401Y244056D01*
X50958Y244567D01*
X50504Y245068D01*
X50037Y245558D01*
X49558Y246037D01*
X49068Y246504D01*
X48567Y246958D01*
X48056Y247401D01*
X47533Y247831D01*
X47001Y248248D01*
X46458Y248652D01*
X45906Y249044D01*
X45344Y249421D01*
X44774Y249785D01*
X44195Y250135D01*
X43608Y250471D01*
X43012Y250793D01*
X42409Y251100D01*
X41799Y251392D01*
X41182Y251670D01*
X40559Y251933D01*
X39929Y252180D01*
X39293Y252413D01*
X38652Y252630D01*
X38006Y252831D01*
X37356Y253017D01*
X36701Y253186D01*
X36042Y253340D01*
X35380Y253478D01*
X34714Y253600D01*
X34046Y253706D01*
X33375Y253796D01*
X32702Y253869D01*
X32028Y253926D01*
X31353Y253967D01*
X30677Y253992D01*
X30000Y254000D01*
X28000Y254000D01*
X27323Y253992D01*
X26647Y253967D01*
X25972Y253926D01*
X25298Y253869D01*
X24625Y253796D01*
X23954Y253706D01*
X23286Y253600D01*
X22620Y253478D01*
X21958Y253340D01*
X21299Y253186D01*
X20644Y253017D01*
X19994Y252831D01*
X19348Y252630D01*
X18707Y252413D01*
X18071Y252180D01*
X17441Y251933D01*
X16818Y251670D01*
X16201Y251392D01*
X15591Y251100D01*
X14988Y250793D01*
X14392Y250471D01*
X13805Y250135D01*
X13226Y249785D01*
X12656Y249421D01*
X12094Y249044D01*
X11542Y248652D01*
X10999Y248248D01*
X10467Y247831D01*
X9944Y247401D01*
X9433Y246958D01*
X8932Y246504D01*
X8442Y246037D01*
X7963Y245558D01*
X7496Y245068D01*
X7042Y244567D01*
X6599Y244056D01*
X6169Y243533D01*
X5752Y243001D01*
X5348Y242458D01*
X4956Y241906D01*
X4579Y241344D01*
X4215Y240774D01*
X3865Y240195D01*
X3529Y239608D01*
X3207Y239012D01*
X2900Y238409D01*
X2608Y237799D01*
X2330Y237182D01*
X2067Y236559D01*
X1820Y235929D01*
X1587Y235293D01*
X1370Y234652D01*
X1169Y234006D01*
X983Y233356D01*
X814Y232701D01*
X660Y232042D01*
X522Y231380D01*
X400Y230714D01*
X294Y230046D01*
X204Y229375D01*
X131Y228702D01*
X74Y228028D01*
X33Y227353D01*
X8Y226677D01*
X0Y226000D01*
X0Y28000D01*
X8Y27323D01*
X33Y26647D01*
X74Y25972D01*
X131Y25298D01*
X204Y24625D01*
X294Y23954D01*
X400Y23286D01*
X522Y22620D01*
X660Y21958D01*
X814Y21299D01*
X983Y20644D01*
X1169Y19994D01*
X1370Y19348D01*
X1587Y18707D01*
X1820Y18071D01*
X2067Y17441D01*
X2330Y16818D01*
X2608Y16201D01*
X2900Y15591D01*
X3207Y14988D01*
X3529Y14392D01*
X3865Y13805D01*
X4215Y13226D01*
X4579Y12656D01*
X4956Y12094D01*
X5348Y11542D01*
X5752Y10999D01*
X6169Y10467D01*
X6599Y9944D01*
X7042Y9433D01*
X7496Y8932D01*
X7963Y8442D01*
X8442Y7963D01*
X8932Y7496D01*
X9433Y7042D01*
X9944Y6599D01*
X10467Y6169D01*
X10999Y5752D01*
X11542Y5348D01*
X12094Y4956D01*
X12656Y4579D01*
X13226Y4215D01*
X13805Y3865D01*
X14392Y3529D01*
X14988Y3207D01*
X15591Y2900D01*
X16201Y2608D01*
X16818Y2330D01*
X17441Y2067D01*
X18071Y1820D01*
X18707Y1587D01*
X19348Y1370D01*
X19994Y1169D01*
X20644Y983D01*
X21299Y814D01*
X21958Y660D01*
X22620Y522D01*
X23286Y400D01*
X23954Y294D01*
X24625Y204D01*
X25298Y131D01*
X25972Y74D01*
X26647Y33D01*
X27323Y8D01*
X28000Y0D01*
X30000Y0D01*
X30677Y8D01*
X31353Y33D01*
X32028Y74D01*
X32702Y131D01*
X33375Y204D01*
X34046Y294D01*
X34714Y400D01*
X35380Y522D01*
X36042Y660D01*
X36701Y814D01*
X37356Y983D01*
X38006Y1169D01*
X38652Y1370D01*
X39293Y1587D01*
X39929Y1820D01*
X40559Y2067D01*
X41182Y2330D01*
X41799Y2608D01*
X42409Y2900D01*
X43012Y3207D01*
X43608Y3529D01*
X44195Y3865D01*
X44774Y4215D01*
X45344Y4579D01*
X45906Y4956D01*
X46458Y5348D01*
X47001Y5752D01*
X47533Y6169D01*
X48056Y6599D01*
X48567Y7042D01*
X49068Y7496D01*
X49558Y7963D01*
X50037Y8442D01*
X50504Y8932D01*
X50958Y9433D01*
X51401Y9944D01*
X51831Y10467D01*
X52248Y10999D01*
X52652Y11542D01*
X53044Y12094D01*
X53421Y12656D01*
X53785Y13226D01*
X54135Y13805D01*
X54471Y14392D01*
X54793Y14988D01*
X55100Y15591D01*
X55392Y16201D01*
X55670Y16818D01*
X55933Y17441D01*
X56180Y18071D01*
X56413Y18707D01*
X56630Y19348D01*
X56831Y19994D01*
X57017Y20644D01*
X57186Y21299D01*
X57340Y21958D01*
X57478Y22620D01*
X57600Y23286D01*
X57706Y23954D01*
X57796Y24625D01*
X57869Y25298D01*
X57926Y25972D01*
X57967Y26647D01*
X57992Y27323D01*
X58000Y28000D01*
X21000Y227000D02*
X21002Y227196D01*
X21010Y227393D01*
X21022Y227589D01*
X21039Y227784D01*
X21060Y227979D01*
X21087Y228174D01*
X21118Y228368D01*
X21154Y228561D01*
X21194Y228753D01*
X21240Y228944D01*
X21290Y229134D01*
X21344Y229322D01*
X21404Y229509D01*
X21468Y229695D01*
X21536Y229879D01*
X21609Y230061D01*
X21686Y230242D01*
X21768Y230420D01*
X21854Y230597D01*
X21945Y230771D01*
X22039Y230943D01*
X22138Y231113D01*
X22241Y231280D01*
X22348Y231445D01*
X22459Y231606D01*
X22574Y231766D01*
X22693Y231922D01*
X22816Y232075D01*
X22942Y232225D01*
X23072Y232372D01*
X23206Y232516D01*
X23343Y232657D01*
X23484Y232794D01*
X23628Y232928D01*
X23775Y233058D01*
X23925Y233184D01*
X24078Y233307D01*
X24234Y233426D01*
X24394Y233541D01*
X24555Y233652D01*
X24720Y233759D01*
X24887Y233862D01*
X25057Y233961D01*
X25229Y234055D01*
X25403Y234146D01*
X25580Y234232D01*
X25758Y234314D01*
X25939Y234391D01*
X26121Y234464D01*
X26305Y234532D01*
X26491Y234596D01*
X26678Y234656D01*
X26866Y234710D01*
X27056Y234760D01*
X27247Y234806D01*
X27439Y234846D01*
X27632Y234882D01*
X27826Y234913D01*
X28021Y234940D01*
X28216Y234961D01*
X28411Y234978D01*
X28607Y234990D01*
X28804Y234998D01*
X29000Y235000D01*
X29196Y234998D01*
X29393Y234990D01*
X29589Y234978D01*
X29784Y234961D01*
X29979Y234940D01*
X30174Y234913D01*
X30368Y234882D01*
X30561Y234846D01*
X30753Y234806D01*
X30944Y234760D01*
X31134Y234710D01*
X31322Y234656D01*
X31509Y234596D01*
X31695Y234532D01*
X31879Y234464D01*
X32061Y234391D01*
X32242Y234314D01*
X32420Y234232D01*
X32597Y234146D01*
X32771Y234055D01*
X32943Y233961D01*
X33113Y233862D01*
X33280Y233759D01*
X33445Y233652D01*
X33606Y233541D01*
X33766Y233426D01*
X33922Y233307D01*
X34075Y233184D01*
X34225Y233058D01*
X34372Y232928D01*
X34516Y232794D01*
X34657Y232657D01*
X34794Y232516D01*
X34928Y232372D01*
X35058Y232225D01*
X35184Y232075D01*
X35307Y231922D01*
X35426Y231766D01*
X35541Y231606D01*
X35652Y231445D01*
X35759Y231280D01*
X35862Y231113D01*
X35961Y230943D01*
X36055Y230771D01*
X36146Y230597D01*
X36232Y230420D01*
X36314Y230242D01*
X36391Y230061D01*
X36464Y229879D01*
X36532Y229695D01*
X36596Y229509D01*
X36656Y229322D01*
X36710Y229134D01*
X36760Y228944D01*
X36806Y228753D01*
X36846Y228561D01*
X36882Y228368D01*
X36913Y228174D01*
X36940Y227979D01*
X36961Y227784D01*
X36978Y227589D01*
X36990Y227393D01*
X36998Y227196D01*
X37000Y227000D01*
X36998Y226804D01*
X36990Y226607D01*
X36978Y226411D01*
X36961Y226216D01*
X36940Y226021D01*
X36913Y225826D01*
X36882Y225632D01*
X36846Y225439D01*
X36806Y225247D01*
X36760Y225056D01*
X36710Y224866D01*
X36656Y224678D01*
X36596Y224491D01*
X36532Y224305D01*
X36464Y224121D01*
X36391Y223939D01*
X36314Y223758D01*
X36232Y223580D01*
X36146Y223403D01*
X36055Y223229D01*
X35961Y223057D01*
X35862Y222887D01*
X35759Y222720D01*
X35652Y222555D01*
X35541Y222394D01*
X35426Y222234D01*
X35307Y222078D01*
X35184Y221925D01*
X35058Y221775D01*
X34928Y221628D01*
X34794Y221484D01*
X34657Y221343D01*
X34516Y221206D01*
X34372Y221072D01*
X34225Y220942D01*
X34075Y220816D01*
X33922Y220693D01*
X33766Y220574D01*
X33606Y220459D01*
X33445Y220348D01*
X33280Y220241D01*
X33113Y220138D01*
X32943Y220039D01*
X32771Y219945D01*
X32597Y219854D01*
X32420Y219768D01*
X32242Y219686D01*
X32061Y219609D01*
X31879Y219536D01*
X31695Y219468D01*
X31509Y219404D01*
X31322Y219344D01*
X31134Y219290D01*
X30944Y219240D01*
X30753Y219194D01*
X30561Y219154D01*
X30368Y219118D01*
X30174Y219087D01*
X29979Y219060D01*
X29784Y219039D01*
X29589Y219022D01*
X29393Y219010D01*
X29196Y219002D01*
X29000Y219000D01*
X28804Y219002D01*
X28607Y219010D01*
X28411Y219022D01*
X28216Y219039D01*
X28021Y219060D01*
X27826Y219087D01*
X27632Y219118D01*
X27439Y219154D01*
X27247Y219194D01*
X27056Y219240D01*
X26866Y219290D01*
X26678Y219344D01*
X26491Y219404D01*
X26305Y219468D01*
X26121Y219536D01*
X25939Y219609D01*
X25758Y219686D01*
X25580Y219768D01*
X25403Y219854D01*
X25229Y219945D01*
X25057Y220039D01*
X24887Y220138D01*
X24720Y220241D01*
X24555Y220348D01*
X24394Y220459D01*
X24234Y220574D01*
X24078Y220693D01*
X23925Y220816D01*
X23775Y220942D01*
X23628Y221072D01*
X23484Y221206D01*
X23343Y221343D01*
X23206Y221484D01*
X23072Y221628D01*
X22942Y221775D01*
X22816Y221925D01*
X22693Y222078D01*
X22574Y222234D01*
X22459Y222394D01*
X22348Y222555D01*
X22241Y222720D01*
X22138Y222887D01*
X22039Y223057D01*
X21945Y223229D01*
X21854Y223403D01*
X21768Y223580D01*
X21686Y223758D01*
X21609Y223939D01*
X21536Y224121D01*
X21468Y224305D01*
X21404Y224491D01*
X21344Y224678D01*
X21290Y224866D01*
X21240Y225056D01*
X21194Y225247D01*
X21154Y225439D01*
X21118Y225632D01*
X21087Y225826D01*
X21060Y226021D01*
X21039Y226216D01*
X21022Y226411D01*
X21010Y226607D01*
X21002Y226804D01*
X21000Y227000D01*
X21500Y211500D02*
X36500Y211500D01*
X36500Y196500D01*
X21500Y196500D01*
X21500Y211500D01*
D11*
X0Y28000D02*
X107Y25560D01*
X425Y23138D01*
X954Y20753D01*
X1689Y18423D01*
X2623Y16167D01*
X3751Y14000D01*
X5064Y11940D01*
X6551Y10002D01*
X8201Y8201D01*
X10002Y6551D01*
X11940Y5064D01*
X14000Y3751D01*
X16167Y2623D01*
X18423Y1689D01*
X20753Y954D01*
X23138Y425D01*
X25560Y107D01*
X28000Y0D01*
X30000Y0D01*
X32440Y107D01*
X34862Y425D01*
X37247Y954D01*
X39577Y1689D01*
X41833Y2623D01*
X44000Y3751D01*
X46060Y5064D01*
X47998Y6551D01*
X49799Y8201D01*
X51449Y10002D01*
X52936Y11940D01*
X54249Y14000D01*
X55377Y16167D01*
X56311Y18423D01*
X57046Y20753D01*
X57575Y23138D01*
X57893Y25560D01*
X58000Y28000D01*
X58000Y226000D01*
X57893Y228440D01*
X57575Y230862D01*
X57046Y233247D01*
X56311Y235577D01*
X55377Y237833D01*
X54249Y240000D01*
X52936Y242060D01*
X51449Y243998D01*
X49799Y245799D01*
X47998Y247449D01*
X46060Y248936D01*
X44000Y250249D01*
X41833Y251377D01*
X39577Y252311D01*
X37247Y253046D01*
X34862Y253575D01*
X32440Y253893D01*
X30000Y254000D01*
X28000Y254000D01*
X25560Y253893D01*
X23138Y253575D01*
X20753Y253046D01*
X18423Y252311D01*
X16167Y251377D01*
X14000Y250249D01*
X11940Y248936D01*
X10002Y247449D01*
X8201Y245799D01*
X6551Y243998D01*
X5064Y242060D01*
X3751Y240000D01*
X2623Y237833D01*
X1689Y235577D01*
X954Y233247D01*
X425Y230862D01*
X107Y228440D01*
X0Y226000D01*
X0Y28000D01*
X21500Y196500D02*
X36500Y196500D01*
X36500Y211500D01*
X21500Y211500D01*
X21500Y196500D01*
X37000Y226607D02*
X36923Y225825D01*
X36770Y225054D01*
X36541Y224302D01*
X36241Y223575D01*
X35870Y222882D01*
X35433Y222229D01*
X34935Y221621D01*
X34379Y221065D01*
X33771Y220567D01*
X33118Y220130D01*
X32425Y219759D01*
X31698Y219459D01*
X30946Y219230D01*
X30175Y219077D01*
X29393Y219000D01*
X28607Y219000D01*
X27825Y219077D01*
X27054Y219230D01*
X26302Y219459D01*
X25575Y219759D01*
X24882Y220130D01*
X24229Y220567D01*
X23621Y221065D01*
X23065Y221621D01*
X22567Y222229D01*
X22130Y222882D01*
X21759Y223575D01*
X21459Y224302D01*
X21230Y225054D01*
X21077Y225825D01*
X21000Y226607D01*
X21000Y227393D01*
X21077Y228175D01*
X21230Y228946D01*
X21459Y229698D01*
X21759Y230425D01*
X22130Y231118D01*
X22567Y231771D01*
X23065Y232379D01*
X23621Y232935D01*
X24229Y233433D01*
X24882Y233870D01*
X25575Y234241D01*
X26302Y234541D01*
X27054Y234770D01*
X27825Y234923D01*
X28607Y235000D01*
X29393Y235000D01*
X30175Y234923D01*
X30946Y234770D01*
X31698Y234541D01*
X32425Y234241D01*
X33118Y233870D01*
X33771Y233433D01*
X34379Y232935D01*
X34935Y232379D01*
X35433Y231771D01*
X35870Y231118D01*
X36241Y230425D01*
X36541Y229698D01*
X36770Y228946D01*
X36923Y228175D01*
X37000Y227393D01*
X37000Y226607D01*
M02*
