G04 EAGLE Gerber RS-274X export*
G75*
%MOMM*%
%FSLAX34Y34*%
%LPD*%
%INSilkscreen Top*%
%IPPOS*%
%AMOC8*
5,1,8,0,0,1.08239X$1,22.5*%
G01*
%ADD10C,0.076200*%
%ADD11C,0.050800*%
%ADD12C,0.100000*%
%ADD13C,0.127000*%
%ADD14C,0.025400*%


D10*
X44777Y173369D02*
X46274Y173369D01*
X46350Y173367D01*
X46425Y173361D01*
X46501Y173352D01*
X46575Y173338D01*
X46649Y173321D01*
X46722Y173300D01*
X46794Y173276D01*
X46864Y173248D01*
X46933Y173216D01*
X47000Y173181D01*
X47066Y173142D01*
X47129Y173101D01*
X47190Y173056D01*
X47249Y173008D01*
X47305Y172957D01*
X47359Y172903D01*
X47410Y172847D01*
X47458Y172788D01*
X47503Y172727D01*
X47544Y172664D01*
X47583Y172598D01*
X47618Y172531D01*
X47650Y172462D01*
X47678Y172392D01*
X47702Y172320D01*
X47723Y172247D01*
X47740Y172173D01*
X47754Y172099D01*
X47763Y172023D01*
X47769Y171948D01*
X47771Y171872D01*
X47772Y171872D02*
X47772Y168128D01*
X47771Y168128D02*
X47769Y168052D01*
X47763Y167977D01*
X47754Y167901D01*
X47740Y167827D01*
X47723Y167753D01*
X47702Y167680D01*
X47678Y167608D01*
X47650Y167538D01*
X47618Y167469D01*
X47583Y167402D01*
X47544Y167336D01*
X47503Y167273D01*
X47458Y167212D01*
X47410Y167153D01*
X47359Y167097D01*
X47305Y167043D01*
X47249Y166992D01*
X47190Y166944D01*
X47129Y166899D01*
X47066Y166858D01*
X47001Y166819D01*
X46933Y166784D01*
X46864Y166752D01*
X46794Y166724D01*
X46722Y166700D01*
X46649Y166679D01*
X46575Y166662D01*
X46501Y166648D01*
X46426Y166639D01*
X46350Y166633D01*
X46274Y166631D01*
X44777Y166631D01*
X42124Y168128D02*
X40253Y166631D01*
X40253Y173369D01*
X42124Y173369D02*
X38381Y173369D01*
X44777Y163369D02*
X46274Y163369D01*
X46350Y163367D01*
X46425Y163361D01*
X46501Y163352D01*
X46575Y163338D01*
X46649Y163321D01*
X46722Y163300D01*
X46794Y163276D01*
X46864Y163248D01*
X46933Y163216D01*
X47000Y163181D01*
X47066Y163142D01*
X47129Y163101D01*
X47190Y163056D01*
X47249Y163008D01*
X47305Y162957D01*
X47359Y162903D01*
X47410Y162847D01*
X47458Y162788D01*
X47503Y162727D01*
X47544Y162664D01*
X47583Y162598D01*
X47618Y162531D01*
X47650Y162462D01*
X47678Y162392D01*
X47702Y162320D01*
X47723Y162247D01*
X47740Y162173D01*
X47754Y162099D01*
X47763Y162023D01*
X47769Y161948D01*
X47771Y161872D01*
X47772Y161872D02*
X47772Y158128D01*
X47771Y158128D02*
X47769Y158052D01*
X47763Y157977D01*
X47754Y157901D01*
X47740Y157827D01*
X47723Y157753D01*
X47702Y157680D01*
X47678Y157608D01*
X47650Y157538D01*
X47618Y157469D01*
X47583Y157402D01*
X47544Y157336D01*
X47503Y157273D01*
X47458Y157212D01*
X47410Y157153D01*
X47359Y157097D01*
X47305Y157043D01*
X47249Y156992D01*
X47190Y156944D01*
X47129Y156899D01*
X47066Y156858D01*
X47001Y156819D01*
X46933Y156784D01*
X46864Y156752D01*
X46794Y156724D01*
X46722Y156700D01*
X46649Y156679D01*
X46575Y156662D01*
X46501Y156648D01*
X46426Y156639D01*
X46350Y156633D01*
X46274Y156631D01*
X44777Y156631D01*
X40066Y156631D02*
X39986Y156633D01*
X39906Y156639D01*
X39826Y156648D01*
X39747Y156661D01*
X39669Y156678D01*
X39591Y156699D01*
X39515Y156724D01*
X39440Y156752D01*
X39366Y156783D01*
X39294Y156818D01*
X39224Y156857D01*
X39155Y156898D01*
X39089Y156943D01*
X39024Y156992D01*
X38963Y157043D01*
X38903Y157097D01*
X38847Y157153D01*
X38793Y157213D01*
X38742Y157274D01*
X38693Y157339D01*
X38648Y157405D01*
X38607Y157474D01*
X38568Y157544D01*
X38533Y157616D01*
X38502Y157690D01*
X38474Y157765D01*
X38449Y157841D01*
X38428Y157919D01*
X38411Y157997D01*
X38398Y158076D01*
X38389Y158156D01*
X38383Y158236D01*
X38381Y158316D01*
X40066Y156631D02*
X40157Y156633D01*
X40247Y156639D01*
X40337Y156648D01*
X40427Y156661D01*
X40516Y156678D01*
X40605Y156699D01*
X40692Y156724D01*
X40778Y156752D01*
X40863Y156783D01*
X40947Y156818D01*
X41029Y156857D01*
X41109Y156899D01*
X41188Y156944D01*
X41264Y156993D01*
X41339Y157045D01*
X41411Y157100D01*
X41481Y157158D01*
X41548Y157218D01*
X41613Y157282D01*
X41675Y157348D01*
X41734Y157417D01*
X41791Y157488D01*
X41844Y157561D01*
X41894Y157637D01*
X41941Y157715D01*
X41985Y157794D01*
X42025Y157875D01*
X42062Y157958D01*
X42095Y158043D01*
X42125Y158128D01*
X38942Y159626D02*
X38885Y159569D01*
X38830Y159509D01*
X38777Y159446D01*
X38728Y159382D01*
X38682Y159315D01*
X38638Y159246D01*
X38598Y159175D01*
X38561Y159103D01*
X38527Y159029D01*
X38497Y158953D01*
X38470Y158876D01*
X38447Y158798D01*
X38427Y158719D01*
X38410Y158640D01*
X38397Y158559D01*
X38388Y158479D01*
X38383Y158397D01*
X38381Y158316D01*
X38943Y159626D02*
X42124Y163369D01*
X38381Y163369D01*
X44777Y153369D02*
X46274Y153369D01*
X46350Y153367D01*
X46425Y153361D01*
X46501Y153352D01*
X46575Y153338D01*
X46649Y153321D01*
X46722Y153300D01*
X46794Y153276D01*
X46864Y153248D01*
X46933Y153216D01*
X47000Y153181D01*
X47066Y153142D01*
X47129Y153101D01*
X47190Y153056D01*
X47249Y153008D01*
X47305Y152957D01*
X47359Y152903D01*
X47410Y152847D01*
X47458Y152788D01*
X47503Y152727D01*
X47544Y152664D01*
X47583Y152598D01*
X47618Y152531D01*
X47650Y152462D01*
X47678Y152392D01*
X47702Y152320D01*
X47723Y152247D01*
X47740Y152173D01*
X47754Y152099D01*
X47763Y152023D01*
X47769Y151948D01*
X47771Y151872D01*
X47772Y151872D02*
X47772Y148128D01*
X47771Y148128D02*
X47769Y148052D01*
X47763Y147977D01*
X47754Y147901D01*
X47740Y147827D01*
X47723Y147753D01*
X47702Y147680D01*
X47678Y147608D01*
X47650Y147538D01*
X47618Y147469D01*
X47583Y147402D01*
X47544Y147336D01*
X47503Y147273D01*
X47458Y147212D01*
X47410Y147153D01*
X47359Y147097D01*
X47305Y147043D01*
X47249Y146992D01*
X47190Y146944D01*
X47129Y146899D01*
X47066Y146858D01*
X47001Y146819D01*
X46933Y146784D01*
X46864Y146752D01*
X46794Y146724D01*
X46722Y146700D01*
X46649Y146679D01*
X46575Y146662D01*
X46501Y146648D01*
X46426Y146639D01*
X46350Y146633D01*
X46274Y146631D01*
X44777Y146631D01*
X42124Y153369D02*
X40253Y153369D01*
X40168Y153367D01*
X40083Y153361D01*
X39998Y153352D01*
X39914Y153338D01*
X39831Y153321D01*
X39748Y153300D01*
X39666Y153275D01*
X39586Y153246D01*
X39507Y153214D01*
X39430Y153178D01*
X39354Y153139D01*
X39280Y153096D01*
X39209Y153051D01*
X39139Y153001D01*
X39072Y152949D01*
X39007Y152894D01*
X38944Y152836D01*
X38885Y152775D01*
X38828Y152711D01*
X38774Y152645D01*
X38724Y152577D01*
X38676Y152506D01*
X38632Y152433D01*
X38591Y152358D01*
X38553Y152282D01*
X38519Y152204D01*
X38489Y152124D01*
X38462Y152043D01*
X38439Y151961D01*
X38420Y151878D01*
X38405Y151794D01*
X38393Y151710D01*
X38385Y151625D01*
X38381Y151540D01*
X38381Y151454D01*
X38385Y151369D01*
X38393Y151284D01*
X38405Y151200D01*
X38420Y151116D01*
X38439Y151033D01*
X38462Y150951D01*
X38489Y150870D01*
X38519Y150790D01*
X38553Y150712D01*
X38591Y150636D01*
X38632Y150561D01*
X38676Y150488D01*
X38724Y150417D01*
X38774Y150349D01*
X38828Y150283D01*
X38885Y150219D01*
X38944Y150158D01*
X39007Y150100D01*
X39072Y150045D01*
X39139Y149993D01*
X39209Y149943D01*
X39280Y149898D01*
X39354Y149855D01*
X39430Y149816D01*
X39507Y149780D01*
X39586Y149748D01*
X39666Y149719D01*
X39748Y149694D01*
X39831Y149673D01*
X39914Y149656D01*
X39998Y149642D01*
X40083Y149633D01*
X40168Y149627D01*
X40253Y149625D01*
X39878Y146631D02*
X42124Y146631D01*
X39878Y146631D02*
X39802Y146633D01*
X39727Y146639D01*
X39651Y146648D01*
X39577Y146662D01*
X39503Y146679D01*
X39430Y146700D01*
X39358Y146724D01*
X39288Y146752D01*
X39219Y146784D01*
X39152Y146819D01*
X39086Y146858D01*
X39023Y146899D01*
X38962Y146944D01*
X38903Y146992D01*
X38847Y147043D01*
X38793Y147097D01*
X38742Y147153D01*
X38694Y147212D01*
X38649Y147273D01*
X38608Y147336D01*
X38569Y147402D01*
X38534Y147469D01*
X38502Y147538D01*
X38474Y147608D01*
X38450Y147680D01*
X38429Y147753D01*
X38412Y147827D01*
X38398Y147901D01*
X38389Y147977D01*
X38383Y148052D01*
X38381Y148128D01*
X38383Y148204D01*
X38389Y148279D01*
X38398Y148355D01*
X38412Y148429D01*
X38429Y148503D01*
X38450Y148576D01*
X38474Y148648D01*
X38502Y148718D01*
X38534Y148787D01*
X38569Y148854D01*
X38608Y148920D01*
X38649Y148983D01*
X38694Y149044D01*
X38742Y149103D01*
X38793Y149159D01*
X38847Y149213D01*
X38903Y149264D01*
X38962Y149312D01*
X39023Y149357D01*
X39086Y149398D01*
X39152Y149437D01*
X39219Y149472D01*
X39288Y149504D01*
X39358Y149532D01*
X39430Y149556D01*
X39503Y149577D01*
X39577Y149594D01*
X39651Y149608D01*
X39727Y149617D01*
X39802Y149623D01*
X39878Y149625D01*
X39878Y149626D02*
X41376Y149626D01*
X13150Y91619D02*
X13150Y84881D01*
X15022Y84881D02*
X11278Y84881D01*
X8722Y86378D02*
X6850Y84881D01*
X6850Y91619D01*
X8722Y91619D02*
X4978Y91619D01*
X54359Y123881D02*
X54359Y128747D01*
X54360Y128747D02*
X54358Y128832D01*
X54352Y128917D01*
X54343Y129002D01*
X54329Y129086D01*
X54312Y129169D01*
X54291Y129252D01*
X54266Y129334D01*
X54237Y129414D01*
X54205Y129493D01*
X54169Y129570D01*
X54130Y129646D01*
X54087Y129720D01*
X54042Y129791D01*
X53992Y129861D01*
X53940Y129928D01*
X53885Y129993D01*
X53827Y130056D01*
X53766Y130115D01*
X53702Y130172D01*
X53636Y130226D01*
X53568Y130276D01*
X53497Y130324D01*
X53424Y130368D01*
X53349Y130409D01*
X53273Y130447D01*
X53195Y130481D01*
X53115Y130511D01*
X53034Y130538D01*
X52952Y130561D01*
X52869Y130580D01*
X52785Y130595D01*
X52701Y130607D01*
X52616Y130615D01*
X52531Y130619D01*
X52445Y130619D01*
X52360Y130615D01*
X52275Y130607D01*
X52191Y130595D01*
X52107Y130580D01*
X52024Y130561D01*
X51942Y130538D01*
X51861Y130511D01*
X51781Y130481D01*
X51703Y130447D01*
X51627Y130409D01*
X51552Y130368D01*
X51479Y130324D01*
X51408Y130276D01*
X51340Y130226D01*
X51274Y130172D01*
X51210Y130115D01*
X51149Y130056D01*
X51091Y129993D01*
X51036Y129928D01*
X50984Y129861D01*
X50934Y129791D01*
X50889Y129720D01*
X50846Y129646D01*
X50807Y129570D01*
X50771Y129493D01*
X50739Y129414D01*
X50710Y129334D01*
X50685Y129252D01*
X50664Y129169D01*
X50647Y129086D01*
X50633Y129002D01*
X50624Y128917D01*
X50618Y128832D01*
X50616Y128747D01*
X50616Y123881D01*
X47384Y125378D02*
X45513Y123881D01*
X45513Y130619D01*
X47384Y130619D02*
X43641Y130619D01*
D11*
X47526Y84026D02*
X48746Y82500D01*
X43254Y82500D01*
X43254Y84026D02*
X43254Y80974D01*
X47526Y27026D02*
X48746Y25500D01*
X43254Y25500D01*
X43254Y27026D02*
X43254Y23974D01*
D12*
X41000Y79500D02*
X17000Y79500D01*
X17000Y41500D02*
X41000Y41500D01*
X41000Y22500D02*
X17000Y22500D01*
X17000Y111500D02*
X41000Y111500D01*
X41000Y142500D02*
X17000Y142500D01*
D11*
X9754Y133000D02*
X10974Y131474D01*
X9754Y133000D02*
X15246Y133000D01*
X15246Y131474D02*
X15246Y134526D01*
D13*
X39177Y239635D02*
X39177Y246365D01*
X36934Y243374D02*
X39177Y239635D01*
X36934Y243374D02*
X34691Y239635D01*
X34691Y246365D01*
X30622Y246365D02*
X27631Y246365D01*
X30622Y246365D02*
X30622Y239635D01*
X27631Y239635D01*
X28379Y242626D02*
X30622Y242626D01*
X24805Y239635D02*
X23310Y246365D01*
X21814Y241878D01*
X20318Y246365D01*
X18823Y239635D01*
D10*
X47154Y62619D02*
X47154Y58381D01*
X45977Y58381D01*
X45910Y58383D01*
X45843Y58389D01*
X45776Y58398D01*
X45710Y58412D01*
X45645Y58429D01*
X45581Y58449D01*
X45519Y58474D01*
X45458Y58502D01*
X45398Y58533D01*
X45341Y58568D01*
X45285Y58606D01*
X45232Y58647D01*
X45181Y58691D01*
X45133Y58738D01*
X45087Y58787D01*
X45045Y58839D01*
X45005Y58894D01*
X44969Y58950D01*
X44936Y59009D01*
X44906Y59069D01*
X44880Y59131D01*
X44858Y59194D01*
X44839Y59259D01*
X44823Y59324D01*
X44812Y59390D01*
X44804Y59457D01*
X44800Y59524D01*
X44800Y59592D01*
X44804Y59659D01*
X44812Y59726D01*
X44823Y59792D01*
X44839Y59857D01*
X44858Y59922D01*
X44880Y59985D01*
X44906Y60047D01*
X44936Y60107D01*
X44969Y60166D01*
X45005Y60222D01*
X45045Y60277D01*
X45087Y60329D01*
X45133Y60378D01*
X45181Y60425D01*
X45232Y60469D01*
X45285Y60510D01*
X45341Y60548D01*
X45398Y60583D01*
X45458Y60614D01*
X45519Y60642D01*
X45581Y60667D01*
X45645Y60687D01*
X45710Y60704D01*
X45776Y60718D01*
X45843Y60727D01*
X45910Y60733D01*
X45977Y60735D01*
X47154Y60735D01*
X42738Y62619D02*
X42738Y58381D01*
X42738Y62619D02*
X40854Y62619D01*
X39236Y62619D02*
X37823Y58381D01*
X36411Y62619D01*
X36764Y61560D02*
X38883Y61560D01*
X33578Y62619D02*
X32636Y62619D01*
X33578Y62619D02*
X33637Y62617D01*
X33696Y62612D01*
X33755Y62602D01*
X33812Y62589D01*
X33869Y62573D01*
X33925Y62553D01*
X33979Y62529D01*
X34032Y62502D01*
X34083Y62472D01*
X34132Y62439D01*
X34178Y62403D01*
X34223Y62364D01*
X34265Y62322D01*
X34304Y62277D01*
X34340Y62231D01*
X34373Y62182D01*
X34403Y62131D01*
X34430Y62078D01*
X34454Y62024D01*
X34474Y61968D01*
X34490Y61911D01*
X34503Y61854D01*
X34513Y61795D01*
X34518Y61736D01*
X34520Y61677D01*
X34520Y59323D01*
X34518Y59264D01*
X34513Y59205D01*
X34503Y59146D01*
X34490Y59089D01*
X34474Y59032D01*
X34454Y58976D01*
X34430Y58922D01*
X34403Y58869D01*
X34373Y58818D01*
X34340Y58769D01*
X34304Y58723D01*
X34265Y58678D01*
X34223Y58636D01*
X34178Y58597D01*
X34132Y58561D01*
X34083Y58528D01*
X34032Y58498D01*
X33979Y58471D01*
X33925Y58447D01*
X33869Y58427D01*
X33812Y58411D01*
X33755Y58398D01*
X33696Y58388D01*
X33637Y58383D01*
X33578Y58381D01*
X32636Y58381D01*
X30588Y62619D02*
X28704Y62619D01*
X30588Y62619D02*
X30588Y58381D01*
X28704Y58381D01*
X29175Y60265D02*
X30588Y60265D01*
X23573Y58381D02*
X23573Y62619D01*
X24751Y58381D02*
X22396Y58381D01*
X20401Y58381D02*
X20401Y62619D01*
X20401Y60265D02*
X18046Y60265D01*
X18046Y58381D02*
X18046Y62619D01*
X15473Y62619D02*
X15473Y58381D01*
X15003Y62619D02*
X15944Y62619D01*
X15944Y58381D02*
X15003Y58381D01*
X10846Y61677D02*
X10848Y61736D01*
X10853Y61795D01*
X10863Y61854D01*
X10876Y61911D01*
X10892Y61968D01*
X10912Y62024D01*
X10936Y62078D01*
X10963Y62131D01*
X10993Y62182D01*
X11026Y62231D01*
X11062Y62277D01*
X11101Y62322D01*
X11143Y62364D01*
X11188Y62403D01*
X11234Y62439D01*
X11283Y62472D01*
X11334Y62502D01*
X11387Y62529D01*
X11441Y62553D01*
X11497Y62573D01*
X11554Y62589D01*
X11612Y62602D01*
X11670Y62612D01*
X11729Y62617D01*
X11788Y62619D01*
X11875Y62617D01*
X11962Y62611D01*
X12049Y62602D01*
X12135Y62588D01*
X12221Y62571D01*
X12306Y62550D01*
X12389Y62526D01*
X12472Y62498D01*
X12553Y62466D01*
X12633Y62431D01*
X12711Y62392D01*
X12788Y62350D01*
X12862Y62304D01*
X12935Y62255D01*
X13005Y62204D01*
X13073Y62149D01*
X13138Y62091D01*
X13201Y62030D01*
X13083Y59323D02*
X13081Y59264D01*
X13076Y59205D01*
X13066Y59146D01*
X13053Y59089D01*
X13037Y59032D01*
X13017Y58976D01*
X12993Y58922D01*
X12966Y58869D01*
X12936Y58818D01*
X12903Y58769D01*
X12867Y58723D01*
X12828Y58678D01*
X12786Y58636D01*
X12741Y58597D01*
X12695Y58561D01*
X12646Y58528D01*
X12595Y58498D01*
X12542Y58471D01*
X12488Y58447D01*
X12432Y58427D01*
X12375Y58411D01*
X12318Y58398D01*
X12259Y58388D01*
X12200Y58383D01*
X12141Y58381D01*
X12060Y58383D01*
X11979Y58388D01*
X11898Y58398D01*
X11818Y58411D01*
X11739Y58427D01*
X11660Y58448D01*
X11583Y58472D01*
X11506Y58499D01*
X11431Y58530D01*
X11357Y58564D01*
X11286Y58602D01*
X11215Y58643D01*
X11147Y58687D01*
X11081Y58734D01*
X12612Y60147D02*
X12661Y60116D01*
X12709Y60082D01*
X12754Y60045D01*
X12797Y60005D01*
X12837Y59963D01*
X12875Y59919D01*
X12910Y59872D01*
X12942Y59823D01*
X12971Y59772D01*
X12997Y59720D01*
X13019Y59666D01*
X13039Y59611D01*
X13055Y59554D01*
X13067Y59497D01*
X13076Y59440D01*
X13081Y59381D01*
X13083Y59323D01*
X11318Y60853D02*
X11268Y60885D01*
X11221Y60919D01*
X11176Y60956D01*
X11133Y60995D01*
X11092Y61037D01*
X11055Y61082D01*
X11020Y61129D01*
X10988Y61178D01*
X10959Y61228D01*
X10933Y61281D01*
X10910Y61334D01*
X10891Y61390D01*
X10875Y61446D01*
X10863Y61503D01*
X10854Y61561D01*
X10849Y61619D01*
X10847Y61677D01*
X11317Y60853D02*
X12612Y60147D01*
X44472Y69177D02*
X44474Y69236D01*
X44479Y69295D01*
X44489Y69354D01*
X44502Y69411D01*
X44518Y69468D01*
X44538Y69524D01*
X44562Y69578D01*
X44589Y69631D01*
X44619Y69682D01*
X44652Y69731D01*
X44688Y69777D01*
X44727Y69822D01*
X44769Y69864D01*
X44814Y69903D01*
X44860Y69939D01*
X44909Y69972D01*
X44960Y70002D01*
X45013Y70029D01*
X45067Y70053D01*
X45123Y70073D01*
X45180Y70089D01*
X45238Y70102D01*
X45296Y70112D01*
X45355Y70117D01*
X45414Y70119D01*
X45501Y70117D01*
X45588Y70111D01*
X45675Y70102D01*
X45761Y70088D01*
X45847Y70071D01*
X45932Y70050D01*
X46015Y70026D01*
X46098Y69998D01*
X46179Y69966D01*
X46259Y69931D01*
X46337Y69892D01*
X46414Y69850D01*
X46488Y69804D01*
X46561Y69755D01*
X46631Y69704D01*
X46699Y69649D01*
X46764Y69591D01*
X46827Y69530D01*
X46710Y66823D02*
X46708Y66764D01*
X46703Y66705D01*
X46693Y66646D01*
X46680Y66589D01*
X46664Y66532D01*
X46644Y66476D01*
X46620Y66422D01*
X46593Y66369D01*
X46563Y66318D01*
X46530Y66269D01*
X46494Y66223D01*
X46455Y66178D01*
X46413Y66136D01*
X46368Y66097D01*
X46322Y66061D01*
X46273Y66028D01*
X46222Y65998D01*
X46169Y65971D01*
X46115Y65947D01*
X46059Y65927D01*
X46002Y65911D01*
X45945Y65898D01*
X45886Y65888D01*
X45827Y65883D01*
X45768Y65881D01*
X45687Y65883D01*
X45606Y65888D01*
X45525Y65898D01*
X45445Y65911D01*
X45366Y65927D01*
X45287Y65948D01*
X45210Y65972D01*
X45133Y65999D01*
X45058Y66030D01*
X44984Y66064D01*
X44913Y66102D01*
X44842Y66143D01*
X44774Y66187D01*
X44708Y66234D01*
X46239Y67647D02*
X46288Y67616D01*
X46336Y67582D01*
X46381Y67545D01*
X46424Y67505D01*
X46464Y67463D01*
X46502Y67419D01*
X46537Y67372D01*
X46569Y67323D01*
X46598Y67272D01*
X46624Y67220D01*
X46646Y67166D01*
X46666Y67111D01*
X46682Y67054D01*
X46694Y66997D01*
X46703Y66940D01*
X46708Y66881D01*
X46710Y66823D01*
X44944Y68353D02*
X44894Y68385D01*
X44847Y68419D01*
X44802Y68456D01*
X44759Y68495D01*
X44718Y68537D01*
X44681Y68582D01*
X44646Y68629D01*
X44614Y68678D01*
X44585Y68728D01*
X44559Y68781D01*
X44536Y68834D01*
X44517Y68890D01*
X44501Y68946D01*
X44489Y69003D01*
X44480Y69061D01*
X44475Y69119D01*
X44473Y69177D01*
X44944Y68353D02*
X46239Y67647D01*
X42200Y65881D02*
X42200Y70119D01*
X42671Y70119D02*
X41729Y70119D01*
X41729Y65881D02*
X42671Y65881D01*
X39627Y65881D02*
X39627Y70119D01*
X39627Y65881D02*
X38450Y65881D01*
X38384Y65883D01*
X38318Y65888D01*
X38253Y65898D01*
X38188Y65911D01*
X38124Y65927D01*
X38061Y65947D01*
X38000Y65971D01*
X37939Y65998D01*
X37881Y66028D01*
X37824Y66061D01*
X37769Y66098D01*
X37716Y66138D01*
X37666Y66180D01*
X37618Y66226D01*
X37572Y66274D01*
X37530Y66324D01*
X37490Y66377D01*
X37453Y66432D01*
X37420Y66489D01*
X37390Y66547D01*
X37363Y66608D01*
X37339Y66669D01*
X37319Y66732D01*
X37303Y66796D01*
X37290Y66861D01*
X37280Y66926D01*
X37275Y66992D01*
X37273Y67058D01*
X37273Y68942D01*
X37275Y69008D01*
X37280Y69074D01*
X37290Y69139D01*
X37303Y69204D01*
X37319Y69268D01*
X37339Y69331D01*
X37363Y69392D01*
X37390Y69453D01*
X37420Y69511D01*
X37453Y69568D01*
X37490Y69623D01*
X37530Y69676D01*
X37572Y69726D01*
X37618Y69774D01*
X37666Y69820D01*
X37716Y69862D01*
X37769Y69902D01*
X37824Y69939D01*
X37881Y69972D01*
X37939Y70002D01*
X38000Y70029D01*
X38061Y70053D01*
X38124Y70073D01*
X38188Y70089D01*
X38253Y70102D01*
X38318Y70112D01*
X38384Y70117D01*
X38450Y70119D01*
X39627Y70119D01*
X34814Y70119D02*
X32931Y70119D01*
X34814Y70119D02*
X34814Y65881D01*
X32931Y65881D01*
X33402Y67765D02*
X34814Y67765D01*
X28527Y65881D02*
X28527Y70119D01*
X28527Y65881D02*
X27350Y65881D01*
X27284Y65883D01*
X27218Y65888D01*
X27153Y65898D01*
X27088Y65911D01*
X27024Y65927D01*
X26961Y65947D01*
X26900Y65971D01*
X26839Y65998D01*
X26781Y66028D01*
X26724Y66061D01*
X26669Y66098D01*
X26616Y66138D01*
X26566Y66180D01*
X26518Y66226D01*
X26472Y66274D01*
X26430Y66324D01*
X26390Y66377D01*
X26353Y66432D01*
X26320Y66489D01*
X26290Y66547D01*
X26263Y66608D01*
X26239Y66669D01*
X26219Y66732D01*
X26203Y66796D01*
X26190Y66861D01*
X26180Y66926D01*
X26175Y66992D01*
X26173Y67058D01*
X26173Y68942D01*
X26175Y69008D01*
X26180Y69074D01*
X26190Y69139D01*
X26203Y69204D01*
X26219Y69268D01*
X26239Y69331D01*
X26263Y69392D01*
X26290Y69453D01*
X26320Y69511D01*
X26353Y69568D01*
X26390Y69623D01*
X26430Y69676D01*
X26472Y69726D01*
X26518Y69774D01*
X26566Y69820D01*
X26616Y69862D01*
X26669Y69902D01*
X26724Y69939D01*
X26781Y69972D01*
X26839Y70002D01*
X26900Y70029D01*
X26961Y70053D01*
X27024Y70073D01*
X27088Y70089D01*
X27153Y70102D01*
X27218Y70112D01*
X27284Y70117D01*
X27350Y70119D01*
X28527Y70119D01*
X23877Y68942D02*
X23877Y67058D01*
X23875Y66991D01*
X23869Y66924D01*
X23860Y66857D01*
X23846Y66791D01*
X23829Y66726D01*
X23809Y66662D01*
X23784Y66600D01*
X23756Y66539D01*
X23725Y66479D01*
X23690Y66422D01*
X23652Y66366D01*
X23611Y66313D01*
X23567Y66262D01*
X23520Y66214D01*
X23471Y66168D01*
X23419Y66126D01*
X23364Y66086D01*
X23308Y66050D01*
X23249Y66017D01*
X23189Y65987D01*
X23127Y65961D01*
X23064Y65939D01*
X22999Y65920D01*
X22934Y65904D01*
X22868Y65893D01*
X22801Y65885D01*
X22734Y65881D01*
X22666Y65881D01*
X22599Y65885D01*
X22532Y65893D01*
X22466Y65904D01*
X22401Y65920D01*
X22336Y65939D01*
X22273Y65961D01*
X22211Y65987D01*
X22151Y66017D01*
X22092Y66050D01*
X22036Y66086D01*
X21981Y66126D01*
X21929Y66168D01*
X21880Y66214D01*
X21833Y66262D01*
X21789Y66313D01*
X21748Y66366D01*
X21710Y66422D01*
X21675Y66479D01*
X21644Y66539D01*
X21616Y66600D01*
X21591Y66662D01*
X21571Y66726D01*
X21554Y66791D01*
X21540Y66857D01*
X21531Y66924D01*
X21525Y66991D01*
X21523Y67058D01*
X21523Y68942D01*
X21525Y69009D01*
X21531Y69076D01*
X21540Y69143D01*
X21554Y69209D01*
X21571Y69274D01*
X21591Y69338D01*
X21616Y69400D01*
X21644Y69461D01*
X21675Y69521D01*
X21710Y69578D01*
X21748Y69634D01*
X21789Y69687D01*
X21833Y69738D01*
X21880Y69786D01*
X21929Y69832D01*
X21981Y69874D01*
X22036Y69914D01*
X22092Y69950D01*
X22151Y69983D01*
X22211Y70013D01*
X22273Y70039D01*
X22336Y70061D01*
X22401Y70080D01*
X22466Y70096D01*
X22532Y70107D01*
X22599Y70115D01*
X22666Y70119D01*
X22734Y70119D01*
X22801Y70115D01*
X22868Y70107D01*
X22934Y70096D01*
X22999Y70080D01*
X23064Y70061D01*
X23127Y70039D01*
X23189Y70013D01*
X23249Y69983D01*
X23308Y69950D01*
X23364Y69914D01*
X23419Y69874D01*
X23471Y69832D01*
X23520Y69786D01*
X23567Y69738D01*
X23611Y69687D01*
X23652Y69634D01*
X23690Y69578D01*
X23725Y69521D01*
X23756Y69461D01*
X23784Y69400D01*
X23809Y69338D01*
X23829Y69274D01*
X23846Y69209D01*
X23860Y69143D01*
X23869Y69076D01*
X23875Y69009D01*
X23877Y68942D01*
X19484Y65881D02*
X18542Y70119D01*
X17600Y67294D01*
X16658Y70119D01*
X15716Y65881D01*
X13527Y65881D02*
X13527Y70119D01*
X11173Y70119D02*
X13527Y65881D01*
X11173Y65881D02*
X11173Y70119D01*
X50538Y73381D02*
X50538Y77619D01*
X50538Y73381D02*
X48655Y73381D01*
X48655Y75265D02*
X50538Y75265D01*
X47037Y77619D02*
X45624Y73381D01*
X44211Y77619D01*
X44565Y76560D02*
X46684Y76560D01*
X41379Y77619D02*
X40437Y77619D01*
X41379Y77619D02*
X41438Y77617D01*
X41497Y77612D01*
X41556Y77602D01*
X41613Y77589D01*
X41670Y77573D01*
X41726Y77553D01*
X41780Y77529D01*
X41833Y77502D01*
X41884Y77472D01*
X41933Y77439D01*
X41979Y77403D01*
X42024Y77364D01*
X42066Y77322D01*
X42105Y77277D01*
X42141Y77231D01*
X42174Y77182D01*
X42204Y77131D01*
X42231Y77078D01*
X42255Y77024D01*
X42275Y76968D01*
X42291Y76911D01*
X42304Y76854D01*
X42314Y76795D01*
X42319Y76736D01*
X42321Y76677D01*
X42320Y76677D02*
X42320Y74323D01*
X42321Y74323D02*
X42319Y74264D01*
X42314Y74205D01*
X42304Y74146D01*
X42291Y74089D01*
X42275Y74032D01*
X42255Y73976D01*
X42231Y73922D01*
X42204Y73869D01*
X42174Y73818D01*
X42141Y73769D01*
X42105Y73723D01*
X42066Y73678D01*
X42024Y73636D01*
X41979Y73597D01*
X41933Y73561D01*
X41884Y73528D01*
X41833Y73498D01*
X41780Y73471D01*
X41726Y73447D01*
X41670Y73427D01*
X41613Y73411D01*
X41556Y73398D01*
X41497Y73388D01*
X41438Y73383D01*
X41379Y73381D01*
X40437Y73381D01*
X38274Y73381D02*
X38274Y77619D01*
X38745Y77619D02*
X37803Y77619D01*
X37803Y73381D02*
X38745Y73381D01*
X35701Y73381D02*
X35701Y77619D01*
X33347Y77619D02*
X35701Y73381D01*
X33347Y73381D02*
X33347Y77619D01*
X29253Y75265D02*
X28547Y75265D01*
X28547Y77619D01*
X29960Y77619D01*
X30019Y77617D01*
X30078Y77612D01*
X30137Y77602D01*
X30194Y77589D01*
X30251Y77573D01*
X30307Y77553D01*
X30361Y77529D01*
X30414Y77502D01*
X30465Y77472D01*
X30514Y77439D01*
X30560Y77403D01*
X30605Y77364D01*
X30647Y77322D01*
X30686Y77277D01*
X30722Y77231D01*
X30755Y77182D01*
X30785Y77131D01*
X30812Y77078D01*
X30836Y77024D01*
X30856Y76968D01*
X30872Y76911D01*
X30885Y76854D01*
X30895Y76795D01*
X30900Y76736D01*
X30902Y76677D01*
X30901Y76677D02*
X30901Y74323D01*
X30902Y74323D02*
X30900Y74264D01*
X30895Y74205D01*
X30885Y74146D01*
X30872Y74089D01*
X30856Y74032D01*
X30836Y73976D01*
X30812Y73922D01*
X30785Y73869D01*
X30755Y73818D01*
X30722Y73769D01*
X30686Y73723D01*
X30647Y73678D01*
X30605Y73636D01*
X30560Y73597D01*
X30514Y73561D01*
X30465Y73528D01*
X30414Y73498D01*
X30361Y73471D01*
X30307Y73447D01*
X30251Y73427D01*
X30194Y73411D01*
X30137Y73398D01*
X30078Y73388D01*
X30019Y73383D01*
X29960Y73381D01*
X28547Y73381D01*
X23605Y75265D02*
X22427Y75265D01*
X22360Y75267D01*
X22293Y75273D01*
X22226Y75282D01*
X22160Y75296D01*
X22095Y75313D01*
X22031Y75333D01*
X21969Y75358D01*
X21908Y75386D01*
X21848Y75417D01*
X21791Y75452D01*
X21735Y75490D01*
X21682Y75531D01*
X21631Y75575D01*
X21583Y75622D01*
X21537Y75671D01*
X21495Y75723D01*
X21455Y75778D01*
X21419Y75834D01*
X21386Y75893D01*
X21356Y75953D01*
X21330Y76015D01*
X21308Y76078D01*
X21289Y76143D01*
X21273Y76208D01*
X21262Y76274D01*
X21254Y76341D01*
X21250Y76408D01*
X21250Y76476D01*
X21254Y76543D01*
X21262Y76610D01*
X21273Y76676D01*
X21289Y76741D01*
X21308Y76806D01*
X21330Y76869D01*
X21356Y76931D01*
X21386Y76991D01*
X21419Y77050D01*
X21455Y77106D01*
X21495Y77161D01*
X21537Y77213D01*
X21583Y77262D01*
X21631Y77309D01*
X21682Y77353D01*
X21735Y77394D01*
X21791Y77432D01*
X21848Y77467D01*
X21908Y77498D01*
X21969Y77526D01*
X22031Y77551D01*
X22095Y77571D01*
X22160Y77588D01*
X22226Y77602D01*
X22293Y77611D01*
X22360Y77617D01*
X22427Y77619D01*
X23605Y77619D01*
X23605Y73381D01*
X22427Y73381D01*
X22367Y73383D01*
X22307Y73389D01*
X22247Y73398D01*
X22188Y73412D01*
X22130Y73429D01*
X22073Y73450D01*
X22018Y73474D01*
X21965Y73502D01*
X21913Y73534D01*
X21864Y73568D01*
X21816Y73606D01*
X21772Y73646D01*
X21730Y73690D01*
X21691Y73736D01*
X21654Y73784D01*
X21621Y73835D01*
X21592Y73887D01*
X21566Y73942D01*
X21543Y73998D01*
X21524Y74055D01*
X21509Y74113D01*
X21497Y74173D01*
X21489Y74233D01*
X21485Y74293D01*
X21485Y74353D01*
X21489Y74413D01*
X21497Y74473D01*
X21509Y74533D01*
X21524Y74591D01*
X21543Y74648D01*
X21566Y74704D01*
X21592Y74759D01*
X21621Y74811D01*
X21654Y74862D01*
X21691Y74910D01*
X21730Y74956D01*
X21772Y75000D01*
X21816Y75040D01*
X21864Y75078D01*
X21913Y75112D01*
X21965Y75144D01*
X22018Y75172D01*
X22073Y75196D01*
X22130Y75217D01*
X22188Y75234D01*
X22247Y75248D01*
X22307Y75257D01*
X22367Y75263D01*
X22427Y75265D01*
X19351Y74558D02*
X19351Y76442D01*
X19351Y74558D02*
X19349Y74491D01*
X19343Y74424D01*
X19334Y74357D01*
X19320Y74291D01*
X19303Y74226D01*
X19283Y74162D01*
X19258Y74100D01*
X19230Y74039D01*
X19199Y73979D01*
X19164Y73922D01*
X19126Y73866D01*
X19085Y73813D01*
X19041Y73762D01*
X18994Y73714D01*
X18945Y73668D01*
X18893Y73626D01*
X18838Y73586D01*
X18782Y73550D01*
X18723Y73517D01*
X18663Y73487D01*
X18601Y73461D01*
X18538Y73439D01*
X18473Y73420D01*
X18408Y73404D01*
X18342Y73393D01*
X18275Y73385D01*
X18208Y73381D01*
X18140Y73381D01*
X18073Y73385D01*
X18006Y73393D01*
X17940Y73404D01*
X17875Y73420D01*
X17810Y73439D01*
X17747Y73461D01*
X17685Y73487D01*
X17625Y73517D01*
X17566Y73550D01*
X17510Y73586D01*
X17455Y73626D01*
X17403Y73668D01*
X17354Y73714D01*
X17307Y73762D01*
X17263Y73813D01*
X17222Y73866D01*
X17184Y73922D01*
X17149Y73979D01*
X17118Y74039D01*
X17090Y74100D01*
X17065Y74162D01*
X17045Y74226D01*
X17028Y74291D01*
X17014Y74357D01*
X17005Y74424D01*
X16999Y74491D01*
X16997Y74558D01*
X16997Y76442D01*
X16999Y76509D01*
X17005Y76576D01*
X17014Y76643D01*
X17028Y76709D01*
X17045Y76774D01*
X17065Y76838D01*
X17090Y76900D01*
X17118Y76961D01*
X17149Y77021D01*
X17184Y77078D01*
X17222Y77134D01*
X17263Y77187D01*
X17307Y77238D01*
X17354Y77286D01*
X17403Y77332D01*
X17455Y77374D01*
X17510Y77414D01*
X17566Y77450D01*
X17625Y77483D01*
X17685Y77513D01*
X17747Y77539D01*
X17810Y77561D01*
X17875Y77580D01*
X17940Y77596D01*
X18006Y77607D01*
X18073Y77615D01*
X18140Y77619D01*
X18208Y77619D01*
X18275Y77615D01*
X18342Y77607D01*
X18408Y77596D01*
X18473Y77580D01*
X18538Y77561D01*
X18601Y77539D01*
X18663Y77513D01*
X18723Y77483D01*
X18782Y77450D01*
X18838Y77414D01*
X18893Y77374D01*
X18945Y77332D01*
X18994Y77286D01*
X19041Y77238D01*
X19085Y77187D01*
X19126Y77134D01*
X19164Y77078D01*
X19199Y77021D01*
X19230Y76961D01*
X19258Y76900D01*
X19283Y76838D01*
X19303Y76774D01*
X19320Y76709D01*
X19334Y76643D01*
X19343Y76576D01*
X19349Y76509D01*
X19351Y76442D01*
X14701Y77619D02*
X14701Y73381D01*
X13524Y73381D01*
X13458Y73383D01*
X13392Y73388D01*
X13327Y73398D01*
X13262Y73411D01*
X13198Y73427D01*
X13135Y73447D01*
X13074Y73471D01*
X13013Y73498D01*
X12955Y73528D01*
X12898Y73561D01*
X12843Y73598D01*
X12790Y73638D01*
X12740Y73680D01*
X12692Y73726D01*
X12646Y73774D01*
X12604Y73824D01*
X12564Y73877D01*
X12527Y73932D01*
X12494Y73989D01*
X12464Y74047D01*
X12437Y74108D01*
X12413Y74169D01*
X12393Y74232D01*
X12377Y74296D01*
X12364Y74361D01*
X12354Y74426D01*
X12349Y74492D01*
X12347Y74558D01*
X12347Y76442D01*
X12349Y76508D01*
X12354Y76574D01*
X12364Y76639D01*
X12377Y76704D01*
X12393Y76768D01*
X12413Y76831D01*
X12437Y76892D01*
X12464Y76953D01*
X12494Y77011D01*
X12527Y77068D01*
X12564Y77123D01*
X12604Y77176D01*
X12646Y77226D01*
X12692Y77274D01*
X12740Y77320D01*
X12790Y77362D01*
X12843Y77402D01*
X12898Y77439D01*
X12955Y77472D01*
X13013Y77502D01*
X13074Y77529D01*
X13135Y77553D01*
X13198Y77573D01*
X13262Y77589D01*
X13327Y77602D01*
X13392Y77612D01*
X13458Y77617D01*
X13524Y77619D01*
X14701Y77619D01*
X10287Y73381D02*
X8874Y75382D01*
X7462Y73381D01*
X8874Y75382D02*
X8874Y77619D01*
D12*
X17000Y99500D02*
X41000Y99500D01*
X41000Y56500D02*
X17000Y56500D01*
D10*
X51277Y108869D02*
X52774Y108869D01*
X52850Y108867D01*
X52925Y108861D01*
X53001Y108852D01*
X53075Y108838D01*
X53149Y108821D01*
X53222Y108800D01*
X53294Y108776D01*
X53364Y108748D01*
X53433Y108716D01*
X53500Y108681D01*
X53566Y108642D01*
X53629Y108601D01*
X53690Y108556D01*
X53749Y108508D01*
X53805Y108457D01*
X53859Y108403D01*
X53910Y108347D01*
X53958Y108288D01*
X54003Y108227D01*
X54044Y108164D01*
X54083Y108098D01*
X54118Y108031D01*
X54150Y107962D01*
X54178Y107892D01*
X54202Y107820D01*
X54223Y107747D01*
X54240Y107673D01*
X54254Y107599D01*
X54263Y107523D01*
X54269Y107448D01*
X54271Y107372D01*
X54272Y107372D02*
X54272Y103628D01*
X54271Y103628D02*
X54269Y103552D01*
X54263Y103477D01*
X54254Y103401D01*
X54240Y103327D01*
X54223Y103253D01*
X54202Y103180D01*
X54178Y103108D01*
X54150Y103038D01*
X54118Y102969D01*
X54083Y102902D01*
X54044Y102836D01*
X54003Y102773D01*
X53958Y102712D01*
X53910Y102653D01*
X53859Y102597D01*
X53805Y102543D01*
X53749Y102492D01*
X53690Y102444D01*
X53629Y102399D01*
X53566Y102358D01*
X53501Y102319D01*
X53433Y102284D01*
X53364Y102252D01*
X53294Y102224D01*
X53222Y102200D01*
X53149Y102179D01*
X53075Y102162D01*
X53001Y102148D01*
X52926Y102139D01*
X52850Y102133D01*
X52774Y102131D01*
X51277Y102131D01*
X47127Y102131D02*
X48624Y107372D01*
X44881Y107372D01*
X46004Y108869D02*
X46004Y105874D01*
X50277Y47869D02*
X51774Y47869D01*
X51850Y47867D01*
X51925Y47861D01*
X52001Y47852D01*
X52075Y47838D01*
X52149Y47821D01*
X52222Y47800D01*
X52294Y47776D01*
X52364Y47748D01*
X52433Y47716D01*
X52500Y47681D01*
X52566Y47642D01*
X52629Y47601D01*
X52690Y47556D01*
X52749Y47508D01*
X52805Y47457D01*
X52859Y47403D01*
X52910Y47347D01*
X52958Y47288D01*
X53003Y47227D01*
X53044Y47164D01*
X53083Y47098D01*
X53118Y47031D01*
X53150Y46962D01*
X53178Y46892D01*
X53202Y46820D01*
X53223Y46747D01*
X53240Y46673D01*
X53254Y46599D01*
X53263Y46523D01*
X53269Y46448D01*
X53271Y46372D01*
X53272Y46372D02*
X53272Y42628D01*
X53271Y42628D02*
X53269Y42552D01*
X53263Y42477D01*
X53254Y42401D01*
X53240Y42327D01*
X53223Y42253D01*
X53202Y42180D01*
X53178Y42108D01*
X53150Y42038D01*
X53118Y41969D01*
X53083Y41902D01*
X53044Y41836D01*
X53003Y41773D01*
X52958Y41712D01*
X52910Y41653D01*
X52859Y41597D01*
X52805Y41543D01*
X52749Y41492D01*
X52690Y41444D01*
X52629Y41399D01*
X52566Y41358D01*
X52501Y41319D01*
X52433Y41284D01*
X52364Y41252D01*
X52294Y41224D01*
X52222Y41200D01*
X52149Y41179D01*
X52075Y41162D01*
X52001Y41148D01*
X51926Y41139D01*
X51850Y41133D01*
X51774Y41131D01*
X50277Y41131D01*
X47624Y47869D02*
X45378Y47869D01*
X45302Y47867D01*
X45227Y47861D01*
X45151Y47852D01*
X45077Y47838D01*
X45003Y47821D01*
X44930Y47800D01*
X44858Y47776D01*
X44788Y47748D01*
X44719Y47716D01*
X44652Y47681D01*
X44586Y47642D01*
X44523Y47601D01*
X44462Y47556D01*
X44403Y47508D01*
X44347Y47457D01*
X44293Y47403D01*
X44242Y47347D01*
X44194Y47288D01*
X44149Y47227D01*
X44108Y47164D01*
X44069Y47098D01*
X44034Y47031D01*
X44002Y46962D01*
X43974Y46892D01*
X43950Y46820D01*
X43929Y46747D01*
X43912Y46673D01*
X43898Y46599D01*
X43889Y46523D01*
X43883Y46448D01*
X43881Y46372D01*
X43881Y45623D01*
X43883Y45547D01*
X43889Y45472D01*
X43898Y45396D01*
X43912Y45322D01*
X43929Y45248D01*
X43950Y45175D01*
X43974Y45103D01*
X44002Y45033D01*
X44034Y44964D01*
X44069Y44897D01*
X44108Y44831D01*
X44149Y44768D01*
X44194Y44707D01*
X44242Y44648D01*
X44293Y44592D01*
X44347Y44538D01*
X44403Y44487D01*
X44462Y44439D01*
X44523Y44394D01*
X44586Y44353D01*
X44652Y44314D01*
X44719Y44279D01*
X44788Y44247D01*
X44858Y44219D01*
X44930Y44195D01*
X45003Y44174D01*
X45077Y44157D01*
X45151Y44143D01*
X45227Y44134D01*
X45302Y44128D01*
X45378Y44126D01*
X47624Y44126D01*
X47624Y41131D01*
X43881Y41131D01*
X43274Y189369D02*
X41777Y189369D01*
X43274Y189369D02*
X43350Y189367D01*
X43425Y189361D01*
X43501Y189352D01*
X43575Y189338D01*
X43649Y189321D01*
X43722Y189300D01*
X43794Y189276D01*
X43864Y189248D01*
X43933Y189216D01*
X44000Y189181D01*
X44066Y189142D01*
X44129Y189101D01*
X44190Y189056D01*
X44249Y189008D01*
X44305Y188957D01*
X44359Y188903D01*
X44410Y188847D01*
X44458Y188788D01*
X44503Y188727D01*
X44544Y188664D01*
X44583Y188598D01*
X44618Y188531D01*
X44650Y188462D01*
X44678Y188392D01*
X44702Y188320D01*
X44723Y188247D01*
X44740Y188173D01*
X44754Y188099D01*
X44763Y188023D01*
X44769Y187948D01*
X44771Y187872D01*
X44772Y187872D02*
X44772Y184128D01*
X44771Y184128D02*
X44769Y184052D01*
X44763Y183977D01*
X44754Y183901D01*
X44740Y183827D01*
X44723Y183753D01*
X44702Y183680D01*
X44678Y183608D01*
X44650Y183538D01*
X44618Y183469D01*
X44583Y183402D01*
X44544Y183336D01*
X44503Y183273D01*
X44458Y183212D01*
X44410Y183153D01*
X44359Y183097D01*
X44305Y183043D01*
X44249Y182992D01*
X44190Y182944D01*
X44129Y182899D01*
X44066Y182858D01*
X44001Y182819D01*
X43933Y182784D01*
X43864Y182752D01*
X43794Y182724D01*
X43722Y182700D01*
X43649Y182679D01*
X43575Y182662D01*
X43501Y182648D01*
X43426Y182639D01*
X43350Y182633D01*
X43274Y182631D01*
X41777Y182631D01*
X39124Y182631D02*
X39124Y183380D01*
X39124Y182631D02*
X35381Y182631D01*
X37253Y189369D01*
X48099Y212631D02*
X48099Y219369D01*
X48099Y212631D02*
X46228Y212631D01*
X46144Y212633D01*
X46060Y212639D01*
X45977Y212648D01*
X45894Y212661D01*
X45811Y212678D01*
X45730Y212698D01*
X45650Y212723D01*
X45570Y212750D01*
X45492Y212782D01*
X45416Y212816D01*
X45341Y212855D01*
X45268Y212896D01*
X45197Y212941D01*
X45128Y212989D01*
X45061Y213039D01*
X44996Y213093D01*
X44934Y213150D01*
X44875Y213209D01*
X44818Y213271D01*
X44764Y213336D01*
X44714Y213403D01*
X44666Y213472D01*
X44621Y213543D01*
X44580Y213616D01*
X44541Y213691D01*
X44507Y213767D01*
X44475Y213845D01*
X44448Y213925D01*
X44423Y214005D01*
X44403Y214086D01*
X44386Y214169D01*
X44373Y214252D01*
X44364Y214335D01*
X44358Y214419D01*
X44356Y214503D01*
X44356Y217497D01*
X44358Y217581D01*
X44364Y217665D01*
X44373Y217748D01*
X44386Y217831D01*
X44403Y217914D01*
X44423Y217995D01*
X44448Y218075D01*
X44475Y218155D01*
X44507Y218233D01*
X44541Y218309D01*
X44580Y218384D01*
X44621Y218457D01*
X44666Y218528D01*
X44714Y218597D01*
X44764Y218664D01*
X44818Y218729D01*
X44875Y218791D01*
X44934Y218850D01*
X44996Y218907D01*
X45061Y218961D01*
X45128Y219011D01*
X45197Y219059D01*
X45268Y219104D01*
X45341Y219145D01*
X45416Y219184D01*
X45492Y219218D01*
X45570Y219250D01*
X45650Y219277D01*
X45730Y219302D01*
X45811Y219322D01*
X45894Y219339D01*
X45977Y219352D01*
X46060Y219361D01*
X46144Y219367D01*
X46228Y219369D01*
X48099Y219369D01*
X41124Y214128D02*
X39253Y212631D01*
X39253Y219369D01*
X41124Y219369D02*
X37381Y219369D01*
X13150Y35619D02*
X13150Y28881D01*
X15022Y28881D02*
X11278Y28881D01*
X6663Y28881D02*
X6583Y28883D01*
X6503Y28889D01*
X6423Y28898D01*
X6344Y28911D01*
X6266Y28928D01*
X6188Y28949D01*
X6112Y28974D01*
X6037Y29002D01*
X5963Y29033D01*
X5891Y29068D01*
X5820Y29107D01*
X5752Y29148D01*
X5686Y29193D01*
X5621Y29242D01*
X5560Y29293D01*
X5500Y29347D01*
X5444Y29403D01*
X5390Y29463D01*
X5339Y29524D01*
X5290Y29589D01*
X5245Y29655D01*
X5204Y29724D01*
X5165Y29794D01*
X5130Y29866D01*
X5099Y29940D01*
X5071Y30015D01*
X5046Y30091D01*
X5025Y30169D01*
X5008Y30247D01*
X4995Y30326D01*
X4986Y30406D01*
X4980Y30486D01*
X4978Y30566D01*
X6663Y28881D02*
X6754Y28883D01*
X6844Y28889D01*
X6934Y28898D01*
X7024Y28911D01*
X7113Y28928D01*
X7202Y28949D01*
X7289Y28974D01*
X7375Y29002D01*
X7460Y29033D01*
X7544Y29068D01*
X7626Y29107D01*
X7706Y29149D01*
X7785Y29194D01*
X7861Y29243D01*
X7936Y29295D01*
X8008Y29350D01*
X8078Y29408D01*
X8145Y29468D01*
X8210Y29532D01*
X8272Y29598D01*
X8331Y29667D01*
X8388Y29738D01*
X8441Y29811D01*
X8491Y29887D01*
X8538Y29965D01*
X8582Y30044D01*
X8622Y30125D01*
X8659Y30208D01*
X8692Y30293D01*
X8722Y30378D01*
X5540Y31876D02*
X5483Y31819D01*
X5428Y31759D01*
X5375Y31696D01*
X5326Y31632D01*
X5280Y31565D01*
X5236Y31496D01*
X5196Y31425D01*
X5159Y31353D01*
X5125Y31279D01*
X5095Y31203D01*
X5068Y31126D01*
X5045Y31048D01*
X5025Y30969D01*
X5008Y30890D01*
X4995Y30809D01*
X4986Y30729D01*
X4981Y30647D01*
X4979Y30566D01*
X5540Y31876D02*
X8722Y35619D01*
X4978Y35619D01*
X50277Y56869D02*
X51774Y56869D01*
X51850Y56867D01*
X51925Y56861D01*
X52001Y56852D01*
X52075Y56838D01*
X52149Y56821D01*
X52222Y56800D01*
X52294Y56776D01*
X52364Y56748D01*
X52433Y56716D01*
X52500Y56681D01*
X52566Y56642D01*
X52629Y56601D01*
X52690Y56556D01*
X52749Y56508D01*
X52805Y56457D01*
X52859Y56403D01*
X52910Y56347D01*
X52958Y56288D01*
X53003Y56227D01*
X53044Y56164D01*
X53083Y56098D01*
X53118Y56031D01*
X53150Y55962D01*
X53178Y55892D01*
X53202Y55820D01*
X53223Y55747D01*
X53240Y55673D01*
X53254Y55599D01*
X53263Y55523D01*
X53269Y55448D01*
X53271Y55372D01*
X53272Y55372D02*
X53272Y51628D01*
X53271Y51628D02*
X53269Y51552D01*
X53263Y51477D01*
X53254Y51401D01*
X53240Y51327D01*
X53223Y51253D01*
X53202Y51180D01*
X53178Y51108D01*
X53150Y51038D01*
X53118Y50969D01*
X53083Y50902D01*
X53044Y50836D01*
X53003Y50773D01*
X52958Y50712D01*
X52910Y50653D01*
X52859Y50597D01*
X52805Y50543D01*
X52749Y50492D01*
X52690Y50444D01*
X52629Y50399D01*
X52566Y50358D01*
X52501Y50319D01*
X52433Y50284D01*
X52364Y50252D01*
X52294Y50224D01*
X52222Y50200D01*
X52149Y50179D01*
X52075Y50162D01*
X52001Y50148D01*
X51926Y50139D01*
X51850Y50133D01*
X51774Y50131D01*
X50277Y50131D01*
X47624Y53126D02*
X45378Y53126D01*
X45302Y53128D01*
X45227Y53134D01*
X45151Y53143D01*
X45077Y53157D01*
X45003Y53174D01*
X44930Y53195D01*
X44858Y53219D01*
X44788Y53247D01*
X44719Y53279D01*
X44652Y53314D01*
X44586Y53353D01*
X44523Y53394D01*
X44462Y53439D01*
X44403Y53487D01*
X44347Y53538D01*
X44293Y53592D01*
X44242Y53648D01*
X44194Y53707D01*
X44149Y53768D01*
X44108Y53831D01*
X44069Y53897D01*
X44034Y53964D01*
X44002Y54033D01*
X43974Y54103D01*
X43950Y54175D01*
X43929Y54248D01*
X43912Y54322D01*
X43898Y54396D01*
X43889Y54472D01*
X43883Y54547D01*
X43881Y54623D01*
X43881Y54997D01*
X43883Y55082D01*
X43889Y55167D01*
X43898Y55252D01*
X43912Y55336D01*
X43929Y55419D01*
X43950Y55502D01*
X43975Y55584D01*
X44004Y55664D01*
X44036Y55743D01*
X44072Y55820D01*
X44111Y55896D01*
X44154Y55970D01*
X44199Y56041D01*
X44249Y56111D01*
X44301Y56178D01*
X44356Y56243D01*
X44414Y56306D01*
X44475Y56365D01*
X44539Y56422D01*
X44605Y56476D01*
X44673Y56526D01*
X44744Y56574D01*
X44817Y56618D01*
X44892Y56659D01*
X44968Y56697D01*
X45046Y56731D01*
X45126Y56761D01*
X45207Y56788D01*
X45289Y56811D01*
X45372Y56830D01*
X45456Y56845D01*
X45540Y56857D01*
X45625Y56865D01*
X45710Y56869D01*
X45796Y56869D01*
X45881Y56865D01*
X45966Y56857D01*
X46050Y56845D01*
X46134Y56830D01*
X46217Y56811D01*
X46299Y56788D01*
X46380Y56761D01*
X46460Y56731D01*
X46538Y56697D01*
X46614Y56659D01*
X46689Y56618D01*
X46762Y56574D01*
X46833Y56526D01*
X46901Y56476D01*
X46967Y56422D01*
X47031Y56365D01*
X47092Y56306D01*
X47150Y56243D01*
X47205Y56178D01*
X47257Y56111D01*
X47307Y56041D01*
X47352Y55970D01*
X47395Y55896D01*
X47434Y55820D01*
X47470Y55743D01*
X47502Y55664D01*
X47531Y55584D01*
X47556Y55502D01*
X47577Y55419D01*
X47594Y55336D01*
X47608Y55252D01*
X47617Y55167D01*
X47623Y55082D01*
X47625Y54997D01*
X47624Y54997D02*
X47624Y53126D01*
X47625Y53126D02*
X47623Y53017D01*
X47617Y52907D01*
X47607Y52798D01*
X47593Y52690D01*
X47575Y52582D01*
X47553Y52475D01*
X47528Y52368D01*
X47498Y52263D01*
X47465Y52159D01*
X47427Y52056D01*
X47386Y51955D01*
X47342Y51855D01*
X47294Y51757D01*
X47242Y51660D01*
X47187Y51566D01*
X47128Y51473D01*
X47066Y51383D01*
X47001Y51296D01*
X46932Y51210D01*
X46861Y51127D01*
X46786Y51047D01*
X46709Y50970D01*
X46629Y50895D01*
X46546Y50824D01*
X46460Y50755D01*
X46373Y50690D01*
X46283Y50628D01*
X46190Y50570D01*
X46096Y50514D01*
X45999Y50462D01*
X45901Y50414D01*
X45801Y50370D01*
X45700Y50329D01*
X45597Y50291D01*
X45493Y50258D01*
X45388Y50228D01*
X45281Y50203D01*
X45174Y50181D01*
X45066Y50163D01*
X44958Y50149D01*
X44849Y50139D01*
X44739Y50133D01*
X44630Y50131D01*
X18325Y182631D02*
X18325Y189369D01*
X18325Y182631D02*
X16453Y182631D01*
X16368Y182633D01*
X16283Y182639D01*
X16198Y182648D01*
X16114Y182662D01*
X16031Y182679D01*
X15948Y182700D01*
X15866Y182725D01*
X15786Y182754D01*
X15707Y182786D01*
X15630Y182822D01*
X15554Y182861D01*
X15480Y182904D01*
X15409Y182949D01*
X15339Y182999D01*
X15272Y183051D01*
X15207Y183106D01*
X15144Y183164D01*
X15085Y183225D01*
X15028Y183289D01*
X14974Y183355D01*
X14924Y183423D01*
X14876Y183494D01*
X14832Y183567D01*
X14791Y183642D01*
X14753Y183718D01*
X14719Y183796D01*
X14689Y183876D01*
X14662Y183957D01*
X14639Y184039D01*
X14620Y184122D01*
X14605Y184206D01*
X14593Y184290D01*
X14585Y184375D01*
X14581Y184460D01*
X14581Y184546D01*
X14585Y184631D01*
X14593Y184716D01*
X14605Y184800D01*
X14620Y184884D01*
X14639Y184967D01*
X14662Y185049D01*
X14689Y185130D01*
X14719Y185210D01*
X14753Y185288D01*
X14791Y185364D01*
X14832Y185439D01*
X14876Y185512D01*
X14924Y185583D01*
X14974Y185651D01*
X15028Y185717D01*
X15085Y185781D01*
X15144Y185842D01*
X15207Y185900D01*
X15272Y185955D01*
X15339Y186007D01*
X15409Y186057D01*
X15480Y186102D01*
X15554Y186145D01*
X15630Y186184D01*
X15707Y186220D01*
X15786Y186252D01*
X15866Y186281D01*
X15948Y186306D01*
X16031Y186327D01*
X16114Y186344D01*
X16198Y186358D01*
X16283Y186367D01*
X16368Y186373D01*
X16453Y186375D01*
X16453Y186374D02*
X18325Y186374D01*
X16079Y186374D02*
X14582Y189369D01*
X11624Y184128D02*
X9753Y182631D01*
X9753Y189369D01*
X11624Y189369D02*
X7881Y189369D01*
D12*
X7000Y211500D02*
X20500Y211500D01*
X7000Y211500D02*
X7000Y196500D01*
X20500Y196500D01*
D14*
X15873Y176127D02*
X13587Y176127D01*
X13587Y176762D01*
X13589Y176811D01*
X13594Y176859D01*
X13604Y176907D01*
X13617Y176954D01*
X13633Y176999D01*
X13653Y177044D01*
X13676Y177086D01*
X13703Y177127D01*
X13732Y177166D01*
X13764Y177202D01*
X13800Y177236D01*
X13837Y177267D01*
X13877Y177295D01*
X13919Y177320D01*
X13962Y177341D01*
X14007Y177360D01*
X14054Y177374D01*
X14101Y177385D01*
X14149Y177393D01*
X14198Y177397D01*
X14246Y177397D01*
X14295Y177393D01*
X14343Y177385D01*
X14390Y177374D01*
X14437Y177360D01*
X14482Y177341D01*
X14525Y177320D01*
X14567Y177295D01*
X14607Y177267D01*
X14644Y177236D01*
X14680Y177202D01*
X14712Y177166D01*
X14741Y177127D01*
X14768Y177086D01*
X14791Y177044D01*
X14811Y176999D01*
X14827Y176954D01*
X14840Y176907D01*
X14850Y176859D01*
X14855Y176811D01*
X14857Y176762D01*
X14857Y176127D01*
X14857Y176889D02*
X15873Y177397D01*
X14095Y178396D02*
X13587Y179031D01*
X15873Y179031D01*
X15873Y178396D02*
X15873Y179666D01*
X15873Y176127D02*
X13587Y176127D01*
X13587Y176762D01*
X13589Y176811D01*
X13594Y176859D01*
X13604Y176907D01*
X13617Y176954D01*
X13633Y176999D01*
X13653Y177044D01*
X13676Y177086D01*
X13703Y177127D01*
X13732Y177166D01*
X13764Y177202D01*
X13800Y177236D01*
X13837Y177267D01*
X13877Y177295D01*
X13919Y177320D01*
X13962Y177341D01*
X14007Y177360D01*
X14054Y177374D01*
X14101Y177385D01*
X14149Y177393D01*
X14198Y177397D01*
X14246Y177397D01*
X14295Y177393D01*
X14343Y177385D01*
X14390Y177374D01*
X14437Y177360D01*
X14482Y177341D01*
X14525Y177320D01*
X14567Y177295D01*
X14607Y177267D01*
X14644Y177236D01*
X14680Y177202D01*
X14712Y177166D01*
X14741Y177127D01*
X14768Y177086D01*
X14791Y177044D01*
X14811Y176999D01*
X14827Y176954D01*
X14840Y176907D01*
X14850Y176859D01*
X14855Y176811D01*
X14857Y176762D01*
X14857Y176127D01*
X14857Y176889D02*
X15873Y177397D01*
X14095Y178396D02*
X13587Y179031D01*
X15873Y179031D01*
X15873Y178396D02*
X15873Y179666D01*
X38339Y39607D02*
X38847Y39607D01*
X38339Y39607D02*
X38295Y39609D01*
X38251Y39615D01*
X38208Y39624D01*
X38165Y39638D01*
X38124Y39655D01*
X38085Y39675D01*
X38048Y39699D01*
X38012Y39726D01*
X37980Y39756D01*
X37950Y39788D01*
X37923Y39824D01*
X37899Y39861D01*
X37879Y39900D01*
X37862Y39941D01*
X37848Y39984D01*
X37839Y40027D01*
X37833Y40071D01*
X37831Y40115D01*
X37831Y41385D01*
X37833Y41429D01*
X37839Y41473D01*
X37848Y41516D01*
X37862Y41559D01*
X37879Y41600D01*
X37899Y41639D01*
X37923Y41676D01*
X37950Y41712D01*
X37980Y41744D01*
X38012Y41774D01*
X38048Y41801D01*
X38085Y41825D01*
X38124Y41845D01*
X38165Y41862D01*
X38208Y41876D01*
X38251Y41885D01*
X38295Y41891D01*
X38339Y41893D01*
X38847Y41893D01*
X39743Y40877D02*
X40505Y40877D01*
X40549Y40875D01*
X40593Y40869D01*
X40636Y40860D01*
X40679Y40846D01*
X40720Y40829D01*
X40759Y40809D01*
X40796Y40785D01*
X40832Y40758D01*
X40864Y40728D01*
X40894Y40696D01*
X40921Y40660D01*
X40945Y40623D01*
X40965Y40584D01*
X40982Y40543D01*
X40996Y40500D01*
X41005Y40457D01*
X41011Y40413D01*
X41013Y40369D01*
X41013Y40242D01*
X41011Y40193D01*
X41006Y40145D01*
X40996Y40097D01*
X40983Y40050D01*
X40967Y40005D01*
X40947Y39960D01*
X40924Y39918D01*
X40897Y39877D01*
X40868Y39838D01*
X40836Y39802D01*
X40800Y39768D01*
X40763Y39737D01*
X40723Y39709D01*
X40681Y39684D01*
X40638Y39663D01*
X40593Y39644D01*
X40546Y39630D01*
X40499Y39619D01*
X40451Y39611D01*
X40402Y39607D01*
X40354Y39607D01*
X40305Y39611D01*
X40257Y39619D01*
X40210Y39630D01*
X40163Y39644D01*
X40118Y39663D01*
X40075Y39684D01*
X40033Y39709D01*
X39993Y39737D01*
X39956Y39768D01*
X39920Y39802D01*
X39888Y39838D01*
X39859Y39877D01*
X39832Y39918D01*
X39809Y39960D01*
X39789Y40005D01*
X39773Y40050D01*
X39760Y40097D01*
X39750Y40145D01*
X39745Y40193D01*
X39743Y40242D01*
X39743Y40877D01*
X39745Y40938D01*
X39750Y40999D01*
X39760Y41060D01*
X39773Y41120D01*
X39789Y41179D01*
X39809Y41237D01*
X39833Y41294D01*
X39859Y41349D01*
X39890Y41403D01*
X39923Y41454D01*
X39959Y41504D01*
X39999Y41551D01*
X40041Y41595D01*
X40085Y41637D01*
X40132Y41677D01*
X40182Y41713D01*
X40233Y41746D01*
X40287Y41777D01*
X40342Y41803D01*
X40399Y41827D01*
X40457Y41847D01*
X40516Y41863D01*
X40576Y41876D01*
X40637Y41886D01*
X40698Y41891D01*
X40759Y41893D01*
M02*
