G04 EAGLE Gerber RS-274X export*
G75*
%MOMM*%
%FSLAX34Y34*%
%LPD*%
%INSilkscreen Bottom*%
%IPPOS*%
%AMOC8*
5,1,8,0,0,1.08239X$1,22.5*%
G01*
%ADD10C,0.050800*%
%ADD11C,0.100000*%
%ADD12C,0.203200*%
%ADD13C,0.152400*%


D10*
X34175Y243746D02*
X34110Y243744D01*
X34045Y243738D01*
X33980Y243729D01*
X33916Y243716D01*
X33853Y243699D01*
X33791Y243678D01*
X33730Y243654D01*
X33671Y243627D01*
X33614Y243596D01*
X33558Y243561D01*
X33504Y243524D01*
X33453Y243483D01*
X33404Y243440D01*
X33358Y243394D01*
X33315Y243345D01*
X33274Y243294D01*
X33237Y243240D01*
X33202Y243185D01*
X33171Y243127D01*
X33144Y243068D01*
X33120Y243007D01*
X33099Y242945D01*
X33082Y242882D01*
X33069Y242818D01*
X33060Y242753D01*
X33054Y242688D01*
X33052Y242623D01*
X34175Y243746D02*
X34248Y243744D01*
X34320Y243739D01*
X34392Y243730D01*
X34463Y243717D01*
X34534Y243701D01*
X34604Y243681D01*
X34673Y243657D01*
X34740Y243631D01*
X34806Y243601D01*
X34871Y243567D01*
X34933Y243531D01*
X34994Y243491D01*
X35053Y243448D01*
X35109Y243403D01*
X35163Y243354D01*
X35215Y243303D01*
X35264Y243250D01*
X35310Y243194D01*
X35354Y243136D01*
X35394Y243075D01*
X35431Y243013D01*
X35465Y242949D01*
X35496Y242883D01*
X35524Y242816D01*
X35548Y242748D01*
X33426Y241750D02*
X33380Y241796D01*
X33337Y241844D01*
X33296Y241895D01*
X33258Y241948D01*
X33223Y242003D01*
X33192Y242060D01*
X33163Y242118D01*
X33137Y242178D01*
X33115Y242239D01*
X33096Y242301D01*
X33080Y242365D01*
X33068Y242429D01*
X33059Y242493D01*
X33054Y242558D01*
X33052Y242623D01*
X33426Y241750D02*
X35548Y239254D01*
X33052Y239254D01*
X30847Y239254D02*
X30847Y242249D01*
X28601Y242249D01*
X28548Y242247D01*
X28494Y242241D01*
X28442Y242232D01*
X28390Y242219D01*
X28339Y242202D01*
X28290Y242181D01*
X28242Y242157D01*
X28196Y242130D01*
X28152Y242100D01*
X28111Y242066D01*
X28071Y242030D01*
X28035Y241991D01*
X28001Y241949D01*
X27971Y241905D01*
X27944Y241859D01*
X27920Y241811D01*
X27899Y241762D01*
X27882Y241711D01*
X27869Y241659D01*
X27860Y241607D01*
X27854Y241553D01*
X27852Y241500D01*
X27852Y239254D01*
X29350Y239254D02*
X29350Y242249D01*
X25447Y242249D02*
X25447Y239254D01*
X25447Y242249D02*
X23201Y242249D01*
X23148Y242247D01*
X23094Y242241D01*
X23042Y242232D01*
X22990Y242219D01*
X22939Y242202D01*
X22890Y242181D01*
X22842Y242157D01*
X22796Y242130D01*
X22752Y242100D01*
X22711Y242066D01*
X22671Y242030D01*
X22635Y241991D01*
X22601Y241949D01*
X22571Y241905D01*
X22544Y241859D01*
X22520Y241811D01*
X22499Y241762D01*
X22482Y241711D01*
X22469Y241659D01*
X22460Y241607D01*
X22454Y241553D01*
X22452Y241500D01*
X22452Y239254D01*
X23950Y239254D02*
X23950Y242249D01*
D11*
X38000Y239000D02*
X42000Y239000D01*
X44000Y237000D01*
X44000Y232000D01*
X14000Y232000D02*
X14000Y237000D01*
X16000Y239000D01*
X20000Y239000D01*
D12*
X24984Y171125D02*
X7016Y171125D01*
X7016Y176116D02*
X7016Y166134D01*
X24984Y159407D02*
X24984Y151421D01*
X24984Y159407D02*
X7016Y159407D01*
X7016Y151421D01*
X15002Y153417D02*
X15002Y159407D01*
X7016Y144339D02*
X24984Y144339D01*
X16998Y138350D02*
X7016Y144339D01*
X16998Y138350D02*
X7016Y132361D01*
X24984Y132361D01*
X24984Y123558D02*
X7016Y123558D01*
X7016Y118567D01*
X7018Y118427D01*
X7024Y118287D01*
X7034Y118148D01*
X7047Y118008D01*
X7065Y117869D01*
X7087Y117731D01*
X7112Y117593D01*
X7141Y117456D01*
X7174Y117320D01*
X7211Y117185D01*
X7252Y117051D01*
X7296Y116919D01*
X7344Y116787D01*
X7396Y116657D01*
X7451Y116528D01*
X7510Y116401D01*
X7573Y116276D01*
X7639Y116153D01*
X7708Y116031D01*
X7781Y115912D01*
X7857Y115794D01*
X7937Y115679D01*
X8019Y115566D01*
X8105Y115455D01*
X8194Y115347D01*
X8285Y115241D01*
X8380Y115138D01*
X8478Y115038D01*
X8578Y114940D01*
X8681Y114845D01*
X8787Y114754D01*
X8895Y114665D01*
X9006Y114579D01*
X9119Y114497D01*
X9234Y114417D01*
X9352Y114341D01*
X9471Y114268D01*
X9593Y114199D01*
X9716Y114133D01*
X9841Y114070D01*
X9968Y114011D01*
X10097Y113956D01*
X10227Y113904D01*
X10359Y113856D01*
X10491Y113812D01*
X10625Y113771D01*
X10760Y113734D01*
X10896Y113701D01*
X11033Y113672D01*
X11171Y113647D01*
X11309Y113625D01*
X11448Y113607D01*
X11588Y113594D01*
X11727Y113584D01*
X11867Y113578D01*
X12007Y113576D01*
X12147Y113578D01*
X12287Y113584D01*
X12426Y113594D01*
X12566Y113607D01*
X12705Y113625D01*
X12843Y113647D01*
X12981Y113672D01*
X13118Y113701D01*
X13254Y113734D01*
X13389Y113771D01*
X13523Y113812D01*
X13655Y113856D01*
X13787Y113904D01*
X13917Y113956D01*
X14046Y114011D01*
X14173Y114070D01*
X14298Y114133D01*
X14421Y114199D01*
X14543Y114268D01*
X14662Y114341D01*
X14780Y114417D01*
X14895Y114497D01*
X15008Y114579D01*
X15119Y114665D01*
X15227Y114754D01*
X15333Y114845D01*
X15436Y114940D01*
X15536Y115038D01*
X15634Y115138D01*
X15729Y115241D01*
X15820Y115347D01*
X15909Y115455D01*
X15995Y115566D01*
X16077Y115679D01*
X16157Y115794D01*
X16233Y115912D01*
X16306Y116031D01*
X16375Y116153D01*
X16441Y116276D01*
X16504Y116401D01*
X16563Y116528D01*
X16618Y116657D01*
X16670Y116787D01*
X16718Y116919D01*
X16762Y117051D01*
X16803Y117185D01*
X16840Y117320D01*
X16873Y117456D01*
X16902Y117593D01*
X16927Y117731D01*
X16949Y117869D01*
X16967Y118008D01*
X16980Y118148D01*
X16990Y118287D01*
X16996Y118427D01*
X16998Y118567D01*
X16998Y123558D01*
X24984Y103275D02*
X7016Y103275D01*
X7016Y108266D02*
X7016Y98284D01*
X7016Y91490D02*
X24984Y91490D01*
X7016Y91490D02*
X7016Y86499D01*
X7018Y86359D01*
X7024Y86219D01*
X7034Y86080D01*
X7047Y85940D01*
X7065Y85801D01*
X7087Y85663D01*
X7112Y85525D01*
X7141Y85388D01*
X7174Y85252D01*
X7211Y85117D01*
X7252Y84983D01*
X7296Y84851D01*
X7344Y84719D01*
X7396Y84589D01*
X7451Y84460D01*
X7510Y84333D01*
X7573Y84208D01*
X7639Y84085D01*
X7708Y83963D01*
X7781Y83844D01*
X7857Y83726D01*
X7937Y83611D01*
X8019Y83498D01*
X8105Y83387D01*
X8194Y83279D01*
X8285Y83173D01*
X8380Y83070D01*
X8478Y82970D01*
X8578Y82872D01*
X8681Y82777D01*
X8787Y82686D01*
X8895Y82597D01*
X9006Y82511D01*
X9119Y82429D01*
X9234Y82349D01*
X9352Y82273D01*
X9471Y82200D01*
X9593Y82131D01*
X9716Y82065D01*
X9841Y82002D01*
X9968Y81943D01*
X10097Y81888D01*
X10227Y81836D01*
X10359Y81788D01*
X10491Y81744D01*
X10625Y81703D01*
X10760Y81666D01*
X10896Y81633D01*
X11033Y81604D01*
X11171Y81579D01*
X11309Y81557D01*
X11448Y81539D01*
X11588Y81526D01*
X11727Y81516D01*
X11867Y81510D01*
X12007Y81508D01*
X12147Y81510D01*
X12287Y81516D01*
X12426Y81526D01*
X12566Y81539D01*
X12705Y81557D01*
X12843Y81579D01*
X12981Y81604D01*
X13118Y81633D01*
X13254Y81666D01*
X13389Y81703D01*
X13523Y81744D01*
X13655Y81788D01*
X13787Y81836D01*
X13917Y81888D01*
X14046Y81943D01*
X14173Y82002D01*
X14298Y82065D01*
X14421Y82131D01*
X14543Y82200D01*
X14662Y82273D01*
X14780Y82349D01*
X14895Y82429D01*
X15008Y82511D01*
X15119Y82597D01*
X15227Y82686D01*
X15333Y82777D01*
X15436Y82872D01*
X15536Y82970D01*
X15634Y83070D01*
X15729Y83173D01*
X15820Y83279D01*
X15909Y83387D01*
X15995Y83498D01*
X16077Y83611D01*
X16157Y83726D01*
X16233Y83844D01*
X16306Y83963D01*
X16375Y84085D01*
X16441Y84208D01*
X16504Y84333D01*
X16563Y84460D01*
X16618Y84589D01*
X16670Y84719D01*
X16718Y84851D01*
X16762Y84983D01*
X16803Y85117D01*
X16840Y85252D01*
X16873Y85388D01*
X16902Y85525D01*
X16927Y85663D01*
X16949Y85801D01*
X16967Y85940D01*
X16980Y86080D01*
X16990Y86219D01*
X16996Y86359D01*
X16998Y86499D01*
X16998Y91490D01*
X16998Y85501D02*
X24984Y81508D01*
X24984Y73732D02*
X24984Y65746D01*
X24984Y73732D02*
X7016Y73732D01*
X7016Y65746D01*
X15002Y67742D02*
X15002Y73732D01*
X24984Y53977D02*
X24982Y53852D01*
X24976Y53726D01*
X24966Y53601D01*
X24953Y53477D01*
X24935Y53352D01*
X24913Y53229D01*
X24888Y53106D01*
X24859Y52984D01*
X24825Y52863D01*
X24789Y52743D01*
X24748Y52624D01*
X24704Y52507D01*
X24656Y52391D01*
X24604Y52277D01*
X24549Y52164D01*
X24490Y52053D01*
X24428Y51944D01*
X24362Y51837D01*
X24294Y51733D01*
X24221Y51630D01*
X24146Y51530D01*
X24068Y51432D01*
X23986Y51336D01*
X23902Y51244D01*
X23814Y51154D01*
X23724Y51066D01*
X23632Y50982D01*
X23536Y50900D01*
X23438Y50822D01*
X23338Y50747D01*
X23235Y50674D01*
X23131Y50606D01*
X23024Y50540D01*
X22915Y50478D01*
X22804Y50419D01*
X22691Y50364D01*
X22577Y50312D01*
X22461Y50264D01*
X22344Y50220D01*
X22225Y50179D01*
X22105Y50143D01*
X21984Y50109D01*
X21862Y50080D01*
X21739Y50055D01*
X21616Y50033D01*
X21491Y50015D01*
X21367Y50002D01*
X21242Y49992D01*
X21116Y49986D01*
X20991Y49984D01*
X24984Y53977D02*
X24982Y54179D01*
X24974Y54381D01*
X24962Y54582D01*
X24945Y54783D01*
X24924Y54984D01*
X24897Y55184D01*
X24866Y55383D01*
X24830Y55582D01*
X24789Y55779D01*
X24744Y55976D01*
X24694Y56172D01*
X24639Y56366D01*
X24579Y56559D01*
X24515Y56750D01*
X24447Y56940D01*
X24373Y57128D01*
X24296Y57314D01*
X24214Y57498D01*
X24127Y57681D01*
X24037Y57861D01*
X23941Y58039D01*
X23842Y58215D01*
X23739Y58388D01*
X23631Y58559D01*
X23519Y58727D01*
X23404Y58892D01*
X23284Y59055D01*
X23161Y59215D01*
X23034Y59371D01*
X22903Y59525D01*
X22768Y59675D01*
X22630Y59822D01*
X22489Y59966D01*
X11009Y59467D02*
X10884Y59465D01*
X10758Y59459D01*
X10633Y59449D01*
X10509Y59436D01*
X10384Y59418D01*
X10261Y59396D01*
X10138Y59371D01*
X10016Y59342D01*
X9895Y59308D01*
X9775Y59272D01*
X9656Y59231D01*
X9539Y59187D01*
X9423Y59139D01*
X9309Y59087D01*
X9196Y59032D01*
X9085Y58973D01*
X8976Y58911D01*
X8869Y58845D01*
X8765Y58777D01*
X8662Y58704D01*
X8562Y58629D01*
X8464Y58551D01*
X8368Y58469D01*
X8276Y58385D01*
X8186Y58297D01*
X8098Y58207D01*
X8014Y58115D01*
X7932Y58019D01*
X7854Y57921D01*
X7779Y57821D01*
X7706Y57718D01*
X7638Y57614D01*
X7572Y57507D01*
X7510Y57398D01*
X7451Y57287D01*
X7396Y57174D01*
X7344Y57060D01*
X7296Y56944D01*
X7252Y56827D01*
X7211Y56708D01*
X7175Y56588D01*
X7141Y56467D01*
X7112Y56345D01*
X7087Y56222D01*
X7065Y56099D01*
X7047Y55974D01*
X7034Y55850D01*
X7024Y55725D01*
X7018Y55599D01*
X7016Y55474D01*
X7018Y55296D01*
X7025Y55117D01*
X7035Y54939D01*
X7050Y54761D01*
X7069Y54584D01*
X7092Y54407D01*
X7120Y54231D01*
X7152Y54055D01*
X7188Y53881D01*
X7228Y53707D01*
X7272Y53534D01*
X7320Y53362D01*
X7372Y53192D01*
X7429Y53022D01*
X7489Y52854D01*
X7554Y52688D01*
X7622Y52523D01*
X7694Y52360D01*
X7771Y52199D01*
X7850Y52039D01*
X7934Y51882D01*
X8022Y51726D01*
X8113Y51573D01*
X8208Y51422D01*
X8306Y51273D01*
X8408Y51126D01*
X8513Y50982D01*
X14503Y57471D02*
X14438Y57576D01*
X14370Y57680D01*
X14300Y57782D01*
X14226Y57881D01*
X14149Y57978D01*
X14069Y58073D01*
X13986Y58165D01*
X13901Y58255D01*
X13813Y58342D01*
X13722Y58426D01*
X13629Y58507D01*
X13533Y58586D01*
X13435Y58661D01*
X13335Y58734D01*
X13232Y58803D01*
X13127Y58870D01*
X13021Y58933D01*
X12912Y58993D01*
X12802Y59049D01*
X12690Y59102D01*
X12577Y59152D01*
X12462Y59198D01*
X12346Y59240D01*
X12228Y59279D01*
X12110Y59315D01*
X11990Y59347D01*
X11869Y59375D01*
X11748Y59399D01*
X11626Y59420D01*
X11503Y59437D01*
X11380Y59450D01*
X11257Y59459D01*
X11133Y59465D01*
X11009Y59467D01*
X17497Y51980D02*
X17562Y51875D01*
X17630Y51771D01*
X17700Y51669D01*
X17774Y51570D01*
X17851Y51473D01*
X17931Y51378D01*
X18014Y51286D01*
X18099Y51196D01*
X18187Y51109D01*
X18278Y51025D01*
X18371Y50944D01*
X18467Y50865D01*
X18565Y50790D01*
X18665Y50717D01*
X18768Y50648D01*
X18873Y50581D01*
X18979Y50518D01*
X19088Y50458D01*
X19198Y50402D01*
X19310Y50349D01*
X19423Y50299D01*
X19538Y50253D01*
X19654Y50211D01*
X19772Y50172D01*
X19890Y50136D01*
X20010Y50104D01*
X20131Y50076D01*
X20252Y50052D01*
X20374Y50031D01*
X20497Y50014D01*
X20620Y50001D01*
X20743Y49992D01*
X20867Y49986D01*
X20991Y49984D01*
X17497Y51980D02*
X14503Y57471D01*
X24984Y37877D02*
X24982Y37752D01*
X24976Y37626D01*
X24966Y37501D01*
X24953Y37377D01*
X24935Y37252D01*
X24913Y37129D01*
X24888Y37006D01*
X24859Y36884D01*
X24825Y36763D01*
X24789Y36643D01*
X24748Y36524D01*
X24704Y36407D01*
X24656Y36291D01*
X24604Y36177D01*
X24549Y36064D01*
X24490Y35953D01*
X24428Y35844D01*
X24362Y35737D01*
X24294Y35633D01*
X24221Y35530D01*
X24146Y35430D01*
X24068Y35332D01*
X23986Y35236D01*
X23902Y35144D01*
X23814Y35054D01*
X23724Y34966D01*
X23632Y34882D01*
X23536Y34800D01*
X23438Y34722D01*
X23338Y34647D01*
X23235Y34574D01*
X23131Y34506D01*
X23024Y34440D01*
X22915Y34378D01*
X22804Y34319D01*
X22691Y34264D01*
X22577Y34212D01*
X22461Y34164D01*
X22344Y34120D01*
X22225Y34079D01*
X22105Y34043D01*
X21984Y34009D01*
X21862Y33980D01*
X21739Y33955D01*
X21616Y33933D01*
X21491Y33915D01*
X21367Y33902D01*
X21242Y33892D01*
X21116Y33886D01*
X20991Y33884D01*
X24984Y37877D02*
X24982Y38079D01*
X24974Y38281D01*
X24962Y38482D01*
X24945Y38683D01*
X24924Y38884D01*
X24897Y39084D01*
X24866Y39283D01*
X24830Y39482D01*
X24789Y39679D01*
X24744Y39876D01*
X24694Y40072D01*
X24639Y40266D01*
X24579Y40459D01*
X24515Y40650D01*
X24447Y40840D01*
X24373Y41028D01*
X24296Y41214D01*
X24214Y41398D01*
X24127Y41581D01*
X24037Y41761D01*
X23941Y41939D01*
X23842Y42115D01*
X23739Y42288D01*
X23631Y42459D01*
X23519Y42627D01*
X23404Y42792D01*
X23284Y42955D01*
X23161Y43115D01*
X23034Y43271D01*
X22903Y43425D01*
X22768Y43575D01*
X22630Y43722D01*
X22489Y43866D01*
X11009Y43367D02*
X10884Y43365D01*
X10758Y43359D01*
X10633Y43349D01*
X10509Y43336D01*
X10384Y43318D01*
X10261Y43296D01*
X10138Y43271D01*
X10016Y43242D01*
X9895Y43208D01*
X9775Y43172D01*
X9656Y43131D01*
X9539Y43087D01*
X9423Y43039D01*
X9309Y42987D01*
X9196Y42932D01*
X9085Y42873D01*
X8976Y42811D01*
X8869Y42745D01*
X8765Y42677D01*
X8662Y42604D01*
X8562Y42529D01*
X8464Y42451D01*
X8368Y42369D01*
X8276Y42285D01*
X8186Y42197D01*
X8098Y42107D01*
X8014Y42015D01*
X7932Y41919D01*
X7854Y41821D01*
X7779Y41721D01*
X7706Y41618D01*
X7638Y41514D01*
X7572Y41407D01*
X7510Y41298D01*
X7451Y41187D01*
X7396Y41074D01*
X7344Y40960D01*
X7296Y40844D01*
X7252Y40727D01*
X7211Y40608D01*
X7175Y40488D01*
X7141Y40367D01*
X7112Y40245D01*
X7087Y40122D01*
X7065Y39999D01*
X7047Y39874D01*
X7034Y39750D01*
X7024Y39625D01*
X7018Y39499D01*
X7016Y39374D01*
X7018Y39196D01*
X7025Y39017D01*
X7035Y38839D01*
X7050Y38661D01*
X7069Y38484D01*
X7092Y38307D01*
X7120Y38131D01*
X7152Y37955D01*
X7188Y37781D01*
X7228Y37607D01*
X7272Y37434D01*
X7320Y37262D01*
X7372Y37092D01*
X7429Y36922D01*
X7489Y36754D01*
X7554Y36588D01*
X7622Y36423D01*
X7694Y36260D01*
X7771Y36099D01*
X7850Y35939D01*
X7934Y35782D01*
X8022Y35626D01*
X8113Y35473D01*
X8208Y35322D01*
X8306Y35173D01*
X8408Y35026D01*
X8513Y34882D01*
X14503Y41371D02*
X14438Y41476D01*
X14370Y41580D01*
X14300Y41682D01*
X14226Y41781D01*
X14149Y41878D01*
X14069Y41973D01*
X13986Y42065D01*
X13901Y42155D01*
X13813Y42242D01*
X13722Y42326D01*
X13629Y42407D01*
X13533Y42486D01*
X13435Y42561D01*
X13335Y42634D01*
X13232Y42703D01*
X13127Y42770D01*
X13021Y42833D01*
X12912Y42893D01*
X12802Y42949D01*
X12690Y43002D01*
X12577Y43052D01*
X12462Y43098D01*
X12346Y43140D01*
X12228Y43179D01*
X12110Y43215D01*
X11990Y43247D01*
X11869Y43275D01*
X11748Y43299D01*
X11626Y43320D01*
X11503Y43337D01*
X11380Y43350D01*
X11257Y43359D01*
X11133Y43365D01*
X11009Y43367D01*
X17497Y35880D02*
X17562Y35775D01*
X17630Y35671D01*
X17700Y35569D01*
X17774Y35470D01*
X17851Y35373D01*
X17931Y35278D01*
X18014Y35186D01*
X18099Y35096D01*
X18187Y35009D01*
X18278Y34925D01*
X18371Y34844D01*
X18467Y34765D01*
X18565Y34690D01*
X18665Y34617D01*
X18768Y34548D01*
X18873Y34481D01*
X18979Y34418D01*
X19088Y34358D01*
X19198Y34302D01*
X19310Y34249D01*
X19423Y34199D01*
X19538Y34153D01*
X19654Y34111D01*
X19772Y34072D01*
X19890Y34036D01*
X20010Y34004D01*
X20131Y33976D01*
X20252Y33952D01*
X20374Y33931D01*
X20497Y33914D01*
X20620Y33901D01*
X20743Y33892D01*
X20867Y33886D01*
X20991Y33884D01*
X17497Y35880D02*
X14503Y41371D01*
D13*
X38684Y164372D02*
X38988Y164372D01*
X38684Y164372D02*
X38684Y164068D01*
X38988Y164068D01*
X38988Y164372D01*
X38988Y161852D02*
X38684Y161852D01*
X38684Y161548D01*
X38988Y161548D01*
X38988Y161852D01*
X36858Y155335D02*
X36858Y151684D01*
X38684Y145472D02*
X38988Y145472D01*
X38684Y145472D02*
X38684Y145168D01*
X38988Y145168D01*
X38988Y145472D01*
X38988Y142952D02*
X38684Y142952D01*
X38684Y142648D01*
X38988Y142648D01*
X38988Y142952D01*
X38988Y140432D02*
X38684Y140432D01*
X38684Y140128D01*
X38988Y140128D01*
X38988Y140432D01*
X39901Y134400D02*
X32599Y134400D01*
X36858Y128035D02*
X36858Y124385D01*
X36858Y120895D02*
X36858Y117245D01*
X38684Y114392D02*
X38988Y114392D01*
X38684Y114392D02*
X38684Y114088D01*
X38988Y114088D01*
X38988Y114392D01*
X38988Y108512D02*
X38684Y108512D01*
X38684Y108208D01*
X38988Y108208D01*
X38988Y108512D01*
X36858Y101995D02*
X36858Y98345D01*
X36858Y91495D02*
X36858Y87845D01*
X38684Y81632D02*
X38988Y81632D01*
X38684Y81632D02*
X38684Y81328D01*
X38988Y81328D01*
X38988Y81632D01*
X38988Y79112D02*
X38684Y79112D01*
X38684Y78808D01*
X38988Y78808D01*
X38988Y79112D01*
X36858Y72595D02*
X36858Y68945D01*
X38684Y66092D02*
X38988Y66092D01*
X38684Y66092D02*
X38684Y65788D01*
X38988Y65788D01*
X38988Y66092D01*
X36858Y59576D02*
X36858Y55925D01*
X36858Y52436D02*
X36858Y48785D01*
X38684Y45932D02*
X38988Y45932D01*
X38684Y45932D02*
X38684Y45628D01*
X38988Y45628D01*
X38988Y45932D01*
X50934Y163532D02*
X51238Y163532D01*
X50934Y163532D02*
X50934Y163228D01*
X51238Y163228D01*
X51238Y163532D01*
X51238Y161012D02*
X50934Y161012D01*
X50934Y160708D01*
X51238Y160708D01*
X51238Y161012D01*
X51238Y158492D02*
X50934Y158492D01*
X50934Y158188D01*
X51238Y158188D01*
X51238Y158492D01*
X51238Y155972D02*
X50934Y155972D01*
X50934Y155668D01*
X51238Y155668D01*
X51238Y155972D01*
X49108Y149455D02*
X49108Y145804D01*
X49108Y142315D02*
X49108Y138665D01*
X49108Y135175D02*
X49108Y131525D01*
X49108Y124675D02*
X49108Y121025D01*
X52151Y114660D02*
X44849Y114660D01*
X50934Y108932D02*
X51238Y108932D01*
X50934Y108932D02*
X50934Y108628D01*
X51238Y108628D01*
X51238Y108932D01*
X51238Y106412D02*
X50934Y106412D01*
X50934Y106108D01*
X51238Y106108D01*
X51238Y106412D01*
X49108Y99895D02*
X49108Y96245D01*
X50934Y93392D02*
X51238Y93392D01*
X50934Y93392D02*
X50934Y93088D01*
X51238Y93088D01*
X51238Y93392D01*
X52151Y87360D02*
X44849Y87360D01*
X50934Y81632D02*
X51238Y81632D01*
X50934Y81632D02*
X50934Y81328D01*
X51238Y81328D01*
X51238Y81632D01*
X51238Y79112D02*
X50934Y79112D01*
X50934Y78808D01*
X51238Y78808D01*
X51238Y79112D01*
X51238Y76592D02*
X50934Y76592D01*
X50934Y76288D01*
X51238Y76288D01*
X51238Y76592D01*
X51238Y74072D02*
X50934Y74072D01*
X50934Y73768D01*
X51238Y73768D01*
X51238Y74072D01*
X51238Y68192D02*
X50934Y68192D01*
X50934Y67888D01*
X51238Y67888D01*
X51238Y68192D01*
X51238Y62312D02*
X50934Y62312D01*
X50934Y62008D01*
X51238Y62008D01*
X51238Y62312D01*
X49108Y59156D02*
X49108Y55505D01*
X50934Y52652D02*
X51238Y52652D01*
X50934Y52652D02*
X50934Y52348D01*
X51238Y52348D01*
X51238Y52652D01*
X51238Y46772D02*
X50934Y46772D01*
X50934Y46468D01*
X51238Y46468D01*
X51238Y46772D01*
X15238Y220684D02*
X6762Y220684D01*
X15238Y220684D02*
X15238Y216916D01*
X15238Y212655D02*
X6762Y212655D01*
X15238Y213597D02*
X15238Y211713D01*
X6762Y211713D02*
X6762Y213597D01*
X6762Y206055D02*
X15238Y206055D01*
X6762Y208409D02*
X6762Y203701D01*
X6762Y197655D02*
X15238Y200480D01*
X15238Y194830D02*
X6762Y197655D01*
X13119Y195536D02*
X13119Y199774D01*
X15238Y190684D02*
X6762Y190684D01*
X6762Y186917D01*
X10529Y186917D02*
X10529Y190684D01*
M02*
