G04 EAGLE Gerber RS-274X export*
G75*
%MOMM*%
%FSLAX34Y34*%
%LPD*%
%INSolderpaste Top*%
%IPPOS*%
%AMOC8*
5,1,8,0,0,1.08239X$1,22.5*%
G01*
%ADD10C,0.040000*%
%ADD11C,0.011000*%
%ADD12C,0.036000*%
%ADD13R,1.350000X1.250000*%
%ADD14C,0.070000*%


D10*
X32100Y162800D02*
X35700Y162800D01*
X35700Y158200D01*
X32100Y158200D01*
X32100Y162800D01*
X32100Y158580D02*
X35700Y158580D01*
X35700Y158960D02*
X32100Y158960D01*
X32100Y159340D02*
X35700Y159340D01*
X35700Y159720D02*
X32100Y159720D01*
X32100Y160100D02*
X35700Y160100D01*
X35700Y160480D02*
X32100Y160480D01*
X32100Y160860D02*
X35700Y160860D01*
X35700Y161240D02*
X32100Y161240D01*
X32100Y161620D02*
X35700Y161620D01*
X35700Y162000D02*
X32100Y162000D01*
X32100Y162380D02*
X35700Y162380D01*
X35700Y162760D02*
X32100Y162760D01*
X23700Y162800D02*
X20100Y162800D01*
X23700Y162800D02*
X23700Y158200D01*
X20100Y158200D01*
X20100Y162800D01*
X20100Y158580D02*
X23700Y158580D01*
X23700Y158960D02*
X20100Y158960D01*
X20100Y159340D02*
X23700Y159340D01*
X23700Y159720D02*
X20100Y159720D01*
X20100Y160100D02*
X23700Y160100D01*
X23700Y160480D02*
X20100Y160480D01*
X20100Y160860D02*
X23700Y160860D01*
X23700Y161240D02*
X20100Y161240D01*
X20100Y161620D02*
X23700Y161620D01*
X23700Y162000D02*
X20100Y162000D01*
X20100Y162380D02*
X23700Y162380D01*
X23700Y162760D02*
X20100Y162760D01*
X20100Y168200D02*
X23700Y168200D01*
X20100Y168200D02*
X20100Y172800D01*
X23700Y172800D01*
X23700Y168200D01*
X23700Y168580D02*
X20100Y168580D01*
X20100Y168960D02*
X23700Y168960D01*
X23700Y169340D02*
X20100Y169340D01*
X20100Y169720D02*
X23700Y169720D01*
X23700Y170100D02*
X20100Y170100D01*
X20100Y170480D02*
X23700Y170480D01*
X23700Y170860D02*
X20100Y170860D01*
X20100Y171240D02*
X23700Y171240D01*
X23700Y171620D02*
X20100Y171620D01*
X20100Y172000D02*
X23700Y172000D01*
X23700Y172380D02*
X20100Y172380D01*
X20100Y172760D02*
X23700Y172760D01*
X32100Y168200D02*
X35700Y168200D01*
X32100Y168200D02*
X32100Y172800D01*
X35700Y172800D01*
X35700Y168200D01*
X35700Y168580D02*
X32100Y168580D01*
X32100Y168960D02*
X35700Y168960D01*
X35700Y169340D02*
X32100Y169340D01*
X32100Y169720D02*
X35700Y169720D01*
X35700Y170100D02*
X32100Y170100D01*
X32100Y170480D02*
X35700Y170480D01*
X35700Y170860D02*
X32100Y170860D01*
X32100Y171240D02*
X35700Y171240D01*
X35700Y171620D02*
X32100Y171620D01*
X32100Y172000D02*
X35700Y172000D01*
X35700Y172380D02*
X32100Y172380D01*
X32100Y172760D02*
X35700Y172760D01*
X35700Y152800D02*
X32100Y152800D01*
X35700Y152800D02*
X35700Y148200D01*
X32100Y148200D01*
X32100Y152800D01*
X32100Y148580D02*
X35700Y148580D01*
X35700Y148960D02*
X32100Y148960D01*
X32100Y149340D02*
X35700Y149340D01*
X35700Y149720D02*
X32100Y149720D01*
X32100Y150100D02*
X35700Y150100D01*
X35700Y150480D02*
X32100Y150480D01*
X32100Y150860D02*
X35700Y150860D01*
X35700Y151240D02*
X32100Y151240D01*
X32100Y151620D02*
X35700Y151620D01*
X35700Y152000D02*
X32100Y152000D01*
X32100Y152380D02*
X35700Y152380D01*
X35700Y152760D02*
X32100Y152760D01*
X23700Y152800D02*
X20100Y152800D01*
X23700Y152800D02*
X23700Y148200D01*
X20100Y148200D01*
X20100Y152800D01*
X20100Y148580D02*
X23700Y148580D01*
X23700Y148960D02*
X20100Y148960D01*
X20100Y149340D02*
X23700Y149340D01*
X23700Y149720D02*
X20100Y149720D01*
X20100Y150100D02*
X23700Y150100D01*
X23700Y150480D02*
X20100Y150480D01*
X20100Y150860D02*
X23700Y150860D01*
X23700Y151240D02*
X20100Y151240D01*
X20100Y151620D02*
X23700Y151620D01*
X23700Y152000D02*
X20100Y152000D01*
X20100Y152380D02*
X23700Y152380D01*
X23700Y152760D02*
X20100Y152760D01*
D11*
X18555Y131955D02*
X27445Y131955D01*
X18555Y131955D02*
X18555Y134045D01*
X27445Y134045D01*
X27445Y131955D01*
X27445Y132059D02*
X18555Y132059D01*
X18555Y132163D02*
X27445Y132163D01*
X27445Y132267D02*
X18555Y132267D01*
X18555Y132371D02*
X27445Y132371D01*
X27445Y132475D02*
X18555Y132475D01*
X18555Y132579D02*
X27445Y132579D01*
X27445Y132683D02*
X18555Y132683D01*
X18555Y132787D02*
X27445Y132787D01*
X27445Y132891D02*
X18555Y132891D01*
X18555Y132995D02*
X27445Y132995D01*
X27445Y133099D02*
X18555Y133099D01*
X18555Y133203D02*
X27445Y133203D01*
X27445Y133307D02*
X18555Y133307D01*
X18555Y133411D02*
X27445Y133411D01*
X27445Y133515D02*
X18555Y133515D01*
X18555Y133619D02*
X27445Y133619D01*
X27445Y133723D02*
X18555Y133723D01*
X18555Y133827D02*
X27445Y133827D01*
X27445Y133931D02*
X18555Y133931D01*
X18555Y134035D02*
X27445Y134035D01*
X26945Y127955D02*
X18555Y127955D01*
X18555Y130045D01*
X26945Y130045D01*
X26945Y127955D01*
X26945Y128059D02*
X18555Y128059D01*
X18555Y128163D02*
X26945Y128163D01*
X26945Y128267D02*
X18555Y128267D01*
X18555Y128371D02*
X26945Y128371D01*
X26945Y128475D02*
X18555Y128475D01*
X18555Y128579D02*
X26945Y128579D01*
X26945Y128683D02*
X18555Y128683D01*
X18555Y128787D02*
X26945Y128787D01*
X26945Y128891D02*
X18555Y128891D01*
X18555Y128995D02*
X26945Y128995D01*
X26945Y129099D02*
X18555Y129099D01*
X18555Y129203D02*
X26945Y129203D01*
X26945Y129307D02*
X18555Y129307D01*
X18555Y129411D02*
X26945Y129411D01*
X26945Y129515D02*
X18555Y129515D01*
X18555Y129619D02*
X26945Y129619D01*
X26945Y129723D02*
X18555Y129723D01*
X18555Y129827D02*
X26945Y129827D01*
X26945Y129931D02*
X18555Y129931D01*
X18555Y130035D02*
X26945Y130035D01*
X26945Y123955D02*
X18555Y123955D01*
X18555Y126045D01*
X26945Y126045D01*
X26945Y123955D01*
X26945Y124059D02*
X18555Y124059D01*
X18555Y124163D02*
X26945Y124163D01*
X26945Y124267D02*
X18555Y124267D01*
X18555Y124371D02*
X26945Y124371D01*
X26945Y124475D02*
X18555Y124475D01*
X18555Y124579D02*
X26945Y124579D01*
X26945Y124683D02*
X18555Y124683D01*
X18555Y124787D02*
X26945Y124787D01*
X26945Y124891D02*
X18555Y124891D01*
X18555Y124995D02*
X26945Y124995D01*
X26945Y125099D02*
X18555Y125099D01*
X18555Y125203D02*
X26945Y125203D01*
X26945Y125307D02*
X18555Y125307D01*
X18555Y125411D02*
X26945Y125411D01*
X26945Y125515D02*
X18555Y125515D01*
X18555Y125619D02*
X26945Y125619D01*
X26945Y125723D02*
X18555Y125723D01*
X18555Y125827D02*
X26945Y125827D01*
X26945Y125931D02*
X18555Y125931D01*
X18555Y126035D02*
X26945Y126035D01*
X26945Y119955D02*
X18555Y119955D01*
X18555Y122045D01*
X26945Y122045D01*
X26945Y119955D01*
X26945Y120059D02*
X18555Y120059D01*
X18555Y120163D02*
X26945Y120163D01*
X26945Y120267D02*
X18555Y120267D01*
X18555Y120371D02*
X26945Y120371D01*
X26945Y120475D02*
X18555Y120475D01*
X18555Y120579D02*
X26945Y120579D01*
X26945Y120683D02*
X18555Y120683D01*
X18555Y120787D02*
X26945Y120787D01*
X26945Y120891D02*
X18555Y120891D01*
X18555Y120995D02*
X26945Y120995D01*
X26945Y121099D02*
X18555Y121099D01*
X18555Y121203D02*
X26945Y121203D01*
X26945Y121307D02*
X18555Y121307D01*
X18555Y121411D02*
X26945Y121411D01*
X26945Y121515D02*
X18555Y121515D01*
X18555Y121619D02*
X26945Y121619D01*
X26945Y121723D02*
X18555Y121723D01*
X18555Y121827D02*
X26945Y121827D01*
X26945Y121931D02*
X18555Y121931D01*
X18555Y122035D02*
X26945Y122035D01*
X24045Y112555D02*
X21955Y112555D01*
X21955Y117945D01*
X24045Y117945D01*
X24045Y112555D01*
X24045Y112659D02*
X21955Y112659D01*
X21955Y112763D02*
X24045Y112763D01*
X24045Y112867D02*
X21955Y112867D01*
X21955Y112971D02*
X24045Y112971D01*
X24045Y113075D02*
X21955Y113075D01*
X21955Y113179D02*
X24045Y113179D01*
X24045Y113283D02*
X21955Y113283D01*
X21955Y113387D02*
X24045Y113387D01*
X24045Y113491D02*
X21955Y113491D01*
X21955Y113595D02*
X24045Y113595D01*
X24045Y113699D02*
X21955Y113699D01*
X21955Y113803D02*
X24045Y113803D01*
X24045Y113907D02*
X21955Y113907D01*
X21955Y114011D02*
X24045Y114011D01*
X24045Y114115D02*
X21955Y114115D01*
X21955Y114219D02*
X24045Y114219D01*
X24045Y114323D02*
X21955Y114323D01*
X21955Y114427D02*
X24045Y114427D01*
X24045Y114531D02*
X21955Y114531D01*
X21955Y114635D02*
X24045Y114635D01*
X24045Y114739D02*
X21955Y114739D01*
X21955Y114843D02*
X24045Y114843D01*
X24045Y114947D02*
X21955Y114947D01*
X21955Y115051D02*
X24045Y115051D01*
X24045Y115155D02*
X21955Y115155D01*
X21955Y115259D02*
X24045Y115259D01*
X24045Y115363D02*
X21955Y115363D01*
X21955Y115467D02*
X24045Y115467D01*
X24045Y115571D02*
X21955Y115571D01*
X21955Y115675D02*
X24045Y115675D01*
X24045Y115779D02*
X21955Y115779D01*
X21955Y115883D02*
X24045Y115883D01*
X24045Y115987D02*
X21955Y115987D01*
X21955Y116091D02*
X24045Y116091D01*
X24045Y116195D02*
X21955Y116195D01*
X21955Y116299D02*
X24045Y116299D01*
X24045Y116403D02*
X21955Y116403D01*
X21955Y116507D02*
X24045Y116507D01*
X24045Y116611D02*
X21955Y116611D01*
X21955Y116715D02*
X24045Y116715D01*
X24045Y116819D02*
X21955Y116819D01*
X21955Y116923D02*
X24045Y116923D01*
X24045Y117027D02*
X21955Y117027D01*
X21955Y117131D02*
X24045Y117131D01*
X24045Y117235D02*
X21955Y117235D01*
X21955Y117339D02*
X24045Y117339D01*
X24045Y117443D02*
X21955Y117443D01*
X21955Y117547D02*
X24045Y117547D01*
X24045Y117651D02*
X21955Y117651D01*
X21955Y117755D02*
X24045Y117755D01*
X24045Y117859D02*
X21955Y117859D01*
X25955Y112555D02*
X28045Y112555D01*
X25955Y112555D02*
X25955Y117945D01*
X28045Y117945D01*
X28045Y112555D01*
X28045Y112659D02*
X25955Y112659D01*
X25955Y112763D02*
X28045Y112763D01*
X28045Y112867D02*
X25955Y112867D01*
X25955Y112971D02*
X28045Y112971D01*
X28045Y113075D02*
X25955Y113075D01*
X25955Y113179D02*
X28045Y113179D01*
X28045Y113283D02*
X25955Y113283D01*
X25955Y113387D02*
X28045Y113387D01*
X28045Y113491D02*
X25955Y113491D01*
X25955Y113595D02*
X28045Y113595D01*
X28045Y113699D02*
X25955Y113699D01*
X25955Y113803D02*
X28045Y113803D01*
X28045Y113907D02*
X25955Y113907D01*
X25955Y114011D02*
X28045Y114011D01*
X28045Y114115D02*
X25955Y114115D01*
X25955Y114219D02*
X28045Y114219D01*
X28045Y114323D02*
X25955Y114323D01*
X25955Y114427D02*
X28045Y114427D01*
X28045Y114531D02*
X25955Y114531D01*
X25955Y114635D02*
X28045Y114635D01*
X28045Y114739D02*
X25955Y114739D01*
X25955Y114843D02*
X28045Y114843D01*
X28045Y114947D02*
X25955Y114947D01*
X25955Y115051D02*
X28045Y115051D01*
X28045Y115155D02*
X25955Y115155D01*
X25955Y115259D02*
X28045Y115259D01*
X28045Y115363D02*
X25955Y115363D01*
X25955Y115467D02*
X28045Y115467D01*
X28045Y115571D02*
X25955Y115571D01*
X25955Y115675D02*
X28045Y115675D01*
X28045Y115779D02*
X25955Y115779D01*
X25955Y115883D02*
X28045Y115883D01*
X28045Y115987D02*
X25955Y115987D01*
X25955Y116091D02*
X28045Y116091D01*
X28045Y116195D02*
X25955Y116195D01*
X25955Y116299D02*
X28045Y116299D01*
X28045Y116403D02*
X25955Y116403D01*
X25955Y116507D02*
X28045Y116507D01*
X28045Y116611D02*
X25955Y116611D01*
X25955Y116715D02*
X28045Y116715D01*
X28045Y116819D02*
X25955Y116819D01*
X25955Y116923D02*
X28045Y116923D01*
X28045Y117027D02*
X25955Y117027D01*
X25955Y117131D02*
X28045Y117131D01*
X28045Y117235D02*
X25955Y117235D01*
X25955Y117339D02*
X28045Y117339D01*
X28045Y117443D02*
X25955Y117443D01*
X25955Y117547D02*
X28045Y117547D01*
X28045Y117651D02*
X25955Y117651D01*
X25955Y117755D02*
X28045Y117755D01*
X28045Y117859D02*
X25955Y117859D01*
X29955Y112555D02*
X32045Y112555D01*
X29955Y112555D02*
X29955Y117945D01*
X32045Y117945D01*
X32045Y112555D01*
X32045Y112659D02*
X29955Y112659D01*
X29955Y112763D02*
X32045Y112763D01*
X32045Y112867D02*
X29955Y112867D01*
X29955Y112971D02*
X32045Y112971D01*
X32045Y113075D02*
X29955Y113075D01*
X29955Y113179D02*
X32045Y113179D01*
X32045Y113283D02*
X29955Y113283D01*
X29955Y113387D02*
X32045Y113387D01*
X32045Y113491D02*
X29955Y113491D01*
X29955Y113595D02*
X32045Y113595D01*
X32045Y113699D02*
X29955Y113699D01*
X29955Y113803D02*
X32045Y113803D01*
X32045Y113907D02*
X29955Y113907D01*
X29955Y114011D02*
X32045Y114011D01*
X32045Y114115D02*
X29955Y114115D01*
X29955Y114219D02*
X32045Y114219D01*
X32045Y114323D02*
X29955Y114323D01*
X29955Y114427D02*
X32045Y114427D01*
X32045Y114531D02*
X29955Y114531D01*
X29955Y114635D02*
X32045Y114635D01*
X32045Y114739D02*
X29955Y114739D01*
X29955Y114843D02*
X32045Y114843D01*
X32045Y114947D02*
X29955Y114947D01*
X29955Y115051D02*
X32045Y115051D01*
X32045Y115155D02*
X29955Y115155D01*
X29955Y115259D02*
X32045Y115259D01*
X32045Y115363D02*
X29955Y115363D01*
X29955Y115467D02*
X32045Y115467D01*
X32045Y115571D02*
X29955Y115571D01*
X29955Y115675D02*
X32045Y115675D01*
X32045Y115779D02*
X29955Y115779D01*
X29955Y115883D02*
X32045Y115883D01*
X32045Y115987D02*
X29955Y115987D01*
X29955Y116091D02*
X32045Y116091D01*
X32045Y116195D02*
X29955Y116195D01*
X29955Y116299D02*
X32045Y116299D01*
X32045Y116403D02*
X29955Y116403D01*
X29955Y116507D02*
X32045Y116507D01*
X32045Y116611D02*
X29955Y116611D01*
X29955Y116715D02*
X32045Y116715D01*
X32045Y116819D02*
X29955Y116819D01*
X29955Y116923D02*
X32045Y116923D01*
X32045Y117027D02*
X29955Y117027D01*
X29955Y117131D02*
X32045Y117131D01*
X32045Y117235D02*
X29955Y117235D01*
X29955Y117339D02*
X32045Y117339D01*
X32045Y117443D02*
X29955Y117443D01*
X29955Y117547D02*
X32045Y117547D01*
X32045Y117651D02*
X29955Y117651D01*
X29955Y117755D02*
X32045Y117755D01*
X32045Y117859D02*
X29955Y117859D01*
X33955Y112555D02*
X36045Y112555D01*
X33955Y112555D02*
X33955Y117945D01*
X36045Y117945D01*
X36045Y112555D01*
X36045Y112659D02*
X33955Y112659D01*
X33955Y112763D02*
X36045Y112763D01*
X36045Y112867D02*
X33955Y112867D01*
X33955Y112971D02*
X36045Y112971D01*
X36045Y113075D02*
X33955Y113075D01*
X33955Y113179D02*
X36045Y113179D01*
X36045Y113283D02*
X33955Y113283D01*
X33955Y113387D02*
X36045Y113387D01*
X36045Y113491D02*
X33955Y113491D01*
X33955Y113595D02*
X36045Y113595D01*
X36045Y113699D02*
X33955Y113699D01*
X33955Y113803D02*
X36045Y113803D01*
X36045Y113907D02*
X33955Y113907D01*
X33955Y114011D02*
X36045Y114011D01*
X36045Y114115D02*
X33955Y114115D01*
X33955Y114219D02*
X36045Y114219D01*
X36045Y114323D02*
X33955Y114323D01*
X33955Y114427D02*
X36045Y114427D01*
X36045Y114531D02*
X33955Y114531D01*
X33955Y114635D02*
X36045Y114635D01*
X36045Y114739D02*
X33955Y114739D01*
X33955Y114843D02*
X36045Y114843D01*
X36045Y114947D02*
X33955Y114947D01*
X33955Y115051D02*
X36045Y115051D01*
X36045Y115155D02*
X33955Y115155D01*
X33955Y115259D02*
X36045Y115259D01*
X36045Y115363D02*
X33955Y115363D01*
X33955Y115467D02*
X36045Y115467D01*
X36045Y115571D02*
X33955Y115571D01*
X33955Y115675D02*
X36045Y115675D01*
X36045Y115779D02*
X33955Y115779D01*
X33955Y115883D02*
X36045Y115883D01*
X36045Y115987D02*
X33955Y115987D01*
X33955Y116091D02*
X36045Y116091D01*
X36045Y116195D02*
X33955Y116195D01*
X33955Y116299D02*
X36045Y116299D01*
X36045Y116403D02*
X33955Y116403D01*
X33955Y116507D02*
X36045Y116507D01*
X36045Y116611D02*
X33955Y116611D01*
X33955Y116715D02*
X36045Y116715D01*
X36045Y116819D02*
X33955Y116819D01*
X33955Y116923D02*
X36045Y116923D01*
X36045Y117027D02*
X33955Y117027D01*
X33955Y117131D02*
X36045Y117131D01*
X36045Y117235D02*
X33955Y117235D01*
X33955Y117339D02*
X36045Y117339D01*
X36045Y117443D02*
X33955Y117443D01*
X33955Y117547D02*
X36045Y117547D01*
X36045Y117651D02*
X33955Y117651D01*
X33955Y117755D02*
X36045Y117755D01*
X36045Y117859D02*
X33955Y117859D01*
X31055Y119955D02*
X39445Y119955D01*
X31055Y119955D02*
X31055Y122045D01*
X39445Y122045D01*
X39445Y119955D01*
X39445Y120059D02*
X31055Y120059D01*
X31055Y120163D02*
X39445Y120163D01*
X39445Y120267D02*
X31055Y120267D01*
X31055Y120371D02*
X39445Y120371D01*
X39445Y120475D02*
X31055Y120475D01*
X31055Y120579D02*
X39445Y120579D01*
X39445Y120683D02*
X31055Y120683D01*
X31055Y120787D02*
X39445Y120787D01*
X39445Y120891D02*
X31055Y120891D01*
X31055Y120995D02*
X39445Y120995D01*
X39445Y121099D02*
X31055Y121099D01*
X31055Y121203D02*
X39445Y121203D01*
X39445Y121307D02*
X31055Y121307D01*
X31055Y121411D02*
X39445Y121411D01*
X39445Y121515D02*
X31055Y121515D01*
X31055Y121619D02*
X39445Y121619D01*
X39445Y121723D02*
X31055Y121723D01*
X31055Y121827D02*
X39445Y121827D01*
X39445Y121931D02*
X31055Y121931D01*
X31055Y122035D02*
X39445Y122035D01*
X39445Y123955D02*
X31055Y123955D01*
X31055Y126045D01*
X39445Y126045D01*
X39445Y123955D01*
X39445Y124059D02*
X31055Y124059D01*
X31055Y124163D02*
X39445Y124163D01*
X39445Y124267D02*
X31055Y124267D01*
X31055Y124371D02*
X39445Y124371D01*
X39445Y124475D02*
X31055Y124475D01*
X31055Y124579D02*
X39445Y124579D01*
X39445Y124683D02*
X31055Y124683D01*
X31055Y124787D02*
X39445Y124787D01*
X39445Y124891D02*
X31055Y124891D01*
X31055Y124995D02*
X39445Y124995D01*
X39445Y125099D02*
X31055Y125099D01*
X31055Y125203D02*
X39445Y125203D01*
X39445Y125307D02*
X31055Y125307D01*
X31055Y125411D02*
X39445Y125411D01*
X39445Y125515D02*
X31055Y125515D01*
X31055Y125619D02*
X39445Y125619D01*
X39445Y125723D02*
X31055Y125723D01*
X31055Y125827D02*
X39445Y125827D01*
X39445Y125931D02*
X31055Y125931D01*
X31055Y126035D02*
X39445Y126035D01*
X39445Y127955D02*
X31055Y127955D01*
X31055Y130045D01*
X39445Y130045D01*
X39445Y127955D01*
X39445Y128059D02*
X31055Y128059D01*
X31055Y128163D02*
X39445Y128163D01*
X39445Y128267D02*
X31055Y128267D01*
X31055Y128371D02*
X39445Y128371D01*
X39445Y128475D02*
X31055Y128475D01*
X31055Y128579D02*
X39445Y128579D01*
X39445Y128683D02*
X31055Y128683D01*
X31055Y128787D02*
X39445Y128787D01*
X39445Y128891D02*
X31055Y128891D01*
X31055Y128995D02*
X39445Y128995D01*
X39445Y129099D02*
X31055Y129099D01*
X31055Y129203D02*
X39445Y129203D01*
X39445Y129307D02*
X31055Y129307D01*
X31055Y129411D02*
X39445Y129411D01*
X39445Y129515D02*
X31055Y129515D01*
X31055Y129619D02*
X39445Y129619D01*
X39445Y129723D02*
X31055Y129723D01*
X31055Y129827D02*
X39445Y129827D01*
X39445Y129931D02*
X31055Y129931D01*
X31055Y130035D02*
X39445Y130035D01*
X39445Y131955D02*
X31055Y131955D01*
X31055Y134045D01*
X39445Y134045D01*
X39445Y131955D01*
X39445Y132059D02*
X31055Y132059D01*
X31055Y132163D02*
X39445Y132163D01*
X39445Y132267D02*
X31055Y132267D01*
X31055Y132371D02*
X39445Y132371D01*
X39445Y132475D02*
X31055Y132475D01*
X31055Y132579D02*
X39445Y132579D01*
X39445Y132683D02*
X31055Y132683D01*
X31055Y132787D02*
X39445Y132787D01*
X39445Y132891D02*
X31055Y132891D01*
X31055Y132995D02*
X39445Y132995D01*
X39445Y133099D02*
X31055Y133099D01*
X31055Y133203D02*
X39445Y133203D01*
X39445Y133307D02*
X31055Y133307D01*
X31055Y133411D02*
X39445Y133411D01*
X39445Y133515D02*
X31055Y133515D01*
X31055Y133619D02*
X39445Y133619D01*
X39445Y133723D02*
X31055Y133723D01*
X31055Y133827D02*
X39445Y133827D01*
X39445Y133931D02*
X31055Y133931D01*
X31055Y134035D02*
X39445Y134035D01*
X36045Y136055D02*
X33955Y136055D01*
X33955Y141445D01*
X36045Y141445D01*
X36045Y136055D01*
X36045Y136159D02*
X33955Y136159D01*
X33955Y136263D02*
X36045Y136263D01*
X36045Y136367D02*
X33955Y136367D01*
X33955Y136471D02*
X36045Y136471D01*
X36045Y136575D02*
X33955Y136575D01*
X33955Y136679D02*
X36045Y136679D01*
X36045Y136783D02*
X33955Y136783D01*
X33955Y136887D02*
X36045Y136887D01*
X36045Y136991D02*
X33955Y136991D01*
X33955Y137095D02*
X36045Y137095D01*
X36045Y137199D02*
X33955Y137199D01*
X33955Y137303D02*
X36045Y137303D01*
X36045Y137407D02*
X33955Y137407D01*
X33955Y137511D02*
X36045Y137511D01*
X36045Y137615D02*
X33955Y137615D01*
X33955Y137719D02*
X36045Y137719D01*
X36045Y137823D02*
X33955Y137823D01*
X33955Y137927D02*
X36045Y137927D01*
X36045Y138031D02*
X33955Y138031D01*
X33955Y138135D02*
X36045Y138135D01*
X36045Y138239D02*
X33955Y138239D01*
X33955Y138343D02*
X36045Y138343D01*
X36045Y138447D02*
X33955Y138447D01*
X33955Y138551D02*
X36045Y138551D01*
X36045Y138655D02*
X33955Y138655D01*
X33955Y138759D02*
X36045Y138759D01*
X36045Y138863D02*
X33955Y138863D01*
X33955Y138967D02*
X36045Y138967D01*
X36045Y139071D02*
X33955Y139071D01*
X33955Y139175D02*
X36045Y139175D01*
X36045Y139279D02*
X33955Y139279D01*
X33955Y139383D02*
X36045Y139383D01*
X36045Y139487D02*
X33955Y139487D01*
X33955Y139591D02*
X36045Y139591D01*
X36045Y139695D02*
X33955Y139695D01*
X33955Y139799D02*
X36045Y139799D01*
X36045Y139903D02*
X33955Y139903D01*
X33955Y140007D02*
X36045Y140007D01*
X36045Y140111D02*
X33955Y140111D01*
X33955Y140215D02*
X36045Y140215D01*
X36045Y140319D02*
X33955Y140319D01*
X33955Y140423D02*
X36045Y140423D01*
X36045Y140527D02*
X33955Y140527D01*
X33955Y140631D02*
X36045Y140631D01*
X36045Y140735D02*
X33955Y140735D01*
X33955Y140839D02*
X36045Y140839D01*
X36045Y140943D02*
X33955Y140943D01*
X33955Y141047D02*
X36045Y141047D01*
X36045Y141151D02*
X33955Y141151D01*
X33955Y141255D02*
X36045Y141255D01*
X36045Y141359D02*
X33955Y141359D01*
X32045Y136055D02*
X29955Y136055D01*
X29955Y141445D01*
X32045Y141445D01*
X32045Y136055D01*
X32045Y136159D02*
X29955Y136159D01*
X29955Y136263D02*
X32045Y136263D01*
X32045Y136367D02*
X29955Y136367D01*
X29955Y136471D02*
X32045Y136471D01*
X32045Y136575D02*
X29955Y136575D01*
X29955Y136679D02*
X32045Y136679D01*
X32045Y136783D02*
X29955Y136783D01*
X29955Y136887D02*
X32045Y136887D01*
X32045Y136991D02*
X29955Y136991D01*
X29955Y137095D02*
X32045Y137095D01*
X32045Y137199D02*
X29955Y137199D01*
X29955Y137303D02*
X32045Y137303D01*
X32045Y137407D02*
X29955Y137407D01*
X29955Y137511D02*
X32045Y137511D01*
X32045Y137615D02*
X29955Y137615D01*
X29955Y137719D02*
X32045Y137719D01*
X32045Y137823D02*
X29955Y137823D01*
X29955Y137927D02*
X32045Y137927D01*
X32045Y138031D02*
X29955Y138031D01*
X29955Y138135D02*
X32045Y138135D01*
X32045Y138239D02*
X29955Y138239D01*
X29955Y138343D02*
X32045Y138343D01*
X32045Y138447D02*
X29955Y138447D01*
X29955Y138551D02*
X32045Y138551D01*
X32045Y138655D02*
X29955Y138655D01*
X29955Y138759D02*
X32045Y138759D01*
X32045Y138863D02*
X29955Y138863D01*
X29955Y138967D02*
X32045Y138967D01*
X32045Y139071D02*
X29955Y139071D01*
X29955Y139175D02*
X32045Y139175D01*
X32045Y139279D02*
X29955Y139279D01*
X29955Y139383D02*
X32045Y139383D01*
X32045Y139487D02*
X29955Y139487D01*
X29955Y139591D02*
X32045Y139591D01*
X32045Y139695D02*
X29955Y139695D01*
X29955Y139799D02*
X32045Y139799D01*
X32045Y139903D02*
X29955Y139903D01*
X29955Y140007D02*
X32045Y140007D01*
X32045Y140111D02*
X29955Y140111D01*
X29955Y140215D02*
X32045Y140215D01*
X32045Y140319D02*
X29955Y140319D01*
X29955Y140423D02*
X32045Y140423D01*
X32045Y140527D02*
X29955Y140527D01*
X29955Y140631D02*
X32045Y140631D01*
X32045Y140735D02*
X29955Y140735D01*
X29955Y140839D02*
X32045Y140839D01*
X32045Y140943D02*
X29955Y140943D01*
X29955Y141047D02*
X32045Y141047D01*
X32045Y141151D02*
X29955Y141151D01*
X29955Y141255D02*
X32045Y141255D01*
X32045Y141359D02*
X29955Y141359D01*
X28045Y136055D02*
X25955Y136055D01*
X25955Y141445D01*
X28045Y141445D01*
X28045Y136055D01*
X28045Y136159D02*
X25955Y136159D01*
X25955Y136263D02*
X28045Y136263D01*
X28045Y136367D02*
X25955Y136367D01*
X25955Y136471D02*
X28045Y136471D01*
X28045Y136575D02*
X25955Y136575D01*
X25955Y136679D02*
X28045Y136679D01*
X28045Y136783D02*
X25955Y136783D01*
X25955Y136887D02*
X28045Y136887D01*
X28045Y136991D02*
X25955Y136991D01*
X25955Y137095D02*
X28045Y137095D01*
X28045Y137199D02*
X25955Y137199D01*
X25955Y137303D02*
X28045Y137303D01*
X28045Y137407D02*
X25955Y137407D01*
X25955Y137511D02*
X28045Y137511D01*
X28045Y137615D02*
X25955Y137615D01*
X25955Y137719D02*
X28045Y137719D01*
X28045Y137823D02*
X25955Y137823D01*
X25955Y137927D02*
X28045Y137927D01*
X28045Y138031D02*
X25955Y138031D01*
X25955Y138135D02*
X28045Y138135D01*
X28045Y138239D02*
X25955Y138239D01*
X25955Y138343D02*
X28045Y138343D01*
X28045Y138447D02*
X25955Y138447D01*
X25955Y138551D02*
X28045Y138551D01*
X28045Y138655D02*
X25955Y138655D01*
X25955Y138759D02*
X28045Y138759D01*
X28045Y138863D02*
X25955Y138863D01*
X25955Y138967D02*
X28045Y138967D01*
X28045Y139071D02*
X25955Y139071D01*
X25955Y139175D02*
X28045Y139175D01*
X28045Y139279D02*
X25955Y139279D01*
X25955Y139383D02*
X28045Y139383D01*
X28045Y139487D02*
X25955Y139487D01*
X25955Y139591D02*
X28045Y139591D01*
X28045Y139695D02*
X25955Y139695D01*
X25955Y139799D02*
X28045Y139799D01*
X28045Y139903D02*
X25955Y139903D01*
X25955Y140007D02*
X28045Y140007D01*
X28045Y140111D02*
X25955Y140111D01*
X25955Y140215D02*
X28045Y140215D01*
X28045Y140319D02*
X25955Y140319D01*
X25955Y140423D02*
X28045Y140423D01*
X28045Y140527D02*
X25955Y140527D01*
X25955Y140631D02*
X28045Y140631D01*
X28045Y140735D02*
X25955Y140735D01*
X25955Y140839D02*
X28045Y140839D01*
X28045Y140943D02*
X25955Y140943D01*
X25955Y141047D02*
X28045Y141047D01*
X28045Y141151D02*
X25955Y141151D01*
X25955Y141255D02*
X28045Y141255D01*
X28045Y141359D02*
X25955Y141359D01*
X24045Y136055D02*
X21955Y136055D01*
X21955Y141445D01*
X24045Y141445D01*
X24045Y136055D01*
X24045Y136159D02*
X21955Y136159D01*
X21955Y136263D02*
X24045Y136263D01*
X24045Y136367D02*
X21955Y136367D01*
X21955Y136471D02*
X24045Y136471D01*
X24045Y136575D02*
X21955Y136575D01*
X21955Y136679D02*
X24045Y136679D01*
X24045Y136783D02*
X21955Y136783D01*
X21955Y136887D02*
X24045Y136887D01*
X24045Y136991D02*
X21955Y136991D01*
X21955Y137095D02*
X24045Y137095D01*
X24045Y137199D02*
X21955Y137199D01*
X21955Y137303D02*
X24045Y137303D01*
X24045Y137407D02*
X21955Y137407D01*
X21955Y137511D02*
X24045Y137511D01*
X24045Y137615D02*
X21955Y137615D01*
X21955Y137719D02*
X24045Y137719D01*
X24045Y137823D02*
X21955Y137823D01*
X21955Y137927D02*
X24045Y137927D01*
X24045Y138031D02*
X21955Y138031D01*
X21955Y138135D02*
X24045Y138135D01*
X24045Y138239D02*
X21955Y138239D01*
X21955Y138343D02*
X24045Y138343D01*
X24045Y138447D02*
X21955Y138447D01*
X21955Y138551D02*
X24045Y138551D01*
X24045Y138655D02*
X21955Y138655D01*
X21955Y138759D02*
X24045Y138759D01*
X24045Y138863D02*
X21955Y138863D01*
X21955Y138967D02*
X24045Y138967D01*
X24045Y139071D02*
X21955Y139071D01*
X21955Y139175D02*
X24045Y139175D01*
X24045Y139279D02*
X21955Y139279D01*
X21955Y139383D02*
X24045Y139383D01*
X24045Y139487D02*
X21955Y139487D01*
X21955Y139591D02*
X24045Y139591D01*
X24045Y139695D02*
X21955Y139695D01*
X21955Y139799D02*
X24045Y139799D01*
X24045Y139903D02*
X21955Y139903D01*
X21955Y140007D02*
X24045Y140007D01*
X24045Y140111D02*
X21955Y140111D01*
X21955Y140215D02*
X24045Y140215D01*
X24045Y140319D02*
X21955Y140319D01*
X21955Y140423D02*
X24045Y140423D01*
X24045Y140527D02*
X21955Y140527D01*
X21955Y140631D02*
X24045Y140631D01*
X24045Y140735D02*
X21955Y140735D01*
X21955Y140839D02*
X24045Y140839D01*
X24045Y140943D02*
X21955Y140943D01*
X21955Y141047D02*
X24045Y141047D01*
X24045Y141151D02*
X21955Y141151D01*
X21955Y141255D02*
X24045Y141255D01*
X24045Y141359D02*
X21955Y141359D01*
D12*
X36680Y83820D02*
X40820Y83820D01*
X40820Y81180D01*
X36680Y81180D01*
X36680Y83820D01*
X36680Y81522D02*
X40820Y81522D01*
X40820Y81864D02*
X36680Y81864D01*
X36680Y82206D02*
X40820Y82206D01*
X40820Y82548D02*
X36680Y82548D01*
X36680Y82890D02*
X40820Y82890D01*
X40820Y83232D02*
X36680Y83232D01*
X36680Y83574D02*
X40820Y83574D01*
X40820Y90420D02*
X36680Y90420D01*
X40820Y90420D02*
X40820Y87780D01*
X36680Y87780D01*
X36680Y90420D01*
X36680Y88122D02*
X40820Y88122D01*
X40820Y88464D02*
X36680Y88464D01*
X36680Y88806D02*
X40820Y88806D01*
X40820Y89148D02*
X36680Y89148D01*
X36680Y89490D02*
X40820Y89490D01*
X40820Y89832D02*
X36680Y89832D01*
X36680Y90174D02*
X40820Y90174D01*
X40820Y96820D02*
X36680Y96820D01*
X40820Y96820D02*
X40820Y94180D01*
X36680Y94180D01*
X36680Y96820D01*
X36680Y94522D02*
X40820Y94522D01*
X40820Y94864D02*
X36680Y94864D01*
X36680Y95206D02*
X40820Y95206D01*
X40820Y95548D02*
X36680Y95548D01*
X36680Y95890D02*
X40820Y95890D01*
X40820Y96232D02*
X36680Y96232D01*
X36680Y96574D02*
X40820Y96574D01*
X21320Y96820D02*
X17180Y96820D01*
X21320Y96820D02*
X21320Y94180D01*
X17180Y94180D01*
X17180Y96820D01*
X17180Y94522D02*
X21320Y94522D01*
X21320Y94864D02*
X17180Y94864D01*
X17180Y95206D02*
X21320Y95206D01*
X21320Y95548D02*
X17180Y95548D01*
X17180Y95890D02*
X21320Y95890D01*
X21320Y96232D02*
X17180Y96232D01*
X17180Y96574D02*
X21320Y96574D01*
X21320Y90320D02*
X17180Y90320D01*
X21320Y90320D02*
X21320Y87680D01*
X17180Y87680D01*
X17180Y90320D01*
X17180Y88022D02*
X21320Y88022D01*
X21320Y88364D02*
X17180Y88364D01*
X17180Y88706D02*
X21320Y88706D01*
X21320Y89048D02*
X17180Y89048D01*
X17180Y89390D02*
X21320Y89390D01*
X21320Y89732D02*
X17180Y89732D01*
X17180Y90074D02*
X21320Y90074D01*
X21320Y83820D02*
X17180Y83820D01*
X21320Y83820D02*
X21320Y81180D01*
X17180Y81180D01*
X17180Y83820D01*
X17180Y81522D02*
X21320Y81522D01*
X21320Y81864D02*
X17180Y81864D01*
X17180Y82206D02*
X21320Y82206D01*
X21320Y82548D02*
X17180Y82548D01*
X17180Y82890D02*
X21320Y82890D01*
X21320Y83232D02*
X17180Y83232D01*
X17180Y83574D02*
X21320Y83574D01*
X36680Y26820D02*
X40820Y26820D01*
X40820Y24180D01*
X36680Y24180D01*
X36680Y26820D01*
X36680Y24522D02*
X40820Y24522D01*
X40820Y24864D02*
X36680Y24864D01*
X36680Y25206D02*
X40820Y25206D01*
X40820Y25548D02*
X36680Y25548D01*
X36680Y25890D02*
X40820Y25890D01*
X40820Y26232D02*
X36680Y26232D01*
X36680Y26574D02*
X40820Y26574D01*
X40820Y33420D02*
X36680Y33420D01*
X40820Y33420D02*
X40820Y30780D01*
X36680Y30780D01*
X36680Y33420D01*
X36680Y31122D02*
X40820Y31122D01*
X40820Y31464D02*
X36680Y31464D01*
X36680Y31806D02*
X40820Y31806D01*
X40820Y32148D02*
X36680Y32148D01*
X36680Y32490D02*
X40820Y32490D01*
X40820Y32832D02*
X36680Y32832D01*
X36680Y33174D02*
X40820Y33174D01*
X40820Y39820D02*
X36680Y39820D01*
X40820Y39820D02*
X40820Y37180D01*
X36680Y37180D01*
X36680Y39820D01*
X36680Y37522D02*
X40820Y37522D01*
X40820Y37864D02*
X36680Y37864D01*
X36680Y38206D02*
X40820Y38206D01*
X40820Y38548D02*
X36680Y38548D01*
X36680Y38890D02*
X40820Y38890D01*
X40820Y39232D02*
X36680Y39232D01*
X36680Y39574D02*
X40820Y39574D01*
X21320Y39820D02*
X17180Y39820D01*
X21320Y39820D02*
X21320Y37180D01*
X17180Y37180D01*
X17180Y39820D01*
X17180Y37522D02*
X21320Y37522D01*
X21320Y37864D02*
X17180Y37864D01*
X17180Y38206D02*
X21320Y38206D01*
X21320Y38548D02*
X17180Y38548D01*
X17180Y38890D02*
X21320Y38890D01*
X21320Y39232D02*
X17180Y39232D01*
X17180Y39574D02*
X21320Y39574D01*
X21320Y33320D02*
X17180Y33320D01*
X21320Y33320D02*
X21320Y30680D01*
X17180Y30680D01*
X17180Y33320D01*
X17180Y31022D02*
X21320Y31022D01*
X21320Y31364D02*
X17180Y31364D01*
X17180Y31706D02*
X21320Y31706D01*
X21320Y32048D02*
X17180Y32048D01*
X17180Y32390D02*
X21320Y32390D01*
X21320Y32732D02*
X17180Y32732D01*
X17180Y33074D02*
X21320Y33074D01*
X21320Y26820D02*
X17180Y26820D01*
X21320Y26820D02*
X21320Y24180D01*
X17180Y24180D01*
X17180Y26820D01*
X17180Y24522D02*
X21320Y24522D01*
X21320Y24864D02*
X17180Y24864D01*
X17180Y25206D02*
X21320Y25206D01*
X21320Y25548D02*
X17180Y25548D01*
X17180Y25890D02*
X21320Y25890D01*
X21320Y26232D02*
X17180Y26232D01*
X17180Y26574D02*
X21320Y26574D01*
D13*
X14700Y204000D03*
X43300Y204000D03*
D10*
X36800Y47800D02*
X33200Y47800D01*
X36800Y47800D02*
X36800Y43200D01*
X33200Y43200D01*
X33200Y47800D01*
X33200Y43580D02*
X36800Y43580D01*
X36800Y43960D02*
X33200Y43960D01*
X33200Y44340D02*
X36800Y44340D01*
X36800Y44720D02*
X33200Y44720D01*
X33200Y45100D02*
X36800Y45100D01*
X36800Y45480D02*
X33200Y45480D01*
X33200Y45860D02*
X36800Y45860D01*
X36800Y46240D02*
X33200Y46240D01*
X33200Y46620D02*
X36800Y46620D01*
X36800Y47000D02*
X33200Y47000D01*
X33200Y47380D02*
X36800Y47380D01*
X36800Y47760D02*
X33200Y47760D01*
X24800Y47800D02*
X21200Y47800D01*
X24800Y47800D02*
X24800Y43200D01*
X21200Y43200D01*
X21200Y47800D01*
X21200Y43580D02*
X24800Y43580D01*
X24800Y43960D02*
X21200Y43960D01*
X21200Y44340D02*
X24800Y44340D01*
X24800Y44720D02*
X21200Y44720D01*
X21200Y45100D02*
X24800Y45100D01*
X24800Y45480D02*
X21200Y45480D01*
X21200Y45860D02*
X24800Y45860D01*
X24800Y46240D02*
X21200Y46240D01*
X21200Y46620D02*
X24800Y46620D01*
X24800Y47000D02*
X21200Y47000D01*
X21200Y47380D02*
X24800Y47380D01*
X24800Y47760D02*
X21200Y47760D01*
D14*
X23150Y100850D02*
X16850Y100850D01*
X16850Y110150D01*
X23150Y110150D01*
X23150Y100850D01*
X23150Y101515D02*
X16850Y101515D01*
X16850Y102180D02*
X23150Y102180D01*
X23150Y102845D02*
X16850Y102845D01*
X16850Y103510D02*
X23150Y103510D01*
X23150Y104175D02*
X16850Y104175D01*
X16850Y104840D02*
X23150Y104840D01*
X23150Y105505D02*
X16850Y105505D01*
X16850Y106170D02*
X23150Y106170D01*
X23150Y106835D02*
X16850Y106835D01*
X16850Y107500D02*
X23150Y107500D01*
X23150Y108165D02*
X16850Y108165D01*
X16850Y108830D02*
X23150Y108830D01*
X23150Y109495D02*
X16850Y109495D01*
X34850Y100850D02*
X41150Y100850D01*
X34850Y100850D02*
X34850Y110150D01*
X41150Y110150D01*
X41150Y100850D01*
X41150Y101515D02*
X34850Y101515D01*
X34850Y102180D02*
X41150Y102180D01*
X41150Y102845D02*
X34850Y102845D01*
X34850Y103510D02*
X41150Y103510D01*
X41150Y104175D02*
X34850Y104175D01*
X34850Y104840D02*
X41150Y104840D01*
X41150Y105505D02*
X34850Y105505D01*
X34850Y106170D02*
X41150Y106170D01*
X41150Y106835D02*
X34850Y106835D01*
X34850Y107500D02*
X41150Y107500D01*
X41150Y108165D02*
X34850Y108165D01*
X34850Y108830D02*
X41150Y108830D01*
X41150Y109495D02*
X34850Y109495D01*
D10*
X33300Y178200D02*
X33300Y181800D01*
X33300Y178200D02*
X28700Y178200D01*
X28700Y181800D01*
X33300Y181800D01*
X33300Y178580D02*
X28700Y178580D01*
X28700Y178960D02*
X33300Y178960D01*
X33300Y179340D02*
X28700Y179340D01*
X28700Y179720D02*
X33300Y179720D01*
X33300Y180100D02*
X28700Y180100D01*
X28700Y180480D02*
X33300Y180480D01*
X33300Y180860D02*
X28700Y180860D01*
X28700Y181240D02*
X33300Y181240D01*
X33300Y181620D02*
X28700Y181620D01*
X33300Y190200D02*
X33300Y193800D01*
X33300Y190200D02*
X28700Y190200D01*
X28700Y193800D01*
X33300Y193800D01*
X33300Y190580D02*
X28700Y190580D01*
X28700Y190960D02*
X33300Y190960D01*
X33300Y191340D02*
X28700Y191340D01*
X28700Y191720D02*
X33300Y191720D01*
X33300Y192100D02*
X28700Y192100D01*
X28700Y192480D02*
X33300Y192480D01*
X33300Y192860D02*
X28700Y192860D01*
X28700Y193240D02*
X33300Y193240D01*
X33300Y193620D02*
X28700Y193620D01*
X25300Y181800D02*
X25300Y178200D01*
X20700Y178200D01*
X20700Y181800D01*
X25300Y181800D01*
X25300Y178580D02*
X20700Y178580D01*
X20700Y178960D02*
X25300Y178960D01*
X25300Y179340D02*
X20700Y179340D01*
X20700Y179720D02*
X25300Y179720D01*
X25300Y180100D02*
X20700Y180100D01*
X20700Y180480D02*
X25300Y180480D01*
X25300Y180860D02*
X20700Y180860D01*
X20700Y181240D02*
X25300Y181240D01*
X25300Y181620D02*
X20700Y181620D01*
X25300Y190200D02*
X25300Y193800D01*
X25300Y190200D02*
X20700Y190200D01*
X20700Y193800D01*
X25300Y193800D01*
X25300Y190580D02*
X20700Y190580D01*
X20700Y190960D02*
X25300Y190960D01*
X25300Y191340D02*
X20700Y191340D01*
X20700Y191720D02*
X25300Y191720D01*
X25300Y192100D02*
X20700Y192100D01*
X20700Y192480D02*
X25300Y192480D01*
X25300Y192860D02*
X20700Y192860D01*
X20700Y193240D02*
X25300Y193240D01*
X25300Y193620D02*
X20700Y193620D01*
X33200Y54300D02*
X36800Y54300D01*
X36800Y49700D01*
X33200Y49700D01*
X33200Y54300D01*
X33200Y50080D02*
X36800Y50080D01*
X36800Y50460D02*
X33200Y50460D01*
X33200Y50840D02*
X36800Y50840D01*
X36800Y51220D02*
X33200Y51220D01*
X33200Y51600D02*
X36800Y51600D01*
X36800Y51980D02*
X33200Y51980D01*
X33200Y52360D02*
X36800Y52360D01*
X36800Y52740D02*
X33200Y52740D01*
X33200Y53120D02*
X36800Y53120D01*
X36800Y53500D02*
X33200Y53500D01*
X33200Y53880D02*
X36800Y53880D01*
X36800Y54260D02*
X33200Y54260D01*
X24800Y54300D02*
X21200Y54300D01*
X24800Y54300D02*
X24800Y49700D01*
X21200Y49700D01*
X21200Y54300D01*
X21200Y50080D02*
X24800Y50080D01*
X24800Y50460D02*
X21200Y50460D01*
X21200Y50840D02*
X24800Y50840D01*
X24800Y51220D02*
X21200Y51220D01*
X21200Y51600D02*
X24800Y51600D01*
X24800Y51980D02*
X21200Y51980D01*
X21200Y52360D02*
X24800Y52360D01*
X24800Y52740D02*
X21200Y52740D01*
X21200Y53120D02*
X24800Y53120D01*
X24800Y53500D02*
X21200Y53500D01*
X21200Y53880D02*
X24800Y53880D01*
X24800Y54260D02*
X21200Y54260D01*
M02*
